SofiaSans-CondensedLight.ufo
<glyph name="exclam" format="2">
  <advance width="134"/>
  <unicode hex="0021"/>
  <outline>
    <contour>
      <point x="62" y="160" type="curve" smooth="yes"/>
      <point x="71" y="160" type="line" smooth="yes"/>
      <point x="73" y="160"/>
      <point x="74" y="161"/>
      <point x="74" y="163" type="curve" smooth="yes"/>
      <point x="75" y="652" type="line" smooth="yes"/>
      <point x="75" y="654"/>
      <point x="74" y="655"/>
      <point x="72" y="655" type="curve" smooth="yes"/>
      <point x="61" y="655" type="line" smooth="yes"/>
      <point x="59" y="655"/>
      <point x="58" y="654"/>
      <point x="58" y="652" type="curve" smooth="yes"/>
      <point x="59" y="163" type="line" smooth="yes"/>
      <point x="59" y="161"/>
      <point x="60" y="160"/>
    </contour>
    <contour>
      <point x="67" y="-7" type="curve" smooth="yes"/>
      <point x="78" y="-7"/>
      <point x="85" y="0"/>
      <point x="85" y="11" type="curve" smooth="yes"/>
      <point x="85" y="18" type="line" smooth="yes"/>
      <point x="85" y="28"/>
      <point x="78" y="34"/>
      <point x="67" y="34" type="curve" smooth="yes"/>
      <point x="56" y="34"/>
      <point x="49" y="28"/>
      <point x="49" y="18" type="curve" smooth="yes"/>
      <point x="49" y="11" type="line" smooth="yes"/>
      <point x="49" y="0"/>
      <point x="56" y="-7"/>
    </contour>
  </outline>
</glyph>
<glyph name="quotedbl" format="2">
  <advance width="210"/>
  <unicode hex="0022"/>
  <outline>
    <contour>
      <point x="155" y="429" type="curve" smooth="yes"/>
      <point x="164" y="429" type="line" smooth="yes"/>
      <point x="166" y="429"/>
      <point x="167" y="430"/>
      <point x="167" y="432" type="curve" smooth="yes"/>
      <point x="167" y="680" type="line" smooth="yes"/>
      <point x="167" y="682"/>
      <point x="166" y="683"/>
      <point x="164" y="683" type="curve" smooth="yes"/>
      <point x="155" y="683" type="line" smooth="yes"/>
      <point x="153" y="683"/>
      <point x="152" y="682"/>
      <point x="152" y="680" type="curve" smooth="yes"/>
      <point x="152" y="432" type="line" smooth="yes"/>
      <point x="152" y="430"/>
      <point x="153" y="429"/>
    </contour>
    <contour>
      <point x="46" y="429" type="curve" smooth="yes"/>
      <point x="55" y="429" type="line" smooth="yes"/>
      <point x="57" y="429"/>
      <point x="58" y="430"/>
      <point x="58" y="432" type="curve" smooth="yes"/>
      <point x="58" y="680" type="line" smooth="yes"/>
      <point x="58" y="682"/>
      <point x="57" y="683"/>
      <point x="55" y="683" type="curve" smooth="yes"/>
      <point x="46" y="683" type="line" smooth="yes"/>
      <point x="44" y="683"/>
      <point x="43" y="682"/>
      <point x="43" y="680" type="curve" smooth="yes"/>
      <point x="43" y="432" type="line" smooth="yes"/>
      <point x="43" y="430"/>
      <point x="44" y="429"/>
    </contour>
  </outline>
</glyph>
<glyph name="numbersign" format="2">
  <advance width="341"/>
  <unicode hex="0023"/>
  <outline>
    <contour>
      <point x="83" y="0" type="curve" smooth="yes"/>
      <point x="91" y="0" type="line" smooth="yes"/>
      <point x="93" y="0"/>
      <point x="94" y="1"/>
      <point x="94" y="3" type="curve" smooth="yes"/>
      <point x="94" y="135" type="line"/>
      <point x="246" y="135" type="line"/>
      <point x="246" y="3" type="line" smooth="yes"/>
      <point x="246" y="1"/>
      <point x="247" y="0"/>
      <point x="249" y="0" type="curve" smooth="yes"/>
      <point x="257" y="0" type="line" smooth="yes"/>
      <point x="259" y="0"/>
      <point x="260" y="1"/>
      <point x="260" y="3" type="curve" smooth="yes"/>
      <point x="260" y="135" type="line"/>
      <point x="313" y="135" type="line" smooth="yes"/>
      <point x="315" y="135"/>
      <point x="316" y="136"/>
      <point x="316" y="138" type="curve" smooth="yes"/>
      <point x="316" y="148" type="line" smooth="yes"/>
      <point x="316" y="150"/>
      <point x="315" y="151"/>
      <point x="313" y="151" type="curve" smooth="yes"/>
      <point x="260" y="151" type="line"/>
      <point x="260" y="462" type="line"/>
      <point x="313" y="462" type="line" smooth="yes"/>
      <point x="315" y="462"/>
      <point x="316" y="463"/>
      <point x="316" y="465" type="curve" smooth="yes"/>
      <point x="316" y="475" type="line" smooth="yes"/>
      <point x="316" y="477"/>
      <point x="315" y="478"/>
      <point x="313" y="478" type="curve" smooth="yes"/>
      <point x="260" y="478" type="line"/>
      <point x="260" y="610" type="line" smooth="yes"/>
      <point x="260" y="612"/>
      <point x="259" y="613"/>
      <point x="257" y="613" type="curve" smooth="yes"/>
      <point x="249" y="613" type="line" smooth="yes"/>
      <point x="247" y="613"/>
      <point x="246" y="612"/>
      <point x="246" y="610" type="curve" smooth="yes"/>
      <point x="246" y="478" type="line"/>
      <point x="94" y="478" type="line"/>
      <point x="94" y="610" type="line" smooth="yes"/>
      <point x="94" y="612"/>
      <point x="93" y="613"/>
      <point x="91" y="613" type="curve" smooth="yes"/>
      <point x="83" y="613" type="line" smooth="yes"/>
      <point x="81" y="613"/>
      <point x="80" y="612"/>
      <point x="80" y="610" type="curve" smooth="yes"/>
      <point x="80" y="478" type="line"/>
      <point x="27" y="478" type="line" smooth="yes"/>
      <point x="25" y="478"/>
      <point x="24" y="477"/>
      <point x="24" y="475" type="curve" smooth="yes"/>
      <point x="24" y="465" type="line" smooth="yes"/>
      <point x="24" y="463"/>
      <point x="25" y="462"/>
      <point x="27" y="462" type="curve" smooth="yes"/>
      <point x="80" y="462" type="line"/>
      <point x="80" y="151" type="line"/>
      <point x="27" y="151" type="line" smooth="yes"/>
      <point x="25" y="151"/>
      <point x="24" y="150"/>
      <point x="24" y="148" type="curve" smooth="yes"/>
      <point x="24" y="138" type="line" smooth="yes"/>
      <point x="24" y="136"/>
      <point x="25" y="135"/>
      <point x="27" y="135" type="curve" smooth="yes"/>
      <point x="80" y="135" type="line"/>
      <point x="80" y="3" type="line" smooth="yes"/>
      <point x="80" y="1"/>
      <point x="81" y="0"/>
    </contour>
    <contour>
      <point x="94" y="151" type="line"/>
      <point x="94" y="462" type="line"/>
      <point x="246" y="462" type="line"/>
      <point x="246" y="151" type="line"/>
    </contour>
  </outline>
</glyph>
<glyph name="dollar" format="2">
  <advance width="420"/>
  <unicode hex="0024"/>
  <outline>
    <contour>
      <point x="209" y="-6" type="curve" smooth="yes"/>
      <point x="287" y="-6"/>
      <point x="328" y="41"/>
      <point x="328" y="142" type="curve" smooth="yes"/>
      <point x="328" y="231"/>
      <point x="308" y="274"/>
      <point x="248" y="327" type="curve" smooth="yes"/>
      <point x="188" y="380" type="line" smooth="yes"/>
      <point x="138" y="425"/>
      <point x="117" y="457"/>
      <point x="117" y="527" type="curve" smooth="yes"/>
      <point x="117" y="602"/>
      <point x="155" y="645"/>
      <point x="210" y="645" type="curve" smooth="yes"/>
      <point x="273" y="645"/>
      <point x="306" y="592"/>
      <point x="306" y="492" type="curve" smooth="yes"/>
      <point x="306" y="490"/>
      <point x="307" y="489"/>
      <point x="309" y="489" type="curve" smooth="yes"/>
      <point x="319" y="489" type="line" smooth="yes"/>
      <point x="321" y="489"/>
      <point x="322" y="490"/>
      <point x="322" y="492" type="curve" smooth="yes"/>
      <point x="322" y="603"/>
      <point x="285" y="661"/>
      <point x="210" y="661" type="curve" smooth="yes"/>
      <point x="146" y="661"/>
      <point x="101" y="611"/>
      <point x="101" y="527" type="curve" smooth="yes"/>
      <point x="101" y="450"/>
      <point x="125" y="413"/>
      <point x="180" y="364" type="curve" smooth="yes"/>
      <point x="239" y="312" type="line" smooth="yes"/>
      <point x="293" y="264"/>
      <point x="312" y="224"/>
      <point x="312" y="142" type="curve" smooth="yes"/>
      <point x="312" y="50"/>
      <point x="278" y="10"/>
      <point x="209" y="10" type="curve" smooth="yes"/>
      <point x="139" y="10"/>
      <point x="109" y="60"/>
      <point x="109" y="167" type="curve" smooth="yes"/>
      <point x="109" y="169"/>
      <point x="108" y="170"/>
      <point x="106" y="170" type="curve" smooth="yes"/>
      <point x="96" y="170" type="line" smooth="yes"/>
      <point x="94" y="170"/>
      <point x="93" y="169"/>
      <point x="93" y="167" type="curve" smooth="yes"/>
      <point x="93" y="49"/>
      <point x="129" y="-6"/>
    </contour>
    <contour>
      <point x="207" y="-89" type="curve" smooth="yes"/>
      <point x="217" y="-89" type="line" smooth="yes"/>
      <point x="219" y="-89"/>
      <point x="220" y="-88"/>
      <point x="220" y="-86" type="curve" smooth="yes"/>
      <point x="220" y="-4" type="line"/>
      <point x="204" y="-4" type="line"/>
      <point x="204" y="-86" type="line" smooth="yes"/>
      <point x="204" y="-88"/>
      <point x="205" y="-89"/>
    </contour>
    <contour>
      <point x="204" y="659" type="line"/>
      <point x="220" y="659" type="line"/>
      <point x="220" y="739" type="line" smooth="yes"/>
      <point x="220" y="741"/>
      <point x="219" y="742"/>
      <point x="217" y="742" type="curve" smooth="yes"/>
      <point x="207" y="742" type="line" smooth="yes"/>
      <point x="205" y="742"/>
      <point x="204" y="741"/>
      <point x="204" y="739" type="curve" smooth="yes"/>
    </contour>
  </outline>
</glyph>
<glyph name="percent" format="2">
  <advance width="559"/>
  <unicode hex="0025"/>
  <outline>
    <contour>
      <point x="160" y="0" type="curve" smooth="yes"/>
      <point x="171" y="0" type="line" smooth="yes"/>
      <point x="172" y="0"/>
      <point x="173" y="0"/>
      <point x="174" y="2" type="curve" smooth="yes"/>
      <point x="288" y="330" type="line"/>
      <point x="400" y="652" type="line" smooth="yes"/>
      <point x="401" y="654"/>
      <point x="399" y="655"/>
      <point x="398" y="655" type="curve" smooth="yes"/>
      <point x="387" y="655" type="line" smooth="yes"/>
      <point x="385" y="655"/>
      <point x="384" y="654"/>
      <point x="384" y="653" type="curve" smooth="yes"/>
      <point x="273" y="333" type="line"/>
      <point x="158" y="3" type="line" smooth="yes"/>
      <point x="157" y="1"/>
      <point x="159" y="0"/>
    </contour>
    <contour>
      <point x="143" y="323" type="curve" smooth="yes"/>
      <point x="203" y="323"/>
      <point x="234" y="362"/>
      <point x="234" y="426" type="curve" smooth="yes"/>
      <point x="234" y="557" type="line" smooth="yes"/>
      <point x="234" y="621"/>
      <point x="203" y="661"/>
      <point x="143" y="661" type="curve" smooth="yes"/>
      <point x="83" y="661"/>
      <point x="52" y="621"/>
      <point x="52" y="557" type="curve" smooth="yes"/>
      <point x="52" y="426" type="line" smooth="yes"/>
      <point x="52" y="362"/>
      <point x="83" y="323"/>
    </contour>
    <contour>
      <point x="143" y="339" type="curve" smooth="yes"/>
      <point x="91" y="339"/>
      <point x="68" y="370"/>
      <point x="68" y="427" type="curve" smooth="yes"/>
      <point x="68" y="556" type="line" smooth="yes"/>
      <point x="68" y="613"/>
      <point x="91" y="645"/>
      <point x="143" y="645" type="curve" smooth="yes"/>
      <point x="195" y="645"/>
      <point x="218" y="613"/>
      <point x="218" y="556" type="curve" smooth="yes"/>
      <point x="218" y="427" type="line" smooth="yes"/>
      <point x="218" y="370"/>
      <point x="195" y="339"/>
    </contour>
    <contour>
      <point x="416" y="-6" type="curve" smooth="yes"/>
      <point x="476" y="-6"/>
      <point x="507" y="34"/>
      <point x="507" y="98" type="curve" smooth="yes"/>
      <point x="507" y="228" type="line" smooth="yes"/>
      <point x="507" y="292"/>
      <point x="476" y="332"/>
      <point x="416" y="332" type="curve" smooth="yes"/>
      <point x="356" y="332"/>
      <point x="325" y="292"/>
      <point x="325" y="228" type="curve" smooth="yes"/>
      <point x="325" y="98" type="line" smooth="yes"/>
      <point x="325" y="34"/>
      <point x="356" y="-6"/>
    </contour>
    <contour>
      <point x="416" y="10" type="curve" smooth="yes"/>
      <point x="364" y="10"/>
      <point x="341" y="42"/>
      <point x="341" y="99" type="curve" smooth="yes"/>
      <point x="341" y="227" type="line" smooth="yes"/>
      <point x="341" y="284"/>
      <point x="364" y="316"/>
      <point x="416" y="316" type="curve" smooth="yes"/>
      <point x="468" y="316"/>
      <point x="491" y="284"/>
      <point x="491" y="227" type="curve" smooth="yes"/>
      <point x="491" y="99" type="line" smooth="yes"/>
      <point x="491" y="42"/>
      <point x="468" y="10"/>
    </contour>
  </outline>
</glyph>
<glyph name="ampersand" format="2">
  <advance width="375"/>
  <unicode hex="0026"/>
  <outline>
    <contour>
      <point x="350" y="0" type="curve" smooth="yes"/>
      <point x="361" y="0" type="line" smooth="yes"/>
      <point x="363" y="0"/>
      <point x="363" y="2"/>
      <point x="362" y="4" type="curve" smooth="yes"/>
      <point x="136" y="382" type="line" smooth="yes"/>
      <point x="102" y="438"/>
      <point x="86" y="493"/>
      <point x="86" y="551" type="curve" smooth="yes"/>
      <point x="86" y="613"/>
      <point x="114" y="645"/>
      <point x="154" y="645" type="curve" smooth="yes"/>
      <point x="193" y="645"/>
      <point x="212" y="611"/>
      <point x="212" y="556" type="curve" smooth="yes"/>
      <point x="212" y="469"/>
      <point x="176" y="419"/>
      <point x="134" y="369" type="curve"/>
      <point x="145" y="358" type="line"/>
      <point x="212" y="441"/>
      <point x="228" y="487"/>
      <point x="228" y="556" type="curve" smooth="yes"/>
      <point x="228" y="621"/>
      <point x="203" y="661"/>
      <point x="154" y="661" type="curve" smooth="yes"/>
      <point x="104" y="661"/>
      <point x="70" y="622"/>
      <point x="70" y="549" type="curve" smooth="yes"/>
      <point x="70" y="490"/>
      <point x="88" y="432"/>
      <point x="122" y="375" type="curve" smooth="yes"/>
      <point x="346" y="2" type="line" smooth="yes"/>
      <point x="347" y="0"/>
      <point x="348" y="0"/>
    </contour>
    <contour>
      <point x="154" y="-6" type="curve" smooth="yes"/>
      <point x="264" y="-6"/>
      <point x="331" y="110"/>
      <point x="331" y="333" type="curve" smooth="yes"/>
      <point x="331" y="335"/>
      <point x="330" y="336"/>
      <point x="328" y="336" type="curve" smooth="yes"/>
      <point x="318" y="336" type="line" smooth="yes"/>
      <point x="316" y="336"/>
      <point x="315" y="335"/>
      <point x="315" y="333" type="curve" smooth="yes"/>
      <point x="315" y="118"/>
      <point x="255" y="10"/>
      <point x="154" y="10" type="curve" smooth="yes"/>
      <point x="93" y="10"/>
      <point x="58" y="60"/>
      <point x="58" y="142" type="curve" smooth="yes"/>
      <point x="58" y="216"/>
      <point x="80" y="279"/>
      <point x="142" y="355" type="curve"/>
      <point x="132" y="367" type="line"/>
      <point x="64" y="282"/>
      <point x="42" y="219"/>
      <point x="42" y="141" type="curve" smooth="yes"/>
      <point x="42" y="48"/>
      <point x="81" y="-6"/>
    </contour>
  </outline>
</glyph>
<glyph name="quotesingle" format="2">
  <advance width="101"/>
  <unicode hex="0027"/>
  <outline>
    <contour>
      <point x="46" y="429" type="curve" smooth="yes"/>
      <point x="55" y="429" type="line" smooth="yes"/>
      <point x="57" y="429"/>
      <point x="58" y="430"/>
      <point x="58" y="432" type="curve" smooth="yes"/>
      <point x="58" y="680" type="line" smooth="yes"/>
      <point x="58" y="682"/>
      <point x="57" y="683"/>
      <point x="55" y="683" type="curve" smooth="yes"/>
      <point x="46" y="683" type="line" smooth="yes"/>
      <point x="44" y="683"/>
      <point x="43" y="682"/>
      <point x="43" y="680" type="curve" smooth="yes"/>
      <point x="43" y="432" type="line" smooth="yes"/>
      <point x="43" y="430"/>
      <point x="44" y="429"/>
    </contour>
  </outline>
</glyph>
<glyph name="parenleft" format="2">
  <advance width="155"/>
  <unicode hex="0028"/>
  <outline>
    <contour>
      <point x="116" y="-141" type="curve" smooth="yes"/>
      <point x="117" y="-142"/>
      <point x="119" y="-142"/>
      <point x="120" y="-141" type="curve" smooth="yes"/>
      <point x="127" y="-132" type="line" smooth="yes"/>
      <point x="128" y="-131"/>
      <point x="128" y="-129"/>
      <point x="127" y="-128" type="curve" smooth="yes"/>
      <point x="81" y="-79"/>
      <point x="71" y="-54"/>
      <point x="71" y="35" type="curve" smooth="yes"/>
      <point x="71" y="520" type="line" smooth="yes"/>
      <point x="71" y="608"/>
      <point x="81" y="634"/>
      <point x="127" y="683" type="curve" smooth="yes"/>
      <point x="128" y="684"/>
      <point x="128" y="686"/>
      <point x="127" y="687" type="curve" smooth="yes"/>
      <point x="120" y="696" type="line" smooth="yes"/>
      <point x="119" y="697"/>
      <point x="117" y="697"/>
      <point x="116" y="696" type="curve" smooth="yes"/>
      <point x="62" y="639"/>
      <point x="55" y="608"/>
      <point x="55" y="521" type="curve" smooth="yes"/>
      <point x="55" y="34" type="line" smooth="yes"/>
      <point x="55" y="-53"/>
      <point x="62" y="-84"/>
    </contour>
  </outline>
</glyph>
<glyph name="parenright" format="2">
  <advance width="155"/>
  <unicode hex="0029"/>
  <outline>
    <contour>
      <point x="35" y="-141" type="line" smooth="yes"/>
      <point x="36" y="-142"/>
      <point x="38" y="-142"/>
      <point x="39" y="-141" type="curve" smooth="yes"/>
      <point x="93" y="-84"/>
      <point x="100" y="-53"/>
      <point x="100" y="34" type="curve" smooth="yes"/>
      <point x="100" y="521" type="line" smooth="yes"/>
      <point x="100" y="608"/>
      <point x="93" y="639"/>
      <point x="39" y="696" type="curve" smooth="yes"/>
      <point x="38" y="697"/>
      <point x="36" y="697"/>
      <point x="35" y="696" type="curve" smooth="yes"/>
      <point x="28" y="687" type="line" smooth="yes"/>
      <point x="27" y="686"/>
      <point x="27" y="684"/>
      <point x="28" y="683" type="curve" smooth="yes"/>
      <point x="74" y="634"/>
      <point x="84" y="608"/>
      <point x="84" y="520" type="curve" smooth="yes"/>
      <point x="84" y="35" type="line" smooth="yes"/>
      <point x="84" y="-54"/>
      <point x="74" y="-79"/>
      <point x="28" y="-128" type="curve" smooth="yes"/>
      <point x="27" y="-129"/>
      <point x="27" y="-131"/>
      <point x="28" y="-132" type="curve" smooth="yes"/>
    </contour>
  </outline>
</glyph>
<glyph name="asterisk" format="2">
  <advance width="321"/>
  <unicode hex="002A"/>
  <outline>
    <contour>
      <point x="90" y="457" type="line" smooth="yes"/>
      <point x="92" y="456"/>
      <point x="93" y="456"/>
      <point x="94" y="457" type="curve" smooth="yes"/>
      <point x="161" y="539" type="line"/>
      <point x="227" y="457" type="line" smooth="yes"/>
      <point x="228" y="456"/>
      <point x="230" y="456"/>
      <point x="231" y="457" type="curve" smooth="yes"/>
      <point x="239" y="464" type="line" smooth="yes"/>
      <point x="240" y="465"/>
      <point x="240" y="467"/>
      <point x="239" y="468" type="curve" smooth="yes"/>
      <point x="170" y="546" type="line"/>
      <point x="269" y="580" type="line" smooth="yes"/>
      <point x="271" y="581"/>
      <point x="272" y="582"/>
      <point x="271" y="584" type="curve" smooth="yes"/>
      <point x="267" y="594" type="line" smooth="yes"/>
      <point x="266" y="596"/>
      <point x="265" y="596"/>
      <point x="263" y="595" type="curve" smooth="yes"/>
      <point x="166" y="557" type="line"/>
      <point x="168" y="662" type="line" smooth="yes"/>
      <point x="168" y="664"/>
      <point x="167" y="665"/>
      <point x="165" y="665" type="curve" smooth="yes"/>
      <point x="155" y="665" type="line" smooth="yes"/>
      <point x="153" y="665"/>
      <point x="152" y="664"/>
      <point x="152" y="662" type="curve" smooth="yes"/>
      <point x="154" y="558" type="line"/>
      <point x="58" y="595" type="line" smooth="yes"/>
      <point x="56" y="596"/>
      <point x="55" y="596"/>
      <point x="54" y="594" type="curve" smooth="yes"/>
      <point x="50" y="584" type="line" smooth="yes"/>
      <point x="49" y="582"/>
      <point x="50" y="581"/>
      <point x="52" y="580" type="curve" smooth="yes"/>
      <point x="151" y="546" type="line"/>
      <point x="82" y="468" type="line" smooth="yes"/>
      <point x="81" y="466"/>
      <point x="81" y="465"/>
      <point x="83" y="463" type="curve" smooth="yes"/>
    </contour>
  </outline>
</glyph>
<glyph name="plus" format="2">
  <advance width="420"/>
  <unicode hex="002B"/>
  <outline>
    <contour>
      <point x="204" y="186" type="curve" smooth="yes"/>
      <point x="214" y="186" type="line" smooth="yes"/>
      <point x="216" y="186"/>
      <point x="217" y="187"/>
      <point x="217" y="189" type="curve" smooth="yes"/>
      <point x="217" y="293" type="line"/>
      <point x="322" y="293" type="line" smooth="yes"/>
      <point x="324" y="293"/>
      <point x="325" y="294"/>
      <point x="325" y="296" type="curve" smooth="yes"/>
      <point x="325" y="306" type="line" smooth="yes"/>
      <point x="325" y="308"/>
      <point x="324" y="309"/>
      <point x="322" y="309" type="curve" smooth="yes"/>
      <point x="217" y="309" type="line"/>
      <point x="217" y="414" type="line" smooth="yes"/>
      <point x="217" y="416"/>
      <point x="216" y="417"/>
      <point x="214" y="417" type="curve" smooth="yes"/>
      <point x="204" y="417" type="line" smooth="yes"/>
      <point x="202" y="417"/>
      <point x="201" y="416"/>
      <point x="201" y="414" type="curve" smooth="yes"/>
      <point x="201" y="309" type="line"/>
      <point x="97" y="309" type="line" smooth="yes"/>
      <point x="95" y="309"/>
      <point x="94" y="308"/>
      <point x="94" y="306" type="curve" smooth="yes"/>
      <point x="94" y="296" type="line" smooth="yes"/>
      <point x="94" y="294"/>
      <point x="95" y="293"/>
      <point x="97" y="293" type="curve" smooth="yes"/>
      <point x="201" y="293" type="line"/>
      <point x="201" y="189" type="line" smooth="yes"/>
      <point x="201" y="187"/>
      <point x="202" y="186"/>
    </contour>
  </outline>
</glyph>
<glyph name="comma" format="2">
  <advance width="134"/>
  <unicode hex="002C"/>
  <outline>
    <contour>
      <point x="32" y="-147" type="curve" smooth="yes"/>
      <point x="39" y="-147" type="line" smooth="yes"/>
      <point x="41" y="-147"/>
      <point x="42" y="-147"/>
      <point x="43" y="-143" type="curve" smooth="yes"/>
      <point x="94" y="82" type="line" smooth="yes"/>
      <point x="95" y="86"/>
      <point x="94" y="87"/>
      <point x="91" y="87" type="curve" smooth="yes"/>
      <point x="80" y="87" type="line" smooth="yes"/>
      <point x="78" y="87"/>
      <point x="77" y="87"/>
      <point x="76" y="83" type="curve" smooth="yes"/>
      <point x="30" y="-142" type="line" smooth="yes"/>
      <point x="29" y="-146"/>
      <point x="30" y="-147"/>
    </contour>
  </outline>
</glyph>
<glyph name="period" format="2">
  <advance width="134"/>
  <unicode hex="002E"/>
  <outline>
    <contour>
      <point x="67" y="-7" type="curve" smooth="yes"/>
      <point x="78" y="-7"/>
      <point x="85" y="0"/>
      <point x="85" y="11" type="curve" smooth="yes"/>
      <point x="85" y="18" type="line" smooth="yes"/>
      <point x="85" y="28"/>
      <point x="78" y="34"/>
      <point x="67" y="34" type="curve" smooth="yes"/>
      <point x="56" y="34"/>
      <point x="49" y="28"/>
      <point x="49" y="18" type="curve" smooth="yes"/>
      <point x="49" y="11" type="line" smooth="yes"/>
      <point x="49" y="0"/>
      <point x="56" y="-7"/>
    </contour>
  </outline>
</glyph>
<glyph name="slash" format="2">
  <advance width="207"/>
  <unicode hex="002F"/>
  <outline>
    <contour>
      <point x="13" y="0" type="curve" smooth="yes"/>
      <point x="23" y="0" type="line" smooth="yes"/>
      <point x="24" y="0"/>
      <point x="25" y="1"/>
      <point x="25" y="2" type="curve" smooth="yes"/>
      <point x="196" y="652" type="line" smooth="yes"/>
      <point x="197" y="654"/>
      <point x="195" y="655"/>
      <point x="194" y="655" type="curve" smooth="yes"/>
      <point x="184" y="655" type="line" smooth="yes"/>
      <point x="182" y="655"/>
      <point x="182" y="655"/>
      <point x="181" y="653" type="curve" smooth="yes"/>
      <point x="11" y="3" type="line" smooth="yes"/>
      <point x="10" y="1"/>
      <point x="11" y="0"/>
    </contour>
  </outline>
</glyph>
<glyph name="zero" format="2">
  <advance width="348"/>
  <unicode hex="0030"/>
  <outline>
    <contour>
      <point x="174" y="-6" type="curve" smooth="yes"/>
      <point x="255" y="-6"/>
      <point x="297" y="54"/>
      <point x="297" y="168" type="curve" smooth="yes"/>
      <point x="297" y="487" type="line" smooth="yes"/>
      <point x="297" y="601"/>
      <point x="255" y="661"/>
      <point x="174" y="661" type="curve" smooth="yes"/>
      <point x="93" y="661"/>
      <point x="51" y="601"/>
      <point x="51" y="487" type="curve" smooth="yes"/>
      <point x="51" y="168" type="line" smooth="yes"/>
      <point x="51" y="54"/>
      <point x="93" y="-6"/>
    </contour>
    <contour>
      <point x="174" y="10" type="curve" smooth="yes"/>
      <point x="102" y="10"/>
      <point x="67" y="63"/>
      <point x="67" y="169" type="curve" smooth="yes"/>
      <point x="67" y="486" type="line" smooth="yes"/>
      <point x="67" y="592"/>
      <point x="102" y="645"/>
      <point x="174" y="645" type="curve" smooth="yes"/>
      <point x="246" y="645"/>
      <point x="281" y="592"/>
      <point x="281" y="486" type="curve" smooth="yes"/>
      <point x="281" y="169" type="line" smooth="yes"/>
      <point x="281" y="63"/>
      <point x="246" y="10"/>
    </contour>
  </outline>
</glyph>
<glyph name="one" format="2">
  <advance width="263"/>
  <unicode hex="0031"/>
  <outline>
    <contour>
      <point x="33" y="0" type="curve" smooth="yes"/>
      <point x="245" y="0" type="line" smooth="yes"/>
      <point x="247" y="0"/>
      <point x="248" y="1"/>
      <point x="248" y="3" type="curve" smooth="yes"/>
      <point x="248" y="13" type="line" smooth="yes"/>
      <point x="248" y="15"/>
      <point x="247" y="16"/>
      <point x="245" y="16" type="curve" smooth="yes"/>
      <point x="152" y="16" type="line"/>
      <point x="152" y="656" type="line" smooth="yes"/>
      <point x="152" y="658"/>
      <point x="152" y="659"/>
      <point x="150" y="659" type="curve" smooth="yes"/>
      <point x="148" y="659" type="line" smooth="yes"/>
      <point x="147" y="659"/>
      <point x="146" y="659"/>
      <point x="144" y="658" type="curve" smooth="yes"/>
      <point x="33" y="606" type="line" smooth="yes"/>
      <point x="31" y="605"/>
      <point x="30" y="604"/>
      <point x="30" y="601" type="curve" smooth="yes"/>
      <point x="30" y="592" type="line" smooth="yes"/>
      <point x="30" y="589"/>
      <point x="31" y="588"/>
      <point x="33" y="589" type="curve" smooth="yes"/>
      <point x="136" y="637" type="line"/>
      <point x="136" y="16" type="line"/>
      <point x="33" y="16" type="line" smooth="yes"/>
      <point x="31" y="16"/>
      <point x="30" y="15"/>
      <point x="30" y="13" type="curve" smooth="yes"/>
      <point x="30" y="3" type="line" smooth="yes"/>
      <point x="30" y="1"/>
      <point x="31" y="0"/>
    </contour>
  </outline>
</glyph>
<glyph name="two" format="2">
  <advance width="316"/>
  <unicode hex="0032"/>
  <outline>
    <contour>
      <point x="52" y="0" type="curve" smooth="yes"/>
      <point x="269" y="0" type="line" smooth="yes"/>
      <point x="271" y="0"/>
      <point x="272" y="1"/>
      <point x="272" y="3" type="curve" smooth="yes"/>
      <point x="272" y="13" type="line" smooth="yes"/>
      <point x="272" y="15"/>
      <point x="271" y="16"/>
      <point x="269" y="16" type="curve" smooth="yes"/>
      <point x="65" y="16" type="line"/>
      <point x="65" y="334"/>
      <point x="273" y="267"/>
      <point x="273" y="517" type="curve" smooth="yes"/>
      <point x="273" y="617.057"/>
      <point x="239" y="661"/>
      <point x="166" y="661" type="curve" smooth="yes"/>
      <point x="86" y="661"/>
      <point x="47.802" y="603.437"/>
      <point x="54" y="496" type="curve" smooth="yes"/>
      <point x="54" y="494"/>
      <point x="55" y="493"/>
      <point x="57" y="493" type="curve" smooth="yes"/>
      <point x="67" y="493" type="line" smooth="yes"/>
      <point x="69" y="493"/>
      <point x="70" y="494"/>
      <point x="70" y="496" type="curve" smooth="yes"/>
      <point x="63.727" y="594.279"/>
      <point x="95" y="645"/>
      <point x="166" y="645" type="curve" smooth="yes"/>
      <point x="228" y="645"/>
      <point x="257" y="606.742"/>
      <point x="257" y="520" type="curve" smooth="yes"/>
      <point x="257" y="511" type="line" smooth="yes"/>
      <point x="257" y="288"/>
      <point x="49" y="331"/>
      <point x="49" y="21" type="curve" smooth="yes"/>
      <point x="49" y="3" type="line" smooth="yes"/>
      <point x="49" y="1"/>
      <point x="49.875" y="0"/>
    </contour>
  </outline>
</glyph>
<glyph name="three" format="2">
  <advance width="330"/>
  <unicode hex="0033"/>
  <outline>
    <contour>
      <point x="162" y="-6" type="curve" smooth="yes"/>
      <point x="241" y="-6"/>
      <point x="285" y="53"/>
      <point x="285" y="173" type="curve" smooth="yes"/>
      <point x="285" y="271"/>
      <point x="254" y="324"/>
      <point x="200" y="337" type="curve"/>
      <point x="200" y="338" type="line"/>
      <point x="245" y="356"/>
      <point x="276" y="409"/>
      <point x="276" y="507" type="curve" smooth="yes"/>
      <point x="276" y="610"/>
      <point x="239" y="661"/>
      <point x="166" y="661" type="curve" smooth="yes"/>
      <point x="86" y="661"/>
      <point x="46" y="597"/>
      <point x="50" y="496" type="curve" smooth="yes"/>
      <point x="50" y="494"/>
      <point x="51" y="493"/>
      <point x="53" y="493" type="curve" smooth="yes"/>
      <point x="63" y="493" type="line" smooth="yes"/>
      <point x="65" y="493"/>
      <point x="66" y="494"/>
      <point x="66" y="496" type="curve" smooth="yes"/>
      <point x="63" y="587"/>
      <point x="94" y="645"/>
      <point x="166" y="645" type="curve" smooth="yes"/>
      <point x="230" y="645"/>
      <point x="260" y="597"/>
      <point x="260" y="511" type="curve" smooth="yes"/>
      <point x="260" y="501" type="line" smooth="yes"/>
      <point x="260" y="403"/>
      <point x="217" y="344"/>
      <point x="161" y="344" type="curve" smooth="yes"/>
      <point x="122" y="344" type="line" smooth="yes"/>
      <point x="120" y="344"/>
      <point x="119" y="343"/>
      <point x="119" y="341" type="curve" smooth="yes"/>
      <point x="119" y="331" type="line" smooth="yes"/>
      <point x="119" y="329"/>
      <point x="120" y="328"/>
      <point x="122" y="328" type="curve" smooth="yes"/>
      <point x="161" y="328" type="line" smooth="yes"/>
      <point x="231" y="328"/>
      <point x="269" y="277"/>
      <point x="269" y="174" type="curve" smooth="yes"/>
      <point x="269" y="163" type="line" smooth="yes"/>
      <point x="269" y="64"/>
      <point x="230" y="10"/>
      <point x="162" y="10" type="curve" smooth="yes"/>
      <point x="91" y="10"/>
      <point x="60" y="59"/>
      <point x="61" y="164" type="curve" smooth="yes"/>
      <point x="61" y="166"/>
      <point x="60" y="167"/>
      <point x="58" y="167" type="curve" smooth="yes"/>
      <point x="48" y="167" type="line" smooth="yes"/>
      <point x="46" y="167"/>
      <point x="45" y="166"/>
      <point x="45" y="164" type="curve" smooth="yes"/>
      <point x="44" y="49"/>
      <point x="80" y="-6"/>
    </contour>
  </outline>
</glyph>
<glyph name="four" format="2">
  <advance width="308"/>
  <unicode hex="0034"/>
  <outline>
    <contour>
      <point x="223" y="0" type="curve" smooth="yes"/>
      <point x="233" y="0" type="line" smooth="yes"/>
      <point x="235" y="0"/>
      <point x="236" y="1"/>
      <point x="236" y="3" type="curve" smooth="yes"/>
      <point x="236" y="149" type="line"/>
      <point x="295" y="149" type="line" smooth="yes"/>
      <point x="297" y="149"/>
      <point x="298" y="150"/>
      <point x="298" y="152" type="curve" smooth="yes"/>
      <point x="298" y="162" type="line" smooth="yes"/>
      <point x="298" y="164"/>
      <point x="297" y="165"/>
      <point x="295" y="165" type="curve" smooth="yes"/>
      <point x="236" y="165" type="line"/>
      <point x="236" y="415" type="line" smooth="yes"/>
      <point x="236" y="417"/>
      <point x="235" y="418"/>
      <point x="233" y="418" type="curve" smooth="yes"/>
      <point x="223" y="418" type="line" smooth="yes"/>
      <point x="221" y="418"/>
      <point x="220" y="417"/>
      <point x="220" y="415" type="curve" smooth="yes"/>
      <point x="220" y="165" type="line"/>
      <point x="35" y="165" type="line"/>
      <point x="198" y="651" type="line" smooth="yes"/>
      <point x="199" y="654"/>
      <point x="198" y="655"/>
      <point x="196" y="655" type="curve" smooth="yes"/>
      <point x="185" y="655" type="line" smooth="yes"/>
      <point x="183" y="655"/>
      <point x="182" y="655"/>
      <point x="181" y="653" type="curve" smooth="yes"/>
      <point x="16" y="160" type="line" smooth="yes"/>
      <point x="15" y="158"/>
      <point x="15" y="157"/>
      <point x="15" y="155" type="curve" smooth="yes"/>
      <point x="15" y="152" type="line" smooth="yes"/>
      <point x="15" y="150"/>
      <point x="16" y="149"/>
      <point x="18" y="149" type="curve" smooth="yes"/>
      <point x="220" y="149" type="line"/>
      <point x="220" y="3" type="line" smooth="yes"/>
      <point x="220" y="1"/>
      <point x="221" y="0"/>
    </contour>
  </outline>
</glyph>
<glyph name="five" format="2">
  <advance width="301"/>
  <unicode hex="0035"/>
  <outline>
    <contour>
      <point x="151" y="-6" type="curve" smooth="yes"/>
      <point x="227" y="-6"/>
      <point x="273" y="68"/>
      <point x="273" y="193" type="curve" smooth="yes"/>
      <point x="273" y="321"/>
      <point x="239" y="395"/>
      <point x="157" y="395" type="curve" smooth="yes"/>
      <point x="125" y="395"/>
      <point x="96" y="383"/>
      <point x="70" y="368" type="curve"/>
      <point x="98" y="639" type="line"/>
      <point x="247" y="639" type="line" smooth="yes"/>
      <point x="249" y="639"/>
      <point x="250" y="640"/>
      <point x="250" y="642" type="curve" smooth="yes"/>
      <point x="250" y="652" type="line" smooth="yes"/>
      <point x="250" y="654"/>
      <point x="249" y="655"/>
      <point x="247" y="655" type="curve" smooth="yes"/>
      <point x="86" y="655" type="line" smooth="yes"/>
      <point x="84" y="655"/>
      <point x="83" y="654"/>
      <point x="83" y="652" type="curve" smooth="yes"/>
      <point x="53" y="351" type="line" smooth="yes"/>
      <point x="52" y="346"/>
      <point x="58" y="343"/>
      <point x="63" y="346" type="curve" smooth="yes"/>
      <point x="92" y="364"/>
      <point x="121" y="379"/>
      <point x="156" y="379" type="curve" smooth="yes"/>
      <point x="234" y="379"/>
      <point x="257" y="295"/>
      <point x="257" y="196" type="curve" smooth="yes"/>
      <point x="257" y="190" type="line" smooth="yes"/>
      <point x="257" y="77"/>
      <point x="216" y="10"/>
      <point x="151" y="10" type="curve" smooth="yes"/>
      <point x="83" y="10"/>
      <point x="55" y="66"/>
      <point x="56" y="164" type="curve" smooth="yes"/>
      <point x="56" y="166"/>
      <point x="55" y="167"/>
      <point x="53" y="167" type="curve" smooth="yes"/>
      <point x="43" y="167" type="line" smooth="yes"/>
      <point x="41" y="167"/>
      <point x="40" y="166"/>
      <point x="40" y="164" type="curve" smooth="yes"/>
      <point x="40" y="51"/>
      <point x="76" y="-6"/>
    </contour>
  </outline>
</glyph>
<glyph name="six" format="2">
  <advance width="340"/>
  <unicode hex="0036"/>
  <outline>
    <contour>
      <point x="172" y="-6" type="curve" smooth="yes"/>
      <point x="253" y="-6"/>
      <point x="295" y="63"/>
      <point x="295" y="196" type="curve" smooth="yes"/>
      <point x="295" y="337"/>
      <point x="264" y="396"/>
      <point x="193" y="396" type="curve" smooth="yes"/>
      <point x="150" y="396"/>
      <point x="110" y="378"/>
      <point x="60" y="339" type="curve"/>
      <point x="60" y="320" type="line"/>
      <point x="114" y="363"/>
      <point x="154" y="380"/>
      <point x="192" y="380" type="curve" smooth="yes"/>
      <point x="253" y="380"/>
      <point x="279" y="327"/>
      <point x="279" y="199" type="curve" smooth="yes"/>
      <point x="279" y="194" type="line" smooth="yes"/>
      <point x="279" y="72"/>
      <point x="243" y="10"/>
      <point x="172" y="10" type="curve" smooth="yes"/>
      <point x="99" y="10"/>
      <point x="67" y="59"/>
      <point x="67" y="174" type="curve" smooth="yes"/>
      <point x="67" y="481" type="line" smooth="yes"/>
      <point x="67" y="594"/>
      <point x="101" y="645"/>
      <point x="174" y="645" type="curve" smooth="yes"/>
      <point x="232" y="645"/>
      <point x="265" y="604"/>
      <point x="265" y="530" type="curve" smooth="yes"/>
      <point x="265" y="528"/>
      <point x="266" y="527"/>
      <point x="268" y="527" type="curve" smooth="yes"/>
      <point x="278" y="527" type="line" smooth="yes"/>
      <point x="280" y="527"/>
      <point x="281" y="528"/>
      <point x="281" y="530" type="curve" smooth="yes"/>
      <point x="281" y="615"/>
      <point x="243" y="661"/>
      <point x="174" y="661" type="curve" smooth="yes"/>
      <point x="90" y="661"/>
      <point x="51" y="604"/>
      <point x="51" y="482" type="curve" smooth="yes"/>
      <point x="51" y="173" type="line" smooth="yes"/>
      <point x="51" y="50"/>
      <point x="89" y="-6"/>
    </contour>
  </outline>
</glyph>
<glyph name="seven" format="2">
  <advance width="302"/>
  <unicode hex="0037"/>
  <outline>
    <contour>
      <point x="102" y="0" type="curve" smooth="yes"/>
      <point x="111" y="0" type="line" smooth="yes"/>
      <point x="113" y="0"/>
      <point x="114" y="0"/>
      <point x="115" y="3" type="curve" smooth="yes"/>
      <point x="286" y="642" type="line" smooth="yes"/>
      <point x="287" y="645"/>
      <point x="287" y="646"/>
      <point x="287" y="648" type="curve" smooth="yes"/>
      <point x="287" y="652" type="line" smooth="yes"/>
      <point x="287" y="654"/>
      <point x="286" y="655"/>
      <point x="284" y="655" type="curve" smooth="yes"/>
      <point x="40" y="655" type="line" smooth="yes"/>
      <point x="38" y="655"/>
      <point x="37" y="654"/>
      <point x="37" y="652" type="curve" smooth="yes"/>
      <point x="37" y="517" type="line" smooth="yes"/>
      <point x="37" y="515"/>
      <point x="38" y="514"/>
      <point x="40" y="514" type="curve" smooth="yes"/>
      <point x="50" y="514" type="line" smooth="yes"/>
      <point x="52" y="514"/>
      <point x="53" y="515"/>
      <point x="53" y="517" type="curve" smooth="yes"/>
      <point x="53" y="639" type="line"/>
      <point x="268" y="639" type="line"/>
      <point x="100" y="4" type="line" smooth="yes"/>
      <point x="99" y="1"/>
      <point x="100" y="0"/>
    </contour>
  </outline>
</glyph>
<glyph name="eight" format="2">
  <advance width="338"/>
  <unicode hex="0038"/>
  <outline>
    <contour>
      <point x="169" y="-6" type="curve" smooth="yes"/>
      <point x="256" y="-6"/>
      <point x="298" y="49"/>
      <point x="298" y="163" type="curve" smooth="yes"/>
      <point x="298" y="266"/>
      <point x="264" y="332"/>
      <point x="204" y="350" type="curve"/>
      <point x="256" y="369"/>
      <point x="281" y="419"/>
      <point x="281" y="503" type="curve" smooth="yes"/>
      <point x="281" y="606"/>
      <point x="242" y="661"/>
      <point x="169" y="661" type="curve" smooth="yes"/>
      <point x="96" y="661"/>
      <point x="57" y="606"/>
      <point x="57" y="503" type="curve" smooth="yes"/>
      <point x="57" y="419"/>
      <point x="82" y="369"/>
      <point x="134" y="350" type="curve"/>
      <point x="74" y="332"/>
      <point x="40" y="266"/>
      <point x="40" y="163" type="curve" smooth="yes"/>
      <point x="40" y="49"/>
      <point x="82" y="-6"/>
    </contour>
    <contour>
      <point x="169" y="10" type="curve" smooth="yes"/>
      <point x="93" y="10"/>
      <point x="56" y="59"/>
      <point x="56" y="160" type="curve" smooth="yes"/>
      <point x="56" y="167" type="line" smooth="yes"/>
      <point x="56" y="275"/>
      <point x="100" y="342"/>
      <point x="169" y="342" type="curve" smooth="yes"/>
      <point x="238" y="342"/>
      <point x="282" y="275"/>
      <point x="282" y="167" type="curve" smooth="yes"/>
      <point x="282" y="160" type="line" smooth="yes"/>
      <point x="282" y="59"/>
      <point x="245" y="10"/>
    </contour>
    <contour>
      <point x="169" y="358" type="curve" smooth="yes"/>
      <point x="109" y="358"/>
      <point x="73" y="411"/>
      <point x="73" y="499" type="curve" smooth="yes"/>
      <point x="73" y="505" type="line" smooth="yes"/>
      <point x="73" y="598"/>
      <point x="105" y="645"/>
      <point x="169" y="645" type="curve" smooth="yes"/>
      <point x="233" y="645"/>
      <point x="265" y="598"/>
      <point x="265" y="505" type="curve" smooth="yes"/>
      <point x="265" y="499" type="line" smooth="yes"/>
      <point x="265" y="411"/>
      <point x="229" y="358"/>
    </contour>
  </outline>
</glyph>
<glyph name="nine" format="2">
  <advance width="346"/>
  <unicode hex="0039"/>
  <outline>
    <contour>
      <point x="172" y="-6" type="curve" smooth="yes"/>
      <point x="256" y="-6"/>
      <point x="295" y="46"/>
      <point x="295" y="169" type="curve" smooth="yes"/>
      <point x="295" y="482" type="line" smooth="yes"/>
      <point x="295" y="605"/>
      <point x="256" y="661"/>
      <point x="173" y="661" type="curve" smooth="yes"/>
      <point x="92" y="661"/>
      <point x="51" y="592"/>
      <point x="51" y="459" type="curve" smooth="yes"/>
      <point x="51" y="318"/>
      <point x="84" y="259"/>
      <point x="155" y="259" type="curve" smooth="yes"/>
      <point x="198" y="259"/>
      <point x="236" y="276"/>
      <point x="286" y="318" type="curve"/>
      <point x="286" y="338" type="line"/>
      <point x="229" y="292"/>
      <point x="194" y="275"/>
      <point x="156" y="275" type="curve" smooth="yes"/>
      <point x="95" y="275"/>
      <point x="67" y="328"/>
      <point x="67" y="456" type="curve" smooth="yes"/>
      <point x="67" y="461" type="line" smooth="yes"/>
      <point x="67" y="583"/>
      <point x="102" y="645"/>
      <point x="173" y="645" type="curve" smooth="yes"/>
      <point x="246" y="645"/>
      <point x="279" y="596"/>
      <point x="279" y="481" type="curve" smooth="yes"/>
      <point x="279" y="170" type="line" smooth="yes"/>
      <point x="279" y="56"/>
      <point x="245" y="10"/>
      <point x="172" y="10" type="curve" smooth="yes"/>
      <point x="111" y="10"/>
      <point x="81" y="45"/>
      <point x="81" y="138" type="curve" smooth="yes"/>
      <point x="81" y="140"/>
      <point x="80" y="141"/>
      <point x="78" y="141" type="curve" smooth="yes"/>
      <point x="68" y="141" type="line" smooth="yes"/>
      <point x="66" y="141"/>
      <point x="65" y="140"/>
      <point x="65" y="138" type="curve" smooth="yes"/>
      <point x="65" y="34"/>
      <point x="100" y="-6"/>
    </contour>
  </outline>
</glyph>
<glyph name="colon" format="2">
  <advance width="134"/>
  <unicode hex="003A"/>
  <outline>
    <contour>
      <point x="67" y="405" type="curve" smooth="yes"/>
      <point x="77" y="405"/>
      <point x="85" y="412"/>
      <point x="85" y="423" type="curve" smooth="yes"/>
      <point x="85" y="429" type="line" smooth="yes"/>
      <point x="85" y="439"/>
      <point x="77" y="446"/>
      <point x="67" y="446" type="curve" smooth="yes"/>
      <point x="57" y="446"/>
      <point x="49" y="439"/>
      <point x="49" y="429" type="curve" smooth="yes"/>
      <point x="49" y="423" type="line" smooth="yes"/>
      <point x="49" y="412"/>
      <point x="57" y="405"/>
    </contour>
    <contour>
      <point x="67" y="-7" type="curve" smooth="yes"/>
      <point x="78" y="-7"/>
      <point x="85" y="0"/>
      <point x="85" y="11" type="curve" smooth="yes"/>
      <point x="85" y="18" type="line" smooth="yes"/>
      <point x="85" y="28"/>
      <point x="78" y="34"/>
      <point x="67" y="34" type="curve" smooth="yes"/>
      <point x="56" y="34"/>
      <point x="49" y="28"/>
      <point x="49" y="18" type="curve" smooth="yes"/>
      <point x="49" y="11" type="line" smooth="yes"/>
      <point x="49" y="0"/>
      <point x="56" y="-7"/>
    </contour>
  </outline>
</glyph>
<glyph name="semicolon" format="2">
  <advance width="138"/>
  <unicode hex="003B"/>
  <outline>
    <contour>
      <point x="22" y="-147" type="curve" smooth="yes"/>
      <point x="29" y="-147" type="line" smooth="yes"/>
      <point x="31" y="-147"/>
      <point x="32" y="-147"/>
      <point x="33" y="-143" type="curve" smooth="yes"/>
      <point x="84" y="82" type="line" smooth="yes"/>
      <point x="85" y="86"/>
      <point x="84" y="87"/>
      <point x="81" y="87" type="curve" smooth="yes"/>
      <point x="70" y="87" type="line" smooth="yes"/>
      <point x="68" y="87"/>
      <point x="67" y="87"/>
      <point x="66" y="83" type="curve" smooth="yes"/>
      <point x="20" y="-142" type="line" smooth="yes"/>
      <point x="19" y="-146"/>
      <point x="20" y="-147"/>
    </contour>
    <contour>
      <point x="71" y="407" type="curve" smooth="yes"/>
      <point x="81" y="407"/>
      <point x="88" y="413"/>
      <point x="88" y="424" type="curve" smooth="yes"/>
      <point x="88" y="430" type="line" smooth="yes"/>
      <point x="88" y="440"/>
      <point x="81" y="446"/>
      <point x="71" y="446" type="curve" smooth="yes"/>
      <point x="61" y="446"/>
      <point x="54" y="440"/>
      <point x="54" y="430" type="curve" smooth="yes"/>
      <point x="54" y="424" type="line" smooth="yes"/>
      <point x="54" y="413"/>
      <point x="61" y="407"/>
    </contour>
  </outline>
</glyph>
<glyph name="less" format="2">
  <advance width="420"/>
  <unicode hex="003C"/>
  <outline>
    <contour>
      <point x="323" y="165" type="line" smooth="yes"/>
      <point x="325" y="164"/>
      <point x="326" y="165"/>
      <point x="326" y="167" type="curve" smooth="yes"/>
      <point x="326" y="180" type="line" smooth="yes"/>
      <point x="326" y="183"/>
      <point x="326" y="184"/>
      <point x="324" y="185" type="curve" smooth="yes"/>
      <point x="114" y="303" type="line"/>
      <point x="324" y="421" type="line" smooth="yes"/>
      <point x="326" y="422"/>
      <point x="326" y="423"/>
      <point x="326" y="425" type="curve" smooth="yes"/>
      <point x="326" y="439" type="line" smooth="yes"/>
      <point x="326" y="441"/>
      <point x="325" y="442"/>
      <point x="323" y="441" type="curve" smooth="yes"/>
      <point x="97" y="311" type="line" smooth="yes"/>
      <point x="96" y="310"/>
      <point x="95" y="309"/>
      <point x="95" y="308" type="curve" smooth="yes"/>
      <point x="95" y="298" type="line" smooth="yes"/>
      <point x="95" y="297"/>
      <point x="96" y="296"/>
      <point x="97" y="295" type="curve" smooth="yes"/>
    </contour>
  </outline>
</glyph>
<glyph name="equal" format="2">
  <advance width="420"/>
  <unicode hex="003D"/>
  <outline>
    <contour>
      <point x="99" y="355" type="curve" smooth="yes"/>
      <point x="322" y="355" type="line" smooth="yes"/>
      <point x="324" y="355"/>
      <point x="325" y="356"/>
      <point x="325" y="358" type="curve" smooth="yes"/>
      <point x="325" y="368" type="line" smooth="yes"/>
      <point x="325" y="370"/>
      <point x="324" y="371"/>
      <point x="322" y="371" type="curve" smooth="yes"/>
      <point x="99" y="371" type="line" smooth="yes"/>
      <point x="97" y="371"/>
      <point x="96" y="370"/>
      <point x="96" y="368" type="curve" smooth="yes"/>
      <point x="96" y="358" type="line" smooth="yes"/>
      <point x="96" y="356"/>
      <point x="97" y="355"/>
    </contour>
    <contour>
      <point x="99" y="234" type="curve" smooth="yes"/>
      <point x="322" y="234" type="line" smooth="yes"/>
      <point x="324" y="234"/>
      <point x="325" y="235"/>
      <point x="325" y="237" type="curve" smooth="yes"/>
      <point x="325" y="247" type="line" smooth="yes"/>
      <point x="325" y="249"/>
      <point x="324" y="250"/>
      <point x="322" y="250" type="curve" smooth="yes"/>
      <point x="99" y="250" type="line" smooth="yes"/>
      <point x="97" y="250"/>
      <point x="96" y="249"/>
      <point x="96" y="247" type="curve" smooth="yes"/>
      <point x="96" y="237" type="line" smooth="yes"/>
      <point x="96" y="235"/>
      <point x="97" y="234"/>
    </contour>
  </outline>
</glyph>
<glyph name="greater" format="2">
  <advance width="420"/>
  <unicode hex="003E"/>
  <outline>
    <contour>
      <point x="98" y="165" type="curve" smooth="yes"/>
      <point x="324" y="295" type="line" smooth="yes"/>
      <point x="325" y="296"/>
      <point x="326" y="297"/>
      <point x="326" y="298" type="curve" smooth="yes"/>
      <point x="326" y="308" type="line" smooth="yes"/>
      <point x="326" y="309"/>
      <point x="325" y="310"/>
      <point x="324" y="311" type="curve" smooth="yes"/>
      <point x="98" y="441" type="line" smooth="yes"/>
      <point x="96" y="442"/>
      <point x="95" y="441"/>
      <point x="95" y="439" type="curve" smooth="yes"/>
      <point x="95" y="425" type="line" smooth="yes"/>
      <point x="95" y="423"/>
      <point x="95" y="422"/>
      <point x="97" y="421" type="curve" smooth="yes"/>
      <point x="307" y="303" type="line"/>
      <point x="97" y="185" type="line" smooth="yes"/>
      <point x="95" y="184"/>
      <point x="95" y="183"/>
      <point x="95" y="180" type="curve" smooth="yes"/>
      <point x="95" y="167" type="line" smooth="yes"/>
      <point x="95" y="165"/>
      <point x="96" y="164"/>
    </contour>
  </outline>
</glyph>
<glyph name="question" format="2">
  <advance width="274"/>
  <unicode hex="003F"/>
  <guideline x="204" y="130" angle="90"/>
  <guideline x="219" y="130" angle="90"/>
  <outline>
    <contour>
      <point x="122" y="160" type="curve" smooth="yes"/>
      <point x="131" y="160" type="line" smooth="yes"/>
      <point x="133" y="160"/>
      <point x="134" y="161"/>
      <point x="134" y="163" type="curve" smooth="yes"/>
      <point x="134" y="220" type="line" smooth="yes"/>
      <point x="134" y="354"/>
      <point x="240" y="401"/>
      <point x="240" y="542" type="curve" smooth="yes"/>
      <point x="240" y="632"/>
      <point x="207" y="661"/>
      <point x="145" y="661" type="curve" smooth="yes"/>
      <point x="69" y="661"/>
      <point x="33" y="607"/>
      <point x="39" y="496" type="curve" smooth="yes"/>
      <point x="39" y="494"/>
      <point x="40" y="493"/>
      <point x="42" y="493" type="curve" smooth="yes"/>
      <point x="51" y="493" type="line" smooth="yes"/>
      <point x="53" y="493"/>
      <point x="54" y="494"/>
      <point x="54" y="496" type="curve" smooth="yes"/>
      <point x="49" y="591"/>
      <point x="73" y="645"/>
      <point x="144" y="645" type="curve" smooth="yes"/>
      <point x="200" y="645"/>
      <point x="225" y="620"/>
      <point x="225" y="543" type="curve" smooth="yes"/>
      <point x="225" y="404"/>
      <point x="119" y="363"/>
      <point x="119" y="223" type="curve" smooth="yes"/>
      <point x="119" y="163" type="line" smooth="yes"/>
      <point x="119" y="161"/>
      <point x="120" y="160"/>
    </contour>
    <contour>
      <point x="127" y="-7" type="curve" smooth="yes"/>
      <point x="138" y="-7"/>
      <point x="145" y="0"/>
      <point x="145" y="11" type="curve" smooth="yes"/>
      <point x="145" y="18" type="line" smooth="yes"/>
      <point x="145" y="28"/>
      <point x="138" y="34"/>
      <point x="127" y="34" type="curve" smooth="yes"/>
      <point x="116" y="34"/>
      <point x="109" y="28"/>
      <point x="109" y="18" type="curve" smooth="yes"/>
      <point x="109" y="11" type="line" smooth="yes"/>
      <point x="109" y="0"/>
      <point x="116" y="-7"/>
    </contour>
  </outline>
</glyph>
<glyph name="at" format="2">
  <advance width="575"/>
  <unicode hex="0040"/>
  <outline>
    <contour>
      <point x="287" y="-185" type="curve" smooth="yes"/>
      <point x="356" y="-185" type="line" smooth="yes"/>
      <point x="358" y="-185"/>
      <point x="359" y="-184"/>
      <point x="359" y="-182" type="curve" smooth="yes"/>
      <point x="359" y="-172" type="line" smooth="yes"/>
      <point x="359" y="-170"/>
      <point x="358" y="-169"/>
      <point x="356" y="-169" type="curve" smooth="yes"/>
      <point x="287" y="-169" type="line" smooth="yes"/>
      <point x="132" y="-169"/>
      <point x="63" y="-36"/>
      <point x="63" y="156" type="curve" smooth="yes"/>
      <point x="63" y="348" type="line" smooth="yes"/>
      <point x="63" y="540"/>
      <point x="132" y="673"/>
      <point x="287" y="673" type="curve" smooth="yes"/>
      <point x="445" y="673"/>
      <point x="512" y="540"/>
      <point x="512" y="348" type="curve" smooth="yes"/>
      <point x="512" y="258" type="line" smooth="yes"/>
      <point x="512" y="128"/>
      <point x="483" y="54"/>
      <point x="425" y="54" type="curve" smooth="yes"/>
      <point x="380" y="54"/>
      <point x="355" y="95"/>
      <point x="362" y="161" type="curve" smooth="yes"/>
      <point x="394" y="448" type="line" smooth="yes"/>
      <point x="394" y="450"/>
      <point x="393" y="451"/>
      <point x="391" y="451" type="curve" smooth="yes"/>
      <point x="359" y="451"/>
      <point x="330" y="470"/>
      <point x="288" y="470" type="curve" smooth="yes"/>
      <point x="232" y="470"/>
      <point x="204" y="427"/>
      <point x="194" y="339" type="curve" smooth="yes"/>
      <point x="175" y="175" type="line" smooth="yes"/>
      <point x="165" y="91"/>
      <point x="193" y="38"/>
      <point x="244" y="38" type="curve" smooth="yes"/>
      <point x="288" y="38"/>
      <point x="327" y="69"/>
      <point x="359" y="116" type="curve"/>
      <point x="353" y="133" type="line"/>
      <point x="317" y="84"/>
      <point x="286" y="54"/>
      <point x="246" y="54" type="curve" smooth="yes"/>
      <point x="204" y="54"/>
      <point x="183" y="101"/>
      <point x="191" y="173" type="curve" smooth="yes"/>
      <point x="210" y="336" type="line" smooth="yes"/>
      <point x="219" y="414"/>
      <point x="242" y="454"/>
      <point x="288" y="454" type="curve" smooth="yes"/>
      <point x="323" y="454"/>
      <point x="354" y="439"/>
      <point x="377" y="436" type="curve"/>
      <point x="346" y="160" type="line" smooth="yes"/>
      <point x="337" y="81"/>
      <point x="372" y="38"/>
      <point x="425" y="38" type="curve" smooth="yes"/>
      <point x="492" y="38"/>
      <point x="528" y="114"/>
      <point x="528" y="258" type="curve" smooth="yes"/>
      <point x="528" y="348" type="line" smooth="yes"/>
      <point x="528" y="545"/>
      <point x="458" y="689"/>
      <point x="287" y="689" type="curve" smooth="yes"/>
      <point x="119" y="689"/>
      <point x="47" y="545"/>
      <point x="47" y="348" type="curve" smooth="yes"/>
      <point x="47" y="156" type="line" smooth="yes"/>
      <point x="47" y="-41"/>
      <point x="119" y="-185"/>
    </contour>
  </outline>
</glyph>
<glyph name="B" format="2">
  <advance width="354"/>
  <unicode hex="0042"/>
  <anchor x="177" y="0" name="bottom"/>
  <anchor x="177" y="655" name="top"/>
  <outline>
    <contour>
      <point x="69" y="0" type="curve" smooth="yes"/>
      <point x="164" y="0" type="line" smooth="yes"/>
      <point x="265" y="0"/>
      <point x="312" y="58"/>
      <point x="312" y="182" type="curve" smooth="yes"/>
      <point x="312" y="266"/>
      <point x="277" y="323"/>
      <point x="216" y="339" type="curve"/>
      <point x="216" y="340" type="line"/>
      <point x="264" y="358"/>
      <point x="294" y="418"/>
      <point x="294" y="496" type="curve" smooth="yes"/>
      <point x="294" y="604"/>
      <point x="251" y="655"/>
      <point x="159" y="655" type="curve" smooth="yes"/>
      <point x="69" y="655" type="line" smooth="yes"/>
      <point x="67" y="655"/>
      <point x="66" y="654"/>
      <point x="66" y="652" type="curve" smooth="yes"/>
      <point x="66" y="3" type="line" smooth="yes"/>
      <point x="66" y="1"/>
      <point x="67" y="0"/>
    </contour>
    <contour>
      <point x="82" y="16" type="line"/>
      <point x="82" y="330" type="line"/>
      <point x="173" y="330" type="line" smooth="yes"/>
      <point x="251" y="330"/>
      <point x="296" y="276"/>
      <point x="296" y="182" type="curve" smooth="yes"/>
      <point x="296" y="65"/>
      <point x="256" y="16"/>
      <point x="161" y="16" type="curve" smooth="yes"/>
    </contour>
    <contour>
      <point x="82" y="346" type="line"/>
      <point x="82" y="639" type="line"/>
      <point x="159" y="639" type="line" smooth="yes"/>
      <point x="240" y="639"/>
      <point x="278" y="594"/>
      <point x="278" y="495" type="curve" smooth="yes"/>
      <point x="278" y="405"/>
      <point x="236" y="346"/>
      <point x="173" y="346" type="curve" smooth="yes"/>
    </contour>
  </outline>
</glyph>
<glyph name="C" format="2">
  <advance width="389"/>
  <unicode hex="0043"/>
  <anchor x="196" y="0" name="bottom"/>
  <anchor x="195" y="655" name="top"/>
  <outline>
    <contour>
      <point x="196" y="-6" type="curve" smooth="yes"/>
      <point x="294" y="-6"/>
      <point x="340" y="63"/>
      <point x="335" y="196" type="curve" smooth="yes"/>
      <point x="335" y="198"/>
      <point x="334" y="199"/>
      <point x="332" y="199" type="curve" smooth="yes"/>
      <point x="322" y="199" type="line" smooth="yes"/>
      <point x="320" y="199"/>
      <point x="319" y="198"/>
      <point x="319" y="196" type="curve" smooth="yes"/>
      <point x="324" y="71"/>
      <point x="285" y="10"/>
      <point x="196" y="10" type="curve" smooth="yes"/>
      <point x="115" y="10"/>
      <point x="71" y="68"/>
      <point x="71" y="180" type="curve" smooth="yes"/>
      <point x="71" y="475" type="line" smooth="yes"/>
      <point x="71" y="588"/>
      <point x="114" y="645"/>
      <point x="196" y="645" type="curve" smooth="yes"/>
      <point x="286" y="645"/>
      <point x="323" y="584"/>
      <point x="318" y="459" type="curve" smooth="yes"/>
      <point x="318" y="457"/>
      <point x="319" y="456"/>
      <point x="321" y="456" type="curve" smooth="yes"/>
      <point x="331" y="456" type="line" smooth="yes"/>
      <point x="333" y="456"/>
      <point x="334" y="457"/>
      <point x="334" y="459" type="curve" smooth="yes"/>
      <point x="339" y="592"/>
      <point x="296" y="661"/>
      <point x="196" y="661" type="curve" smooth="yes"/>
      <point x="104" y="661"/>
      <point x="55" y="598"/>
      <point x="55" y="476" type="curve" smooth="yes"/>
      <point x="55" y="179" type="line" smooth="yes"/>
      <point x="55" y="58"/>
      <point x="105" y="-6"/>
    </contour>
  </outline>
</glyph>
<glyph name="D" format="2">
  <advance width="391"/>
  <unicode hex="0044"/>
  <anchor x="165" y="0" name="bottom"/>
  <anchor x="194" y="328" name="center"/>
  <anchor x="165" y="655" name="top"/>
  <outline>
    <contour>
      <point x="69" y="0" type="curve" smooth="yes"/>
      <point x="157" y="0" type="line" smooth="yes"/>
      <point x="289" y="0"/>
      <point x="340" y="77"/>
      <point x="340" y="270" type="curve" smooth="yes"/>
      <point x="340" y="383" type="line" smooth="yes"/>
      <point x="340" y="579"/>
      <point x="281" y="655"/>
      <point x="153" y="655" type="curve" smooth="yes"/>
      <point x="68" y="655" type="line" smooth="yes"/>
      <point x="67" y="655"/>
      <point x="66" y="654"/>
      <point x="66" y="652" type="curve" smooth="yes"/>
      <point x="66" y="3" type="line" smooth="yes"/>
      <point x="66" y="1"/>
      <point x="67" y="0"/>
    </contour>
    <contour>
      <point x="82" y="16" type="line"/>
      <point x="82" y="639" type="line"/>
      <point x="154" y="639" type="line" smooth="yes"/>
      <point x="271" y="639"/>
      <point x="324" y="565"/>
      <point x="324" y="382" type="curve" smooth="yes"/>
      <point x="324" y="271" type="line" smooth="yes"/>
      <point x="324" y="89"/>
      <point x="279" y="16"/>
      <point x="157" y="16" type="curve" smooth="yes"/>
    </contour>
  </outline>
</glyph>
<glyph name="E" format="2">
  <advance width="326"/>
  <unicode hex="0045"/>
  <guideline x="453" y="599" angle="90"/>
  <anchor x="168" y="0" name="bottom"/>
  <anchor x="265" y="10" name="ogonek"/>
  <anchor x="173" y="655" name="top"/>
  <anchor x="20" y="655" name="topleft"/>
  <outline>
    <contour>
      <point x="69" y="0" type="curve" smooth="yes"/>
      <point x="276" y="0" type="line" smooth="yes"/>
      <point x="278" y="0"/>
      <point x="279" y="1"/>
      <point x="279" y="3" type="curve" smooth="yes"/>
      <point x="279" y="13" type="line" smooth="yes"/>
      <point x="279" y="15"/>
      <point x="278" y="16"/>
      <point x="276" y="16" type="curve" smooth="yes"/>
      <point x="82" y="16" type="line"/>
      <point x="82" y="328" type="line"/>
      <point x="263" y="328" type="line" smooth="yes"/>
      <point x="265" y="328"/>
      <point x="266" y="329"/>
      <point x="266" y="331" type="curve" smooth="yes"/>
      <point x="266" y="341" type="line" smooth="yes"/>
      <point x="266" y="343"/>
      <point x="265" y="344"/>
      <point x="263" y="344" type="curve" smooth="yes"/>
      <point x="82" y="344" type="line"/>
      <point x="82" y="639" type="line"/>
      <point x="276" y="639" type="line" smooth="yes"/>
      <point x="278" y="639"/>
      <point x="279" y="640"/>
      <point x="279" y="642" type="curve" smooth="yes"/>
      <point x="279" y="652" type="line" smooth="yes"/>
      <point x="279" y="654"/>
      <point x="278" y="655"/>
      <point x="276" y="655" type="curve" smooth="yes"/>
      <point x="69" y="655" type="line" smooth="yes"/>
      <point x="67" y="655"/>
      <point x="66" y="654"/>
      <point x="66" y="652" type="curve" smooth="yes"/>
      <point x="66" y="3" type="line" smooth="yes"/>
      <point x="66" y="1"/>
      <point x="67" y="0"/>
    </contour>
  </outline>
</glyph>
<glyph name="F" format="2">
  <advance width="296"/>
  <unicode hex="0046"/>
  <anchor x="158" y="0" name="bottom"/>
  <anchor x="158" y="655" name="top"/>
  <outline>
    <contour>
      <point x="69" y="0" type="curve" smooth="yes"/>
      <point x="79" y="0" type="line" smooth="yes"/>
      <point x="81" y="0"/>
      <point x="82" y="1"/>
      <point x="82" y="3" type="curve" smooth="yes"/>
      <point x="82" y="320" type="line"/>
      <point x="256" y="320" type="line" smooth="yes"/>
      <point x="258" y="320"/>
      <point x="259" y="321"/>
      <point x="259" y="323" type="curve" smooth="yes"/>
      <point x="259" y="333" type="line" smooth="yes"/>
      <point x="259" y="335"/>
      <point x="258" y="336"/>
      <point x="256" y="336" type="curve" smooth="yes"/>
      <point x="82" y="336" type="line"/>
      <point x="82" y="639" type="line"/>
      <point x="276" y="639" type="line" smooth="yes"/>
      <point x="278" y="639"/>
      <point x="279" y="640"/>
      <point x="279" y="642" type="curve" smooth="yes"/>
      <point x="279" y="652" type="line" smooth="yes"/>
      <point x="279" y="654"/>
      <point x="278" y="655"/>
      <point x="276" y="655" type="curve" smooth="yes"/>
      <point x="69" y="655" type="line" smooth="yes"/>
      <point x="67" y="655"/>
      <point x="66" y="654"/>
      <point x="66" y="652" type="curve" smooth="yes"/>
      <point x="66" y="3" type="line" smooth="yes"/>
      <point x="66" y="1"/>
      <point x="67" y="0"/>
    </contour>
  </outline>
</glyph>
<glyph name="G" format="2">
  <advance width="399"/>
  <unicode hex="0047"/>
  <anchor x="200" y="0" name="bottom"/>
  <anchor x="195" y="655" name="top"/>
  <anchor x="48" y="655" name="topleft"/>
  <outline>
    <contour>
      <point x="195" y="-6" type="curve" smooth="yes"/>
      <point x="275" y="-6"/>
      <point x="305" y="50"/>
      <point x="319" y="123" type="curve"/>
      <point x="320" y="123" type="line"/>
      <point x="320" y="79"/>
      <point x="321" y="40"/>
      <point x="325" y="3" type="curve" smooth="yes"/>
      <point x="325" y="1"/>
      <point x="326" y="0"/>
      <point x="328" y="0" type="curve" smooth="yes"/>
      <point x="337" y="0" type="line" smooth="yes"/>
      <point x="339" y="0"/>
      <point x="339" y="1"/>
      <point x="339" y="3" type="curve" smooth="yes"/>
      <point x="335" y="45"/>
      <point x="334" y="88"/>
      <point x="334" y="140" type="curve" smooth="yes"/>
      <point x="334" y="314" type="line" smooth="yes"/>
      <point x="334" y="316"/>
      <point x="333" y="317"/>
      <point x="331" y="317" type="curve" smooth="yes"/>
      <point x="209" y="317" type="line" smooth="yes"/>
      <point x="207" y="317"/>
      <point x="206" y="316"/>
      <point x="206" y="314" type="curve" smooth="yes"/>
      <point x="206" y="304" type="line" smooth="yes"/>
      <point x="206" y="302"/>
      <point x="207" y="301"/>
      <point x="209" y="301" type="curve" smooth="yes"/>
      <point x="318" y="301" type="line"/>
      <point x="318" y="249" type="line" smooth="yes"/>
      <point x="318" y="83"/>
      <point x="278" y="10"/>
      <point x="195" y="10" type="curve" smooth="yes"/>
      <point x="114" y="10"/>
      <point x="71" y="65"/>
      <point x="71" y="180" type="curve" smooth="yes"/>
      <point x="71" y="475" type="line" smooth="yes"/>
      <point x="71" y="591"/>
      <point x="115" y="645"/>
      <point x="196" y="645" type="curve" smooth="yes"/>
      <point x="274" y="645"/>
      <point x="325" y="584"/>
      <point x="318" y="469" type="curve" smooth="yes"/>
      <point x="318" y="467"/>
      <point x="319" y="466"/>
      <point x="321" y="466" type="curve" smooth="yes"/>
      <point x="331" y="466" type="line" smooth="yes"/>
      <point x="333" y="466"/>
      <point x="334" y="467"/>
      <point x="334" y="469" type="curve" smooth="yes"/>
      <point x="342" y="593"/>
      <point x="286" y="661"/>
      <point x="196" y="661" type="curve" smooth="yes"/>
      <point x="105" y="661"/>
      <point x="55" y="601"/>
      <point x="55" y="476" type="curve" smooth="yes"/>
      <point x="55" y="179" type="line" smooth="yes"/>
      <point x="55" y="55"/>
      <point x="104" y="-6"/>
    </contour>
  </outline>
</glyph>
<glyph name="H" format="2">
  <advance width="404"/>
  <unicode hex="0048"/>
  <guideline x="559" y="378" angle="90"/>
  <anchor x="201" y="0" name="bottom"/>
  <anchor x="204" y="328" name="center"/>
  <anchor x="201" y="655" name="top"/>
  <anchor x="40" y="655" name="topleft"/>
  <outline>
    <contour>
      <point x="69" y="0" type="curve" smooth="yes"/>
      <point x="79" y="0" type="line" smooth="yes"/>
      <point x="81" y="0"/>
      <point x="82" y="1"/>
      <point x="82" y="3" type="curve" smooth="yes"/>
      <point x="82" y="331" type="line"/>
      <point x="322" y="331" type="line"/>
      <point x="322" y="3" type="line" smooth="yes"/>
      <point x="322" y="1"/>
      <point x="323" y="0"/>
      <point x="325" y="0" type="curve" smooth="yes"/>
      <point x="335" y="0" type="line" smooth="yes"/>
      <point x="337" y="0"/>
      <point x="338" y="1"/>
      <point x="338" y="3" type="curve" smooth="yes"/>
      <point x="338" y="652" type="line" smooth="yes"/>
      <point x="338" y="654"/>
      <point x="337" y="655"/>
      <point x="335" y="655" type="curve" smooth="yes"/>
      <point x="325" y="655" type="line" smooth="yes"/>
      <point x="323" y="655"/>
      <point x="322" y="654"/>
      <point x="322" y="652" type="curve" smooth="yes"/>
      <point x="322" y="347" type="line"/>
      <point x="82" y="347" type="line"/>
      <point x="82" y="652" type="line" smooth="yes"/>
      <point x="82" y="654"/>
      <point x="81" y="655"/>
      <point x="79" y="655" type="curve" smooth="yes"/>
      <point x="69" y="655" type="line" smooth="yes"/>
      <point x="67" y="655"/>
      <point x="66" y="654"/>
      <point x="66" y="652" type="curve" smooth="yes"/>
      <point x="66" y="3" type="line" smooth="yes"/>
      <point x="66" y="1"/>
      <point x="67" y="0"/>
    </contour>
  </outline>
</glyph>
<glyph name="I" format="2">
  <advance width="148"/>
  <unicode hex="0049"/>
  <anchor x="74" y="0" name="bottom"/>
  <anchor x="86" y="10" name="ogonek"/>
  <anchor x="74" y="655" name="top"/>
  <anchor x="30" y="655" name="topleft"/>
  <outline>
    <contour>
      <point x="69" y="0" type="curve" smooth="yes"/>
      <point x="79" y="0" type="line" smooth="yes"/>
      <point x="81" y="0"/>
      <point x="82" y="1"/>
      <point x="82" y="3" type="curve" smooth="yes"/>
      <point x="82" y="652" type="line" smooth="yes"/>
      <point x="82" y="654"/>
      <point x="81" y="655"/>
      <point x="79" y="655" type="curve" smooth="yes"/>
      <point x="69" y="655" type="line" smooth="yes"/>
      <point x="67" y="655"/>
      <point x="66" y="654"/>
      <point x="66" y="652" type="curve" smooth="yes"/>
      <point x="66" y="3" type="line" smooth="yes"/>
      <point x="66" y="1"/>
      <point x="67" y="0"/>
    </contour>
  </outline>
</glyph>
<glyph name="J" format="2">
  <advance width="148"/>
  <unicode hex="004A"/>
  <anchor x="74" y="0" name="bottom"/>
  <anchor x="74" y="655" name="top"/>
  <outline>
    <contour>
      <point x="12" y="-139" type="curve" smooth="yes"/>
      <point x="62" y="-116"/>
      <point x="82" y="-74"/>
      <point x="82" y="64" type="curve" smooth="yes"/>
      <point x="82" y="652" type="line" smooth="yes"/>
      <point x="82" y="654"/>
      <point x="81" y="655"/>
      <point x="79" y="655" type="curve" smooth="yes"/>
      <point x="69" y="655" type="line" smooth="yes"/>
      <point x="67" y="655"/>
      <point x="66" y="654"/>
      <point x="66" y="652" type="curve" smooth="yes"/>
      <point x="66" y="64" type="line" smooth="yes"/>
      <point x="66" y="-66"/>
      <point x="48" y="-104"/>
      <point x="6" y="-124" type="curve" smooth="yes"/>
      <point x="4" y="-125"/>
      <point x="4" y="-126"/>
      <point x="5" y="-128" type="curve" smooth="yes"/>
      <point x="8" y="-138" type="line" smooth="yes"/>
      <point x="9" y="-140"/>
      <point x="10" y="-140"/>
    </contour>
  </outline>
</glyph>
<glyph name="K" format="2">
  <advance width="339"/>
  <unicode hex="004B"/>
  <anchor x="183" y="0" name="bottom"/>
  <anchor x="176" y="655" name="top"/>
  <outline>
    <contour>
      <point x="69" y="0" type="curve" smooth="yes"/>
      <point x="79" y="0" type="line" smooth="yes"/>
      <point x="81" y="0"/>
      <point x="82" y="1"/>
      <point x="82" y="3" type="curve" smooth="yes"/>
      <point x="82" y="208" type="line"/>
      <point x="164" y="363" type="line"/>
      <point x="315" y="2" type="line" smooth="yes"/>
      <point x="316" y="0"/>
      <point x="317" y="0"/>
      <point x="319" y="0" type="curve" smooth="yes"/>
      <point x="332" y="0" type="line" smooth="yes"/>
      <point x="334" y="0"/>
      <point x="334" y="2"/>
      <point x="333" y="4" type="curve" smooth="yes"/>
      <point x="174" y="381" type="line"/>
      <point x="318" y="651" type="line" smooth="yes"/>
      <point x="319" y="653"/>
      <point x="319" y="655"/>
      <point x="317" y="655" type="curve" smooth="yes"/>
      <point x="304" y="655" type="line" smooth="yes"/>
      <point x="302" y="655"/>
      <point x="301" y="655"/>
      <point x="300" y="653" type="curve" smooth="yes"/>
      <point x="146" y="362" type="line" smooth="yes"/>
      <point x="124" y="321"/>
      <point x="104" y="280"/>
      <point x="82" y="239" type="curve"/>
      <point x="82" y="240" type="line"/>
      <point x="82" y="281"/>
      <point x="82" y="322"/>
      <point x="82" y="363" type="curve" smooth="yes"/>
      <point x="82" y="652" type="line" smooth="yes"/>
      <point x="82" y="654"/>
      <point x="81" y="655"/>
      <point x="79" y="655" type="curve" smooth="yes"/>
      <point x="69" y="655" type="line" smooth="yes"/>
      <point x="67" y="655"/>
      <point x="66" y="654"/>
      <point x="66" y="652" type="curve" smooth="yes"/>
      <point x="66" y="3" type="line" smooth="yes"/>
      <point x="66" y="1"/>
      <point x="67" y="0"/>
    </contour>
  </outline>
</glyph>
<glyph name="L" format="2">
  <advance width="291"/>
  <unicode hex="004C"/>
  <anchor x="175" y="0" name="bottom"/>
  <anchor x="159" y="328" name="center"/>
  <anchor x="74" y="655" name="top"/>
  <anchor x="295" y="655" name="topright"/>
  <outline>
    <contour>
      <point x="69" y="0" type="curve" smooth="yes"/>
      <point x="273" y="0" type="line" smooth="yes"/>
      <point x="275" y="0"/>
      <point x="276" y="1"/>
      <point x="276" y="3" type="curve" smooth="yes"/>
      <point x="276" y="13" type="line" smooth="yes"/>
      <point x="276" y="15"/>
      <point x="275" y="16"/>
      <point x="273" y="16" type="curve" smooth="yes"/>
      <point x="82" y="16" type="line"/>
      <point x="82" y="652" type="line" smooth="yes"/>
      <point x="82" y="654"/>
      <point x="81" y="655"/>
      <point x="79" y="655" type="curve" smooth="yes"/>
      <point x="69" y="655" type="line" smooth="yes"/>
      <point x="67" y="655"/>
      <point x="66" y="654"/>
      <point x="66" y="652" type="curve" smooth="yes"/>
      <point x="66" y="3" type="line" smooth="yes"/>
      <point x="66" y="1"/>
      <point x="67" y="0"/>
    </contour>
  </outline>
</glyph>
<glyph name="M" format="2">
  <advance width="478"/>
  <unicode hex="004D"/>
  <anchor x="235" y="0" name="bottom"/>
  <anchor x="235" y="655" name="top"/>
  <outline>
    <contour>
      <point x="62" y="0" type="curve" smooth="yes"/>
      <point x="72" y="0" type="line" smooth="yes"/>
      <point x="74" y="0"/>
      <point x="75" y="1"/>
      <point x="75" y="3" type="curve" smooth="yes"/>
      <point x="82" y="515" type="line" smooth="yes"/>
      <point x="83" y="553"/>
      <point x="82" y="593"/>
      <point x="83" y="631" type="curve"/>
      <point x="84" y="631" type="line"/>
      <point x="95" y="595"/>
      <point x="107" y="556"/>
      <point x="118" y="520" type="curve" smooth="yes"/>
      <point x="235" y="131" type="line" smooth="yes"/>
      <point x="236" y="128"/>
      <point x="236" y="128"/>
      <point x="238" y="128" type="curve" smooth="yes"/>
      <point x="240" y="128" type="line" smooth="yes"/>
      <point x="242" y="128"/>
      <point x="242" y="128"/>
      <point x="243" y="131" type="curve" smooth="yes"/>
      <point x="359" y="514" type="line" smooth="yes"/>
      <point x="370" y="552"/>
      <point x="383" y="593"/>
      <point x="394" y="631" type="curve"/>
      <point x="395" y="631" type="line"/>
      <point x="396" y="591"/>
      <point x="395" y="548"/>
      <point x="396" y="508" type="curve" smooth="yes"/>
      <point x="403" y="3" type="line" smooth="yes"/>
      <point x="403" y="1"/>
      <point x="404" y="0"/>
      <point x="406" y="0" type="curve" smooth="yes"/>
      <point x="416" y="0" type="line" smooth="yes"/>
      <point x="418" y="0"/>
      <point x="419" y="1"/>
      <point x="419" y="3" type="curve" smooth="yes"/>
      <point x="409" y="652" type="line" smooth="yes"/>
      <point x="409" y="654"/>
      <point x="408" y="655"/>
      <point x="406" y="655" type="curve" smooth="yes"/>
      <point x="389" y="655" type="line" smooth="yes"/>
      <point x="387" y="655"/>
      <point x="386" y="655"/>
      <point x="385" y="652" type="curve" smooth="yes"/>
      <point x="239" y="171" type="line"/>
      <point x="94" y="653" type="line" smooth="yes"/>
      <point x="93" y="655"/>
      <point x="92" y="655"/>
      <point x="91" y="655" type="curve" smooth="yes"/>
      <point x="72" y="655" type="line" smooth="yes"/>
      <point x="70" y="655"/>
      <point x="69" y="654"/>
      <point x="69" y="652" type="curve" smooth="yes"/>
      <point x="59" y="3" type="line" smooth="yes"/>
      <point x="59" y="1"/>
      <point x="60" y="0"/>
    </contour>
  </outline>
</glyph>
<glyph name="N" format="2">
  <advance width="408"/>
  <unicode hex="004E"/>
  <guideline x="282" y="270" angle="0"/>
  <guideline x="190" y="372" angle="0"/>
  <anchor x="204" y="0" name="bottom"/>
  <anchor x="204" y="655" name="top"/>
  <outline>
    <contour>
      <point x="69" y="0" type="curve" smooth="yes"/>
      <point x="79" y="0" type="line" smooth="yes"/>
      <point x="81" y="0"/>
      <point x="82" y="1"/>
      <point x="82" y="3" type="curve" smooth="yes"/>
      <point x="82" y="373" type="line" smooth="yes"/>
      <point x="82" y="460"/>
      <point x="82" y="547"/>
      <point x="82" y="634" type="curve"/>
      <point x="83" y="634" type="line"/>
      <point x="115" y="547"/>
      <point x="147" y="459"/>
      <point x="179" y="372" type="curve" smooth="yes"/>
      <point x="315" y="2" type="line" smooth="yes"/>
      <point x="316" y="0"/>
      <point x="317" y="0"/>
      <point x="319" y="0" type="curve" smooth="yes"/>
      <point x="339" y="0" type="line" smooth="yes"/>
      <point x="341" y="0"/>
      <point x="342" y="1"/>
      <point x="342" y="3" type="curve" smooth="yes"/>
      <point x="342" y="652" type="line" smooth="yes"/>
      <point x="342" y="654"/>
      <point x="341" y="655"/>
      <point x="339" y="655" type="curve" smooth="yes"/>
      <point x="329" y="655" type="line" smooth="yes"/>
      <point x="327" y="655"/>
      <point x="326" y="654"/>
      <point x="326" y="652" type="curve" smooth="yes"/>
      <point x="326" y="267" type="line" smooth="yes"/>
      <point x="326" y="185"/>
      <point x="326" y="103"/>
      <point x="326" y="21" type="curve"/>
      <point x="325" y="21" type="line"/>
      <point x="295" y="104"/>
      <point x="265" y="186"/>
      <point x="234" y="269" type="curve" smooth="yes"/>
      <point x="93" y="653" type="line" smooth="yes"/>
      <point x="92" y="655"/>
      <point x="91" y="655"/>
      <point x="89" y="655" type="curve" smooth="yes"/>
      <point x="69" y="655" type="line" smooth="yes"/>
      <point x="67" y="655"/>
      <point x="66" y="654"/>
      <point x="66" y="652" type="curve" smooth="yes"/>
      <point x="66" y="3" type="line" smooth="yes"/>
      <point x="66" y="1"/>
      <point x="67" y="0"/>
    </contour>
  </outline>
</glyph>
<glyph name="O" format="2">
  <advance width="392"/>
  <unicode hex="004F"/>
  <guideline x="554" y="390" angle="90"/>
  <guideline x="98" y="328" angle="270"/>
  <anchor x="196" y="0" name="bottom"/>
  <anchor x="196" y="328" name="center"/>
  <anchor x="353" y="10" name="ogonek"/>
  <anchor x="196" y="655" name="top"/>
  <anchor x="20" y="655" name="topleft"/>
  <anchor x="372" y="655" name="topright"/>
  <outline>
    <contour>
      <point x="196" y="-6" type="curve" smooth="yes"/>
      <point x="287" y="-6"/>
      <point x="337" y="53"/>
      <point x="337" y="171" type="curve" smooth="yes"/>
      <point x="337" y="484" type="line" smooth="yes"/>
      <point x="337" y="602"/>
      <point x="287" y="661"/>
      <point x="196" y="661" type="curve" smooth="yes"/>
      <point x="105" y="661"/>
      <point x="55" y="602"/>
      <point x="55" y="484" type="curve" smooth="yes"/>
      <point x="55" y="171" type="line" smooth="yes"/>
      <point x="55" y="53"/>
      <point x="105" y="-6"/>
    </contour>
    <contour>
      <point x="196" y="10" type="curve" smooth="yes"/>
      <point x="115" y="10"/>
      <point x="71" y="63"/>
      <point x="71" y="172" type="curve" smooth="yes"/>
      <point x="71" y="483" type="line" smooth="yes"/>
      <point x="71" y="592"/>
      <point x="115" y="645"/>
      <point x="196" y="645" type="curve" smooth="yes"/>
      <point x="277" y="645"/>
      <point x="321" y="592"/>
      <point x="321" y="483" type="curve" smooth="yes"/>
      <point x="321" y="172" type="line" smooth="yes"/>
      <point x="321" y="63"/>
      <point x="277" y="10"/>
    </contour>
  </outline>
</glyph>
<glyph name="P" format="2">
  <advance width="330"/>
  <unicode hex="0050"/>
  <anchor x="169" y="0" name="bottom"/>
  <anchor x="169" y="655" name="top"/>
  <outline>
    <contour>
      <point x="69" y="0" type="curve" smooth="yes"/>
      <point x="79" y="0" type="line" smooth="yes"/>
      <point x="81" y="0"/>
      <point x="82" y="1"/>
      <point x="82" y="3" type="curve" smooth="yes"/>
      <point x="82" y="277" type="line"/>
      <point x="144" y="277" type="line" smooth="yes"/>
      <point x="258" y="277"/>
      <point x="298" y="341"/>
      <point x="298" y="465" type="curve" smooth="yes"/>
      <point x="298" y="601"/>
      <point x="242" y="655"/>
      <point x="143" y="655" type="curve" smooth="yes"/>
      <point x="69" y="655" type="line" smooth="yes"/>
      <point x="67" y="655"/>
      <point x="66" y="654"/>
      <point x="66" y="652" type="curve" smooth="yes"/>
      <point x="66" y="3" type="line" smooth="yes"/>
      <point x="66" y="1"/>
      <point x="67" y="0"/>
    </contour>
    <contour>
      <point x="82" y="293" type="line"/>
      <point x="82" y="639" type="line"/>
      <point x="145" y="639" type="line" smooth="yes"/>
      <point x="233" y="639"/>
      <point x="282" y="588"/>
      <point x="282" y="465" type="curve" smooth="yes"/>
      <point x="282" y="354"/>
      <point x="250" y="293"/>
      <point x="143" y="293" type="curve" smooth="yes"/>
    </contour>
  </outline>
</glyph>
<glyph name="Q" format="2">
  <advance width="392"/>
  <unicode hex="0051"/>
  <anchor x="191" y="0" name="bottom"/>
  <anchor x="191" y="655" name="top"/>
  <outline>
    <contour>
      <point x="267" y="-172" type="curve" smooth="yes"/>
      <point x="277" y="-172"/>
      <point x="285" y="-170"/>
      <point x="291" y="-167" type="curve" smooth="yes"/>
      <point x="293" y="-166"/>
      <point x="294" y="-165"/>
      <point x="294" y="-163" type="curve" smooth="yes"/>
      <point x="294" y="-152" type="line" smooth="yes"/>
      <point x="294" y="-150"/>
      <point x="293" y="-149"/>
      <point x="291" y="-150" type="curve" smooth="yes"/>
      <point x="285" y="-154"/>
      <point x="278" y="-156"/>
      <point x="267" y="-156" type="curve" smooth="yes"/>
      <point x="235" y="-156"/>
      <point x="214" y="-92"/>
      <point x="220" y="-3" type="curve" smooth="yes"/>
      <point x="220" y="-1"/>
      <point x="220" y="0"/>
      <point x="218" y="0" type="curve" smooth="yes"/>
      <point x="207" y="0" type="line" smooth="yes"/>
      <point x="206" y="0"/>
      <point x="205" y="-1"/>
      <point x="205" y="-3" type="curve" smooth="yes"/>
      <point x="201" y="-104"/>
      <point x="220" y="-172"/>
    </contour>
    <component base="O"/>
  </outline>
</glyph>
<glyph name="R" format="2">
  <advance width="356"/>
  <unicode hex="0052"/>
  <anchor x="185" y="0" name="bottom"/>
  <anchor x="164" y="655" name="top"/>
  <outline>
    <contour>
      <point x="69" y="0" type="curve" smooth="yes"/>
      <point x="79" y="0" type="line" smooth="yes"/>
      <point x="81" y="0"/>
      <point x="82" y="1"/>
      <point x="82" y="3" type="curve" smooth="yes"/>
      <point x="82" y="303" type="line"/>
      <point x="194" y="303" type="line"/>
      <point x="307" y="2" type="line" smooth="yes"/>
      <point x="308" y="0"/>
      <point x="309" y="0"/>
      <point x="310" y="0" type="curve" smooth="yes"/>
      <point x="322" y="0" type="line" smooth="yes"/>
      <point x="324" y="0"/>
      <point x="325" y="2"/>
      <point x="324" y="4" type="curve" smooth="yes"/>
      <point x="211" y="307" type="line"/>
      <point x="211" y="308" type="line"/>
      <point x="271" y="322"/>
      <point x="307" y="384"/>
      <point x="307" y="479" type="curve" smooth="yes"/>
      <point x="307" y="604"/>
      <point x="258" y="655"/>
      <point x="165" y="655" type="curve" smooth="yes"/>
      <point x="69" y="655" type="line" smooth="yes"/>
      <point x="67" y="655"/>
      <point x="66" y="654"/>
      <point x="66" y="652" type="curve" smooth="yes"/>
      <point x="66" y="3" type="line" smooth="yes"/>
      <point x="66" y="1"/>
      <point x="67" y="0"/>
    </contour>
    <contour>
      <point x="82" y="319" type="line"/>
      <point x="82" y="639" type="line"/>
      <point x="165" y="639" type="line" smooth="yes"/>
      <point x="247" y="639"/>
      <point x="291" y="591"/>
      <point x="291" y="479" type="curve" smooth="yes"/>
      <point x="291" y="379"/>
      <point x="254" y="319"/>
      <point x="174" y="319" type="curve" smooth="yes"/>
    </contour>
  </outline>
</glyph>
<glyph name="S" format="2">
  <advance width="334"/>
  <unicode hex="0053"/>
  <anchor x="163" y="0" name="bottom"/>
  <anchor x="167" y="655" name="top"/>
  <outline>
    <contour>
      <point x="163" y="-6" type="curve" smooth="yes"/>
      <point x="251" y="-6"/>
      <point x="292" y="41"/>
      <point x="292" y="142" type="curve" smooth="yes"/>
      <point x="292" y="231"/>
      <point x="271" y="273"/>
      <point x="202" y="325" type="curve" smooth="yes"/>
      <point x="133" y="377" type="line" smooth="yes"/>
      <point x="79" y="417"/>
      <point x="61" y="457"/>
      <point x="61" y="527" type="curve" smooth="yes"/>
      <point x="61" y="602"/>
      <point x="99" y="645"/>
      <point x="164" y="645" type="curve" smooth="yes"/>
      <point x="237" y="645"/>
      <point x="274" y="592"/>
      <point x="270" y="492" type="curve" smooth="yes"/>
      <point x="270" y="490"/>
      <point x="270" y="489"/>
      <point x="272" y="489" type="curve" smooth="yes"/>
      <point x="284" y="489" type="line" smooth="yes"/>
      <point x="285" y="489"/>
      <point x="286" y="490"/>
      <point x="286" y="492" type="curve" smooth="yes"/>
      <point x="291" y="603"/>
      <point x="249" y="661"/>
      <point x="164" y="661" type="curve" smooth="yes"/>
      <point x="90" y="661"/>
      <point x="45" y="611"/>
      <point x="45" y="527" type="curve" smooth="yes"/>
      <point x="45" y="450"/>
      <point x="66" y="407"/>
      <point x="125" y="363" type="curve" smooth="yes"/>
      <point x="193" y="312" type="line" smooth="yes"/>
      <point x="257" y="265"/>
      <point x="276" y="224"/>
      <point x="276" y="142" type="curve" smooth="yes"/>
      <point x="276" y="50"/>
      <point x="242" y="10"/>
      <point x="163" y="10" type="curve" smooth="yes"/>
      <point x="83" y="10"/>
      <point x="48" y="60"/>
      <point x="53" y="167" type="curve" smooth="yes"/>
      <point x="53" y="169"/>
      <point x="52" y="170"/>
      <point x="50" y="170" type="curve" smooth="yes"/>
      <point x="40" y="170" type="line" smooth="yes"/>
      <point x="38" y="170"/>
      <point x="37" y="169"/>
      <point x="37" y="167" type="curve" smooth="yes"/>
      <point x="33" y="49"/>
      <point x="73" y="-6"/>
    </contour>
  </outline>
</glyph>
<glyph name="T" format="2">
  <advance width="320"/>
  <unicode hex="0054"/>
  <anchor x="161" y="0" name="bottom"/>
  <anchor x="160" y="328" name="center"/>
  <anchor x="160" y="655" name="top"/>
  <outline>
    <contour>
      <point x="155" y="0" type="curve" smooth="yes"/>
      <point x="165" y="0" type="line" smooth="yes"/>
      <point x="167" y="0"/>
      <point x="168" y="1"/>
      <point x="168" y="3" type="curve" smooth="yes"/>
      <point x="168" y="639" type="line"/>
      <point x="293" y="639" type="line" smooth="yes"/>
      <point x="295" y="639"/>
      <point x="296" y="640"/>
      <point x="296" y="642" type="curve" smooth="yes"/>
      <point x="296" y="652" type="line" smooth="yes"/>
      <point x="296" y="654"/>
      <point x="295" y="655"/>
      <point x="293" y="655" type="curve" smooth="yes"/>
      <point x="27" y="655" type="line" smooth="yes"/>
      <point x="25" y="655"/>
      <point x="24" y="654"/>
      <point x="24" y="652" type="curve" smooth="yes"/>
      <point x="24" y="642" type="line" smooth="yes"/>
      <point x="24" y="640"/>
      <point x="25" y="639"/>
      <point x="27" y="639" type="curve" smooth="yes"/>
      <point x="152" y="639" type="line"/>
      <point x="152" y="3" type="line" smooth="yes"/>
      <point x="152" y="1"/>
      <point x="153" y="0"/>
    </contour>
  </outline>
</glyph>
<glyph name="U" format="2">
  <advance width="394"/>
  <unicode hex="0055"/>
  <anchor x="197" y="0" name="bottom"/>
  <anchor x="250" y="10" name="ogonek"/>
  <anchor x="197" y="655" name="top"/>
  <anchor x="47" y="655" name="topleft"/>
  <anchor x="378" y="655" name="topright"/>
  <outline>
    <contour>
      <point x="197" y="-6" type="curve" smooth="yes"/>
      <point x="291" y="-6"/>
      <point x="332" y="59"/>
      <point x="332" y="195" type="curve" smooth="yes"/>
      <point x="332" y="652" type="line" smooth="yes"/>
      <point x="332" y="654"/>
      <point x="331" y="655"/>
      <point x="329" y="655" type="curve" smooth="yes"/>
      <point x="319" y="655" type="line" smooth="yes"/>
      <point x="317" y="655"/>
      <point x="316" y="654"/>
      <point x="316" y="652" type="curve" smooth="yes"/>
      <point x="316" y="195" type="line" smooth="yes"/>
      <point x="316" y="70"/>
      <point x="280" y="10"/>
      <point x="197" y="10" type="curve" smooth="yes"/>
      <point x="114" y="10"/>
      <point x="78" y="70"/>
      <point x="78" y="195" type="curve" smooth="yes"/>
      <point x="78" y="652" type="line" smooth="yes"/>
      <point x="78" y="654"/>
      <point x="77" y="655"/>
      <point x="75" y="655" type="curve" smooth="yes"/>
      <point x="65" y="655" type="line" smooth="yes"/>
      <point x="63" y="655"/>
      <point x="62" y="654"/>
      <point x="62" y="652" type="curve" smooth="yes"/>
      <point x="62" y="195" type="line" smooth="yes"/>
      <point x="62" y="59"/>
      <point x="103" y="-6"/>
    </contour>
  </outline>
</glyph>
<glyph name="V" format="2">
  <advance width="343"/>
  <unicode hex="0056"/>
  <anchor x="171" y="0" name="bottom"/>
  <anchor x="171" y="655" name="top"/>
  <outline>
    <contour>
      <point x="164" y="0" type="curve" smooth="yes"/>
      <point x="182" y="0" type="line" smooth="yes"/>
      <point x="184" y="0"/>
      <point x="185" y="1"/>
      <point x="186" y="4" type="curve" smooth="yes"/>
      <point x="327" y="651" type="line" smooth="yes"/>
      <point x="328" y="655"/>
      <point x="326" y="655"/>
      <point x="324" y="655" type="curve" smooth="yes"/>
      <point x="315" y="655" type="line" smooth="yes"/>
      <point x="313" y="655"/>
      <point x="312" y="655"/>
      <point x="311" y="652" type="curve" smooth="yes"/>
      <point x="203" y="162" type="line" smooth="yes"/>
      <point x="192" y="114"/>
      <point x="183" y="66"/>
      <point x="173" y="18" type="curve"/>
      <point x="172" y="18" type="line"/>
      <point x="162" y="66"/>
      <point x="153" y="113"/>
      <point x="142" y="161" type="curve" smooth="yes"/>
      <point x="32" y="652" type="line" smooth="yes"/>
      <point x="31" y="655"/>
      <point x="30" y="655"/>
      <point x="28" y="655" type="curve" smooth="yes"/>
      <point x="19" y="655" type="line" smooth="yes"/>
      <point x="17" y="655"/>
      <point x="15" y="655"/>
      <point x="16" y="652" type="curve" smooth="yes"/>
      <point x="160" y="4" type="line" smooth="yes"/>
      <point x="161" y="1"/>
      <point x="162" y="0"/>
    </contour>
  </outline>
</glyph>
<glyph name="W" format="2">
  <advance width="499"/>
  <unicode hex="0057"/>
  <anchor x="259" y="0" name="bottom"/>
  <anchor x="250" y="655" name="top"/>
  <outline>
    <contour>
      <point x="144" y="0" type="curve" smooth="yes"/>
      <point x="161" y="0" type="line" smooth="yes"/>
      <point x="163" y="0"/>
      <point x="164" y="0"/>
      <point x="165" y="4" type="curve" smooth="yes"/>
      <point x="228" y="340" type="line" smooth="yes"/>
      <point x="236" y="384"/>
      <point x="245" y="429"/>
      <point x="253" y="473" type="curve"/>
      <point x="254" y="473" type="line"/>
      <point x="262" y="428"/>
      <point x="269" y="383"/>
      <point x="277" y="338" type="curve" smooth="yes"/>
      <point x="335" y="4" type="line" smooth="yes"/>
      <point x="336" y="0"/>
      <point x="337" y="0"/>
      <point x="340" y="0" type="curve" smooth="yes"/>
      <point x="356" y="0" type="line" smooth="yes"/>
      <point x="358" y="0"/>
      <point x="359" y="0"/>
      <point x="360" y="4" type="curve" smooth="yes"/>
      <point x="481" y="652" type="line" smooth="yes"/>
      <point x="482" y="655"/>
      <point x="480" y="655"/>
      <point x="478" y="655" type="curve" smooth="yes"/>
      <point x="469" y="655" type="line" smooth="yes"/>
      <point x="468" y="655"/>
      <point x="466" y="655"/>
      <point x="465" y="652" type="curve" smooth="yes"/>
      <point x="372" y="146" type="line" smooth="yes"/>
      <point x="364" y="103"/>
      <point x="356" y="60"/>
      <point x="348" y="17" type="curve"/>
      <point x="347" y="17" type="line"/>
      <point x="340" y="59"/>
      <point x="332" y="102"/>
      <point x="325" y="144" type="curve" smooth="yes"/>
      <point x="239" y="642" type="line" smooth="yes"/>
      <point x="238" y="645"/>
      <point x="237" y="645"/>
      <point x="235" y="645" type="curve" smooth="yes"/>
      <point x="226" y="645" type="line" smooth="yes"/>
      <point x="224" y="645"/>
      <point x="222" y="645"/>
      <point x="223" y="641" type="curve" smooth="yes"/>
      <point x="246" y="509" type="line"/>
      <point x="176" y="139" type="line" smooth="yes"/>
      <point x="168" y="98"/>
      <point x="161" y="58"/>
      <point x="153" y="17" type="curve"/>
      <point x="152" y="17" type="line"/>
      <point x="144" y="58"/>
      <point x="137" y="98"/>
      <point x="129" y="139" type="curve" smooth="yes"/>
      <point x="34" y="652" type="line" smooth="yes"/>
      <point x="33" y="655"/>
      <point x="32" y="655"/>
      <point x="30" y="655" type="curve" smooth="yes"/>
      <point x="20" y="655" type="line" smooth="yes"/>
      <point x="19" y="655"/>
      <point x="17" y="655"/>
      <point x="18" y="652" type="curve" smooth="yes"/>
      <point x="140" y="3" type="line" smooth="yes"/>
      <point x="141" y="0"/>
      <point x="143" y="0"/>
    </contour>
  </outline>
</glyph>
<glyph name="X" format="2">
  <advance width="322"/>
  <unicode hex="0058"/>
  <anchor x="161" y="0" name="bottom"/>
  <anchor x="161" y="655" name="top"/>
  <outline>
    <contour>
      <point x="10" y="0" type="curve" smooth="yes"/>
      <point x="22" y="0" type="line" smooth="yes"/>
      <point x="25" y="0"/>
      <point x="26" y="2"/>
      <point x="27" y="4" type="curve" smooth="yes"/>
      <point x="115" y="213" type="line" smooth="yes"/>
      <point x="130" y="248"/>
      <point x="146" y="285"/>
      <point x="161" y="321" type="curve"/>
      <point x="162" y="321" type="line"/>
      <point x="178" y="283"/>
      <point x="193" y="247"/>
      <point x="209" y="210" type="curve" smooth="yes"/>
      <point x="297" y="3" type="line" smooth="yes"/>
      <point x="298" y="1"/>
      <point x="299" y="0"/>
      <point x="301" y="0" type="curve" smooth="yes"/>
      <point x="312" y="0" type="line" smooth="yes"/>
      <point x="314" y="0"/>
      <point x="315" y="1"/>
      <point x="314" y="3" type="curve" smooth="yes"/>
      <point x="173" y="337" type="line"/>
      <point x="306" y="651" type="line" smooth="yes"/>
      <point x="307" y="653"/>
      <point x="307" y="655"/>
      <point x="305" y="655" type="curve" smooth="yes"/>
      <point x="292" y="655" type="line" smooth="yes"/>
      <point x="291" y="655"/>
      <point x="290" y="655"/>
      <point x="289" y="653" type="curve" smooth="yes"/>
      <point x="202" y="447" type="line" smooth="yes"/>
      <point x="189" y="415"/>
      <point x="175" y="383"/>
      <point x="162" y="351" type="curve"/>
      <point x="161" y="351" type="line"/>
      <point x="148" y="383"/>
      <point x="134" y="414"/>
      <point x="121" y="446" type="curve" smooth="yes"/>
      <point x="33" y="653" type="line" smooth="yes"/>
      <point x="32" y="655"/>
      <point x="31" y="655"/>
      <point x="29" y="655" type="curve" smooth="yes"/>
      <point x="18" y="655" type="line" smooth="yes"/>
      <point x="16" y="655"/>
      <point x="15" y="653"/>
      <point x="16" y="651" type="curve" smooth="yes"/>
      <point x="151" y="336" type="line"/>
      <point x="9" y="4" type="line" smooth="yes"/>
      <point x="8" y="2"/>
      <point x="8" y="0"/>
    </contour>
  </outline>
</glyph>
<glyph name="Z" format="2">
  <advance width="301"/>
  <unicode hex="005A"/>
  <anchor x="150" y="0" name="bottom"/>
  <anchor x="164" y="655" name="top"/>
  <outline>
    <contour>
      <point x="14" y="0" type="curve" smooth="yes"/>
      <point x="273" y="0" type="line" smooth="yes"/>
      <point x="275" y="0"/>
      <point x="276" y="1"/>
      <point x="276" y="3" type="curve" smooth="yes"/>
      <point x="276" y="13" type="line" smooth="yes"/>
      <point x="276" y="15"/>
      <point x="275" y="16"/>
      <point x="273" y="16" type="curve" smooth="yes"/>
      <point x="96" y="16" type="line" smooth="yes"/>
      <point x="75" y="16"/>
      <point x="52" y="16"/>
      <point x="30" y="16" type="curve"/>
      <point x="30" y="17" type="line"/>
      <point x="44" y="51"/>
      <point x="59" y="88"/>
      <point x="73" y="123" type="curve" smooth="yes"/>
      <point x="286" y="642" type="line" smooth="yes"/>
      <point x="287" y="645"/>
      <point x="288" y="647"/>
      <point x="288" y="649" type="curve" smooth="yes"/>
      <point x="288" y="651" type="line" smooth="yes"/>
      <point x="288" y="653"/>
      <point x="287" y="655"/>
      <point x="284" y="655" type="curve" smooth="yes"/>
      <point x="33" y="655" type="line" smooth="yes"/>
      <point x="31" y="655"/>
      <point x="30" y="654"/>
      <point x="30" y="652" type="curve" smooth="yes"/>
      <point x="30" y="642" type="line" smooth="yes"/>
      <point x="30" y="640"/>
      <point x="31" y="639"/>
      <point x="33" y="639" type="curve" smooth="yes"/>
      <point x="196" y="639" type="line" smooth="yes"/>
      <point x="218" y="639"/>
      <point x="246" y="639"/>
      <point x="268" y="639" type="curve"/>
      <point x="268" y="638" type="line"/>
      <point x="255" y="607"/>
      <point x="243" y="577"/>
      <point x="230" y="545" type="curve" smooth="yes"/>
      <point x="11" y="12" type="line" smooth="yes"/>
      <point x="10" y="9"/>
      <point x="10" y="8"/>
      <point x="10" y="6" type="curve" smooth="yes"/>
      <point x="10" y="4" type="line" smooth="yes"/>
      <point x="10" y="1"/>
      <point x="11" y="0"/>
    </contour>
  </outline>
</glyph>
<glyph name="bracketleft" format="2">
  <advance width="159"/>
  <unicode hex="005B"/>
  <outline>
    <contour>
      <point x="57" y="-142" type="curve" smooth="yes"/>
      <point x="156" y="-142" type="line" smooth="yes"/>
      <point x="158" y="-142"/>
      <point x="159" y="-141"/>
      <point x="159" y="-139" type="curve" smooth="yes"/>
      <point x="159" y="-129" type="line" smooth="yes"/>
      <point x="159" y="-127"/>
      <point x="158" y="-126"/>
      <point x="156" y="-126" type="curve" smooth="yes"/>
      <point x="70" y="-126" type="line"/>
      <point x="70" y="681" type="line"/>
      <point x="156" y="681" type="line" smooth="yes"/>
      <point x="158" y="681"/>
      <point x="159" y="682"/>
      <point x="159" y="684" type="curve" smooth="yes"/>
      <point x="159" y="694" type="line" smooth="yes"/>
      <point x="159" y="696"/>
      <point x="158" y="697"/>
      <point x="156" y="697" type="curve" smooth="yes"/>
      <point x="57" y="697" type="line" smooth="yes"/>
      <point x="56" y="697"/>
      <point x="55" y="696"/>
      <point x="55" y="694" type="curve" smooth="yes"/>
      <point x="55" y="-139" type="line" smooth="yes"/>
      <point x="55" y="-141"/>
      <point x="56" y="-142"/>
    </contour>
  </outline>
</glyph>
<glyph name="backslash" format="2">
  <advance width="208"/>
  <unicode hex="005C"/>
  <outline>
    <contour>
      <point x="185" y="0" type="curve" smooth="yes"/>
      <point x="195" y="0" type="line" smooth="yes"/>
      <point x="196" y="0"/>
      <point x="198" y="1"/>
      <point x="197" y="3" type="curve" smooth="yes"/>
      <point x="26" y="653" type="line" smooth="yes"/>
      <point x="25" y="655"/>
      <point x="25" y="655"/>
      <point x="24" y="655" type="curve" smooth="yes"/>
      <point x="14" y="655" type="line" smooth="yes"/>
      <point x="12" y="655"/>
      <point x="10" y="654"/>
      <point x="11" y="652" type="curve" smooth="yes"/>
      <point x="181" y="2" type="line" smooth="yes"/>
      <point x="181" y="1"/>
      <point x="183" y="0"/>
    </contour>
  </outline>
</glyph>
<glyph name="bracketright" format="2">
  <advance width="159"/>
  <unicode hex="005D"/>
  <outline>
    <contour>
      <point x="2" y="-142" type="curve" smooth="yes"/>
      <point x="101" y="-142" type="line" smooth="yes"/>
      <point x="103" y="-142"/>
      <point x="104" y="-141"/>
      <point x="104" y="-139" type="curve" smooth="yes"/>
      <point x="104" y="694" type="line" smooth="yes"/>
      <point x="104" y="696"/>
      <point x="103" y="697"/>
      <point x="101" y="697" type="curve" smooth="yes"/>
      <point x="2" y="697" type="line" smooth="yes"/>
      <point x="1" y="697"/>
      <point x="0" y="696"/>
      <point x="0" y="694" type="curve" smooth="yes"/>
      <point x="0" y="684" type="line" smooth="yes"/>
      <point x="0" y="682"/>
      <point x="1" y="681"/>
      <point x="2" y="681" type="curve" smooth="yes"/>
      <point x="89" y="681" type="line"/>
      <point x="89" y="-126" type="line"/>
      <point x="2" y="-126" type="line" smooth="yes"/>
      <point x="1" y="-126"/>
      <point x="0" y="-127"/>
      <point x="0" y="-129" type="curve" smooth="yes"/>
      <point x="0" y="-139" type="line" smooth="yes"/>
      <point x="0" y="-141"/>
      <point x="1" y="-142"/>
    </contour>
  </outline>
</glyph>
<glyph name="asciicircum" format="2">
  <advance width="292"/>
  <unicode hex="005E"/>
  <outline>
    <contour>
      <point x="35" y="350" type="curve" smooth="yes"/>
      <point x="44" y="350" type="line" smooth="yes"/>
      <point x="46" y="350"/>
      <point x="47" y="350"/>
      <point x="48" y="352" type="curve" smooth="yes"/>
      <point x="146" y="666" type="line"/>
      <point x="244" y="352" type="line" smooth="yes"/>
      <point x="245" y="350"/>
      <point x="245" y="350"/>
      <point x="247" y="350" type="curve" smooth="yes"/>
      <point x="257" y="350" type="line" smooth="yes"/>
      <point x="259" y="350"/>
      <point x="260" y="352"/>
      <point x="259" y="354" type="curve" smooth="yes"/>
      <point x="154" y="681" type="line" smooth="yes"/>
      <point x="153" y="683"/>
      <point x="153" y="683"/>
      <point x="152" y="683" type="curve" smooth="yes"/>
      <point x="140" y="683" type="line" smooth="yes"/>
      <point x="138" y="683"/>
      <point x="138" y="683"/>
      <point x="137" y="681" type="curve" smooth="yes"/>
      <point x="32" y="354" type="line" smooth="yes"/>
      <point x="31" y="351"/>
      <point x="33" y="350"/>
    </contour>
  </outline>
</glyph>
<glyph name="underscore" format="2">
  <advance width="264"/>
  <unicode hex="005F"/>
  <outline>
    <contour>
      <point x="9" y="-79" type="curve" smooth="yes"/>
      <point x="255" y="-79" type="line" smooth="yes"/>
      <point x="257" y="-79"/>
      <point x="258" y="-78"/>
      <point x="258" y="-76" type="curve" smooth="yes"/>
      <point x="258" y="-66" type="line" smooth="yes"/>
      <point x="258" y="-64"/>
      <point x="257" y="-63"/>
      <point x="255" y="-63" type="curve" smooth="yes"/>
      <point x="9" y="-63" type="line" smooth="yes"/>
      <point x="7" y="-63"/>
      <point x="6" y="-64"/>
      <point x="6" y="-66" type="curve" smooth="yes"/>
      <point x="6" y="-76" type="line" smooth="yes"/>
      <point x="6" y="-78"/>
      <point x="7" y="-79"/>
    </contour>
  </outline>
</glyph>
<glyph name="a" format="2">
  <advance width="297"/>
  <unicode hex="0061"/>
  <anchor x="145" y="0" name="bottom"/>
  <anchor x="244" y="10" name="ogonek"/>
  <anchor x="149" y="478" name="top"/>
  <outline>
    <contour>
      <point x="228" y="0" type="curve" smooth="yes"/>
      <point x="237" y="0" type="line" smooth="yes"/>
      <point x="239" y="0"/>
      <point x="240" y="1"/>
      <point x="240" y="3" type="curve" smooth="yes"/>
      <point x="238" y="36"/>
      <point x="237" y="74"/>
      <point x="237" y="110" type="curve" smooth="yes"/>
      <point x="237" y="363" type="line" smooth="yes"/>
      <point x="237" y="450"/>
      <point x="212" y="485"/>
      <point x="148" y="484" type="curve" smooth="yes"/>
      <point x="85" y="483"/>
      <point x="50" y="440"/>
      <point x="57" y="366" type="curve" smooth="yes"/>
      <point x="57" y="364"/>
      <point x="58" y="363"/>
      <point x="60" y="363" type="curve" smooth="yes"/>
      <point x="70" y="363" type="line" smooth="yes"/>
      <point x="72" y="363"/>
      <point x="73" y="364"/>
      <point x="73" y="366" type="curve" smooth="yes"/>
      <point x="67" y="432"/>
      <point x="93" y="468"/>
      <point x="148" y="468" type="curve" smooth="yes"/>
      <point x="203" y="468"/>
      <point x="221" y="440"/>
      <point x="221" y="362" type="curve" smooth="yes"/>
      <point x="221" y="93" type="line"/>
      <point x="221" y="92" type="line" smooth="yes"/>
      <point x="221" y="76"/>
      <point x="222" y="41"/>
      <point x="225" y="3" type="curve" smooth="yes"/>
      <point x="225" y="1"/>
      <point x="226" y="0"/>
    </contour>
    <contour>
      <point x="113" y="-6" type="curve" smooth="yes"/>
      <point x="149" y="-6"/>
      <point x="176" y="11"/>
      <point x="225" y="76" type="curve"/>
      <point x="225" y="99" type="line"/>
      <point x="173" y="27"/>
      <point x="144" y="10"/>
      <point x="114" y="10" type="curve" smooth="yes"/>
      <point x="76" y="10"/>
      <point x="56" y="48"/>
      <point x="56" y="110" type="curve" smooth="yes"/>
      <point x="56" y="184"/>
      <point x="82" y="234"/>
      <point x="151" y="243" type="curve" smooth="yes"/>
      <point x="224" y="253" type="line"/>
      <point x="224" y="269" type="line"/>
      <point x="151" y="259" type="line" smooth="yes"/>
      <point x="72" y="248"/>
      <point x="40" y="193"/>
      <point x="40" y="110" type="curve" smooth="yes"/>
      <point x="40" y="41"/>
      <point x="64" y="-6"/>
    </contour>
  </outline>
</glyph>
<glyph name="b" format="2">
  <advance width="332"/>
  <unicode hex="0062"/>
  <outline>
    <contour>
      <point x="175" y="-6" type="curve" smooth="yes"/>
      <point x="240" y="-6"/>
      <point x="283" y="33"/>
      <point x="283" y="141" type="curve" smooth="yes"/>
      <point x="283" y="357" type="line" smooth="yes"/>
      <point x="283" y="447"/>
      <point x="254" y="484"/>
      <point x="204" y="484" type="curve" smooth="yes"/>
      <point x="155" y="484"/>
      <point x="113" y="446"/>
      <point x="72" y="397" type="curve"/>
      <point x="72" y="376" type="line"/>
      <point x="112" y="425"/>
      <point x="155" y="468"/>
      <point x="203" y="468" type="curve" smooth="yes"/>
      <point x="246" y="468"/>
      <point x="267" y="432"/>
      <point x="267" y="354" type="curve" smooth="yes"/>
      <point x="267" y="140" type="line" smooth="yes"/>
      <point x="267" y="46"/>
      <point x="231" y="10"/>
      <point x="175" y="10" type="curve" smooth="yes"/>
      <point x="139" y="10"/>
      <point x="108" y="21"/>
      <point x="76" y="28" type="curve"/>
      <point x="76" y="680" type="line" smooth="yes"/>
      <point x="76" y="682"/>
      <point x="75" y="683"/>
      <point x="73" y="683" type="curve" smooth="yes"/>
      <point x="63" y="683" type="line" smooth="yes"/>
      <point x="61" y="683"/>
      <point x="60" y="682"/>
      <point x="60" y="680" type="curve" smooth="yes"/>
      <point x="60" y="16" type="line"/>
      <point x="100" y="7"/>
      <point x="137" y="-6"/>
    </contour>
  </outline>
</glyph>
<glyph name="c" format="2">
  <advance width="307"/>
  <unicode hex="0063"/>
  <anchor x="156" y="0" name="bottom"/>
  <anchor x="205" y="10" name="ogonek"/>
  <anchor x="155" y="478" name="top"/>
  <outline>
    <contour>
      <point x="160" y="-6" type="curve" smooth="yes"/>
      <point x="234" y="-5"/>
      <point x="264" y="46"/>
      <point x="262" y="139" type="curve" smooth="yes"/>
      <point x="262" y="141"/>
      <point x="261" y="142"/>
      <point x="259" y="142" type="curve" smooth="yes"/>
      <point x="249" y="142" type="line" smooth="yes"/>
      <point x="247" y="142"/>
      <point x="246" y="141"/>
      <point x="246" y="139" type="curve" smooth="yes"/>
      <point x="249" y="54"/>
      <point x="222" y="10"/>
      <point x="160" y="10" type="curve" smooth="yes"/>
      <point x="95" y="10"/>
      <point x="63" y="49"/>
      <point x="63" y="134" type="curve" smooth="yes"/>
      <point x="63" y="345" type="line" smooth="yes"/>
      <point x="63" y="429"/>
      <point x="95" y="468"/>
      <point x="159" y="468" type="curve" smooth="yes"/>
      <point x="219" y="468"/>
      <point x="249" y="421"/>
      <point x="246" y="348" type="curve" smooth="yes"/>
      <point x="246" y="346"/>
      <point x="247" y="345"/>
      <point x="249" y="345" type="curve" smooth="yes"/>
      <point x="259" y="345" type="line" smooth="yes"/>
      <point x="261" y="345"/>
      <point x="262" y="346"/>
      <point x="262" y="349" type="curve" smooth="yes"/>
      <point x="267" y="431"/>
      <point x="229" y="484"/>
      <point x="159" y="484" type="curve" smooth="yes"/>
      <point x="86" y="484"/>
      <point x="47" y="441"/>
      <point x="47" y="346" type="curve" smooth="yes"/>
      <point x="47" y="133" type="line" smooth="yes"/>
      <point x="47" y="37"/>
      <point x="86" y="-7"/>
    </contour>
  </outline>
</glyph>
<glyph name="d" format="2">
  <advance width="330"/>
  <unicode hex="0064"/>
  <anchor x="165" y="0" name="bottom"/>
  <anchor x="165" y="239" name="center"/>
  <anchor x="165" y="478" name="top"/>
  <anchor x="313" y="478" name="topright"/>
  <outline>
    <contour>
      <point x="130" y="-6" type="curve" smooth="yes"/>
      <point x="178" y="-6"/>
      <point x="217" y="31"/>
      <point x="258" y="81" type="curve"/>
      <point x="258" y="103" type="line"/>
      <point x="218" y="52"/>
      <point x="176" y="10"/>
      <point x="132" y="10" type="curve" smooth="yes"/>
      <point x="89" y="10"/>
      <point x="65" y="36"/>
      <point x="65" y="118" type="curve" smooth="yes"/>
      <point x="65" y="339" type="line" smooth="yes"/>
      <point x="65" y="436"/>
      <point x="103" y="468"/>
      <point x="155" y="468" type="curve" smooth="yes"/>
      <point x="188" y="468"/>
      <point x="224" y="453"/>
      <point x="261" y="423" type="curve"/>
      <point x="261" y="442" type="line"/>
      <point x="226" y="469"/>
      <point x="190" y="484"/>
      <point x="154" y="484" type="curve" smooth="yes"/>
      <point x="92" y="484"/>
      <point x="49" y="445"/>
      <point x="49" y="340" type="curve" smooth="yes"/>
      <point x="49" y="115" type="line" smooth="yes"/>
      <point x="49" y="23"/>
      <point x="79" y="-6"/>
    </contour>
    <contour>
      <point x="261" y="0" type="curve" smooth="yes"/>
      <point x="270" y="0" type="line" smooth="yes"/>
      <point x="272" y="0"/>
      <point x="273" y="1"/>
      <point x="273" y="3" type="curve" smooth="yes"/>
      <point x="271" y="37"/>
      <point x="270" y="75"/>
      <point x="270" y="110" type="curve" smooth="yes"/>
      <point x="270" y="680" type="line" smooth="yes"/>
      <point x="270" y="682"/>
      <point x="269" y="683"/>
      <point x="267" y="683" type="curve" smooth="yes"/>
      <point x="257" y="683" type="line" smooth="yes"/>
      <point x="255" y="683"/>
      <point x="254" y="682"/>
      <point x="254" y="680" type="curve" smooth="yes"/>
      <point x="254" y="95" type="line"/>
      <point x="254" y="92" type="line"/>
      <point x="254" y="72"/>
      <point x="256" y="35"/>
      <point x="258" y="3" type="curve" smooth="yes"/>
      <point x="258" y="1"/>
      <point x="259" y="0"/>
    </contour>
  </outline>
</glyph>
<glyph name="f" format="2">
  <advance width="220"/>
  <unicode hex="0066"/>
  <anchor x="110" y="0" name="bottom"/>
  <anchor x="110" y="478" name="top"/>
  <outline>
    <contour>
      <point x="79" y="0" type="curve" smooth="yes"/>
      <point x="89" y="0" type="line" smooth="yes"/>
      <point x="91" y="0"/>
      <point x="92" y="1"/>
      <point x="92" y="3" type="curve" smooth="yes"/>
      <point x="92" y="462" type="line"/>
      <point x="198" y="462" type="line" smooth="yes"/>
      <point x="200" y="462"/>
      <point x="201" y="463"/>
      <point x="201" y="465" type="curve" smooth="yes"/>
      <point x="201" y="475" type="line" smooth="yes"/>
      <point x="201" y="477"/>
      <point x="200" y="478"/>
      <point x="198" y="478" type="curve" smooth="yes"/>
      <point x="92" y="478" type="line"/>
      <point x="92" y="565" type="line" smooth="yes"/>
      <point x="92" y="641"/>
      <point x="108" y="673"/>
      <point x="160" y="673" type="curve" smooth="yes"/>
      <point x="178" y="673"/>
      <point x="197" y="668"/>
      <point x="213" y="663" type="curve" smooth="yes"/>
      <point x="215" y="662"/>
      <point x="216" y="663"/>
      <point x="216" y="665" type="curve" smooth="yes"/>
      <point x="216" y="675" type="line" smooth="yes"/>
      <point x="216" y="677"/>
      <point x="216" y="678"/>
      <point x="214" y="679" type="curve" smooth="yes"/>
      <point x="201" y="684"/>
      <point x="181" y="689"/>
      <point x="160" y="689" type="curve" smooth="yes"/>
      <point x="99" y="689"/>
      <point x="76" y="653"/>
      <point x="76" y="565" type="curve" smooth="yes"/>
      <point x="76" y="478" type="line"/>
      <point x="26" y="478" type="line" smooth="yes"/>
      <point x="24" y="478"/>
      <point x="23" y="477"/>
      <point x="23" y="475" type="curve" smooth="yes"/>
      <point x="23" y="465" type="line" smooth="yes"/>
      <point x="23" y="463"/>
      <point x="24" y="462"/>
      <point x="26" y="462" type="curve" smooth="yes"/>
      <point x="76" y="462" type="line"/>
      <point x="76" y="3" type="line" smooth="yes"/>
      <point x="76" y="1"/>
      <point x="77" y="0"/>
    </contour>
  </outline>
</glyph>
<glyph name="g" format="2">
  <advance width="308"/>
  <unicode hex="0067"/>
  <anchor x="155" y="0" name="bottom"/>
  <anchor x="155" y="478" name="top"/>
  <outline>
    <contour>
      <point x="155" y="-191" type="curve" smooth="yes"/>
      <point x="243" y="-191"/>
      <point x="280" y="-154"/>
      <point x="280" y="-67" type="curve" smooth="yes"/>
      <point x="280" y="7"/>
      <point x="255" y="41"/>
      <point x="196" y="50" type="curve" smooth="yes"/>
      <point x="127" y="60" type="line" smooth="yes"/>
      <point x="88" y="66"/>
      <point x="67" y="88"/>
      <point x="67" y="122" type="curve" smooth="yes"/>
      <point x="67" y="155"/>
      <point x="86" y="175"/>
      <point x="125" y="194" type="curve"/>
      <point x="111" y="205" type="line"/>
      <point x="70" y="181"/>
      <point x="51" y="158"/>
      <point x="51" y="122" type="curve" smooth="yes"/>
      <point x="51" y="82"/>
      <point x="75" y="52"/>
      <point x="117" y="46" type="curve" smooth="yes"/>
      <point x="191" y="35" type="line" smooth="yes"/>
      <point x="244" y="27"/>
      <point x="264" y="-1"/>
      <point x="264" y="-67" type="curve" smooth="yes"/>
      <point x="264" y="-145"/>
      <point x="233" y="-175"/>
      <point x="156" y="-175" type="curve" smooth="yes"/>
      <point x="78" y="-175"/>
      <point x="47" y="-146"/>
      <point x="47" y="-70" type="curve" smooth="yes"/>
      <point x="47" y="-12"/>
      <point x="71" y="23"/>
      <point x="132" y="52" type="curve"/>
      <point x="109" y="56" type="line"/>
      <point x="56" y="31"/>
      <point x="31" y="-11"/>
      <point x="31" y="-70" type="curve" smooth="yes"/>
      <point x="31" y="-156"/>
      <point x="68" y="-191"/>
    </contour>
    <contour>
      <point x="160" y="180" type="curve" smooth="yes"/>
      <point x="237" y="180"/>
      <point x="263" y="229"/>
      <point x="263" y="332" type="curve" smooth="yes"/>
      <point x="263" y="436"/>
      <point x="237" y="484"/>
      <point x="160" y="484" type="curve" smooth="yes"/>
      <point x="83" y="484"/>
      <point x="57" y="436"/>
      <point x="57" y="332" type="curve" smooth="yes"/>
      <point x="57" y="229"/>
      <point x="83" y="180"/>
    </contour>
    <contour>
      <point x="160" y="196" type="curve" smooth="yes"/>
      <point x="94" y="196"/>
      <point x="73" y="240"/>
      <point x="73" y="332" type="curve" smooth="yes"/>
      <point x="73" y="425"/>
      <point x="94" y="468"/>
      <point x="160" y="468" type="curve" smooth="yes"/>
      <point x="226" y="468"/>
      <point x="247" y="425"/>
      <point x="247" y="332" type="curve" smooth="yes"/>
      <point x="247" y="240"/>
      <point x="226" y="196"/>
    </contour>
    <contour>
      <point x="219" y="464" type="line"/>
      <point x="223" y="515"/>
      <point x="230" y="571"/>
      <point x="238" y="604" type="curve" smooth="yes"/>
      <point x="238" y="606"/>
      <point x="238" y="608"/>
      <point x="235" y="608" type="curve" smooth="yes"/>
      <point x="226" y="608" type="line" smooth="yes"/>
      <point x="224" y="608"/>
      <point x="223" y="607"/>
      <point x="222" y="604" type="curve" smooth="yes"/>
      <point x="215" y="573"/>
      <point x="208" y="513"/>
      <point x="204" y="464" type="curve"/>
    </contour>
  </outline>
</glyph>
<glyph name="h" format="2">
  <advance width="343"/>
  <unicode hex="0068"/>
  <anchor x="173" y="0" name="bottom"/>
  <anchor x="173" y="239" name="center"/>
  <anchor x="173" y="478" name="top"/>
  <outline>
    <contour>
      <point x="270" y="0" type="curve" smooth="yes"/>
      <point x="280" y="0" type="line" smooth="yes"/>
      <point x="282" y="0"/>
      <point x="283" y="1"/>
      <point x="283" y="3" type="curve" smooth="yes"/>
      <point x="283" y="357" type="line" smooth="yes"/>
      <point x="283" y="447"/>
      <point x="254" y="484"/>
      <point x="204" y="484" type="curve" smooth="yes"/>
      <point x="155" y="484"/>
      <point x="113" y="446"/>
      <point x="72" y="397" type="curve"/>
      <point x="72" y="376" type="line"/>
      <point x="112" y="425"/>
      <point x="155" y="468"/>
      <point x="203" y="468" type="curve" smooth="yes"/>
      <point x="246" y="468"/>
      <point x="267" y="432"/>
      <point x="267" y="354" type="curve" smooth="yes"/>
      <point x="267" y="3" type="line" smooth="yes"/>
      <point x="267" y="1"/>
      <point x="268" y="0"/>
    </contour>
    <contour>
      <point x="62" y="0" type="curve" smooth="yes"/>
      <point x="74" y="0" type="line" smooth="yes"/>
      <point x="75" y="0"/>
      <point x="76" y="1"/>
      <point x="76" y="3" type="curve" smooth="yes"/>
      <point x="76" y="680" type="line" smooth="yes"/>
      <point x="76" y="682"/>
      <point x="75" y="683"/>
      <point x="73" y="683" type="curve" smooth="yes"/>
      <point x="63" y="683" type="line" smooth="yes"/>
      <point x="61" y="683"/>
      <point x="60" y="682"/>
      <point x="60" y="680" type="curve" smooth="yes"/>
      <point x="60" y="3" type="line" smooth="yes"/>
      <point x="60" y="1"/>
      <point x="61" y="0"/>
    </contour>
  </outline>
</glyph>
<glyph name="k" format="2">
  <advance width="294"/>
  <unicode hex="006B"/>
  <anchor x="155" y="0" name="bottom"/>
  <anchor x="150" y="478" name="top"/>
  <outline>
    <contour>
      <point x="63" y="0" type="curve" smooth="yes"/>
      <point x="73" y="0" type="line" smooth="yes"/>
      <point x="75" y="0"/>
      <point x="76" y="1"/>
      <point x="76" y="3" type="curve" smooth="yes"/>
      <point x="76" y="166" type="line"/>
      <point x="140" y="273" type="line"/>
      <point x="257" y="2" type="line"/>
      <point x="258" y="0"/>
      <point x="258" y="0"/>
      <point x="259" y="0" type="curve" smooth="yes"/>
      <point x="272" y="0" type="line" smooth="yes"/>
      <point x="274" y="0"/>
      <point x="275" y="2"/>
      <point x="274" y="4" type="curve"/>
      <point x="150" y="291" type="line"/>
      <point x="258" y="474" type="line" smooth="yes"/>
      <point x="259" y="476"/>
      <point x="258" y="478"/>
      <point x="256" y="478" type="curve" smooth="yes"/>
      <point x="246" y="478" type="line" smooth="yes"/>
      <point x="244" y="478"/>
      <point x="242" y="478"/>
      <point x="240" y="475" type="curve" smooth="yes"/>
      <point x="133" y="292" type="line" smooth="yes"/>
      <point x="114" y="261"/>
      <point x="95" y="227"/>
      <point x="77" y="195" type="curve"/>
      <point x="76" y="195" type="line"/>
      <point x="76" y="235"/>
      <point x="76" y="275"/>
      <point x="76" y="315" type="curve" smooth="yes"/>
      <point x="76" y="680" type="line" smooth="yes"/>
      <point x="76" y="682"/>
      <point x="75" y="683"/>
      <point x="73" y="683" type="curve" smooth="yes"/>
      <point x="63" y="683" type="line" smooth="yes"/>
      <point x="61" y="683"/>
      <point x="60" y="682"/>
      <point x="60" y="680" type="curve" smooth="yes"/>
      <point x="60" y="3" type="line" smooth="yes"/>
      <point x="60" y="1"/>
      <point x="61" y="0"/>
    </contour>
  </outline>
</glyph>
<glyph name="l" format="2">
  <advance width="136"/>
  <unicode hex="006C"/>
  <anchor x="68" y="0" name="bottom"/>
  <anchor x="68" y="239" name="center"/>
  <anchor x="68" y="683" name="top"/>
  <anchor x="116" y="478" name="topright"/>
  <outline>
    <contour>
      <point x="63" y="0" type="curve" smooth="yes"/>
      <point x="73" y="0" type="line" smooth="yes"/>
      <point x="75" y="0"/>
      <point x="76" y="1"/>
      <point x="76" y="3" type="curve" smooth="yes"/>
      <point x="76" y="680" type="line" smooth="yes"/>
      <point x="76" y="682"/>
      <point x="75" y="683"/>
      <point x="73" y="683" type="curve" smooth="yes"/>
      <point x="63" y="683" type="line" smooth="yes"/>
      <point x="61" y="683"/>
      <point x="60" y="682"/>
      <point x="60" y="680" type="curve" smooth="yes"/>
      <point x="60" y="3" type="line" smooth="yes"/>
      <point x="60" y="1"/>
      <point x="61" y="0"/>
    </contour>
  </outline>
</glyph>
<glyph name="m" format="2">
  <advance width="514"/>
  <unicode hex="006D"/>
  <anchor x="256" y="0" name="bottom"/>
  <anchor x="256" y="478" name="top"/>
  <outline>
    <contour>
      <point x="63" y="0" type="curve" smooth="yes"/>
      <point x="73" y="0" type="line" smooth="yes"/>
      <point x="75" y="0"/>
      <point x="76" y="1"/>
      <point x="76" y="3" type="curve" smooth="yes"/>
      <point x="76" y="381" type="line"/>
      <point x="127" y="445"/>
      <point x="158" y="468"/>
      <point x="192" y="468" type="curve" smooth="yes"/>
      <point x="232" y="468"/>
      <point x="249" y="432"/>
      <point x="249" y="378" type="curve" smooth="yes"/>
      <point x="249" y="3" type="line" smooth="yes"/>
      <point x="249" y="1"/>
      <point x="250" y="0"/>
      <point x="252" y="0" type="curve" smooth="yes"/>
      <point x="262" y="0" type="line" smooth="yes"/>
      <point x="264" y="0"/>
      <point x="265" y="1"/>
      <point x="265" y="3" type="curve" smooth="yes"/>
      <point x="265" y="381" type="line"/>
      <point x="316" y="445"/>
      <point x="347" y="468"/>
      <point x="381" y="468" type="curve" smooth="yes"/>
      <point x="421" y="468"/>
      <point x="438" y="432"/>
      <point x="438" y="378" type="curve" smooth="yes"/>
      <point x="438" y="3" type="line" smooth="yes"/>
      <point x="438" y="1"/>
      <point x="439" y="0"/>
      <point x="441" y="0" type="curve" smooth="yes"/>
      <point x="451" y="0" type="line" smooth="yes"/>
      <point x="453" y="0"/>
      <point x="454" y="1"/>
      <point x="454" y="3" type="curve" smooth="yes"/>
      <point x="454" y="382" type="line" smooth="yes"/>
      <point x="454" y="447"/>
      <point x="431" y="484"/>
      <point x="383" y="484" type="curve" smooth="yes"/>
      <point x="344" y="484"/>
      <point x="310" y="459"/>
      <point x="264" y="401" type="curve"/>
      <point x="260" y="454"/>
      <point x="237" y="484"/>
      <point x="194" y="484" type="curve" smooth="yes"/>
      <point x="155" y="484"/>
      <point x="121" y="459"/>
      <point x="76" y="402" type="curve"/>
      <point x="75" y="422"/>
      <point x="74" y="450"/>
      <point x="72" y="475" type="curve"/>
      <point x="72" y="477"/>
      <point x="71" y="478"/>
      <point x="69" y="478" type="curve" smooth="yes"/>
      <point x="60" y="478" type="line" smooth="yes"/>
      <point x="58" y="478"/>
      <point x="57" y="477"/>
      <point x="57" y="475" type="curve"/>
      <point x="59" y="441"/>
      <point x="60" y="403"/>
      <point x="60" y="368" type="curve" smooth="yes"/>
      <point x="60" y="3" type="line" smooth="yes"/>
      <point x="60" y="1"/>
      <point x="61" y="0"/>
    </contour>
  </outline>
</glyph>
<glyph name="n" format="2">
  <advance width="343"/>
  <unicode hex="006E"/>
  <anchor x="14" y="488" name="apo"/>
  <anchor x="172" y="0" name="bottom"/>
  <anchor x="169" y="478" name="top"/>
  <outline>
    <contour>
      <point x="270" y="0" type="curve" smooth="yes"/>
      <point x="280" y="0" type="line" smooth="yes"/>
      <point x="282" y="0"/>
      <point x="283" y="1"/>
      <point x="283" y="3" type="curve" smooth="yes"/>
      <point x="283" y="357" type="line" smooth="yes"/>
      <point x="283" y="447"/>
      <point x="254" y="484"/>
      <point x="204" y="484" type="curve" smooth="yes"/>
      <point x="155" y="484"/>
      <point x="113" y="446"/>
      <point x="72" y="397" type="curve"/>
      <point x="72" y="376" type="line"/>
      <point x="112" y="425"/>
      <point x="155" y="468"/>
      <point x="203" y="468" type="curve" smooth="yes"/>
      <point x="246" y="468"/>
      <point x="267" y="432"/>
      <point x="267" y="354" type="curve" smooth="yes"/>
      <point x="267" y="3" type="line" smooth="yes"/>
      <point x="267" y="1"/>
      <point x="268" y="0"/>
    </contour>
    <contour>
      <point x="63" y="0" type="curve" smooth="yes"/>
      <point x="73" y="0" type="line" smooth="yes"/>
      <point x="75" y="0"/>
      <point x="76" y="1"/>
      <point x="76" y="3" type="curve" smooth="yes"/>
      <point x="76" y="382" type="line"/>
      <point x="76" y="383" type="line"/>
      <point x="76" y="403"/>
      <point x="74" y="450"/>
      <point x="72" y="475" type="curve" smooth="yes"/>
      <point x="72" y="477"/>
      <point x="71" y="478"/>
      <point x="69" y="478" type="curve" smooth="yes"/>
      <point x="60" y="478" type="line" smooth="yes"/>
      <point x="58" y="478"/>
      <point x="57" y="477"/>
      <point x="57" y="475" type="curve" smooth="yes"/>
      <point x="59" y="441"/>
      <point x="60" y="403"/>
      <point x="60" y="368" type="curve" smooth="yes"/>
      <point x="60" y="3" type="line" smooth="yes"/>
      <point x="60" y="1"/>
      <point x="61" y="0"/>
    </contour>
  </outline>
</glyph>
<glyph name="o" format="2">
  <advance width="320"/>
  <unicode hex="006F"/>
  <guideline x="-58" y="-6" angle="0"/>
  <anchor x="160" y="0" name="bottom"/>
  <anchor x="160" y="239" name="center"/>
  <anchor x="287" y="10" name="ogonek"/>
  <anchor x="160" y="478" name="top"/>
  <anchor x="308" y="478" name="topright"/>
  <outline>
    <contour>
      <point x="160" y="-6" type="curve" smooth="yes"/>
      <point x="233.989" y="-6"/>
      <point x="273" y="41.987"/>
      <point x="273" y="133" type="curve" smooth="yes"/>
      <point x="273" y="345" type="line" smooth="yes"/>
      <point x="273" y="436.628"/>
      <point x="234.489" y="484"/>
      <point x="160" y="484" type="curve" smooth="yes"/>
      <point x="86.104" y="484"/>
      <point x="47" y="435.898"/>
      <point x="47" y="345" type="curve" smooth="yes"/>
      <point x="47" y="133" type="line" smooth="yes"/>
      <point x="47" y="41.987"/>
      <point x="86.011" y="-6"/>
    </contour>
    <contour>
      <point x="160" y="10" type="curve" smooth="yes"/>
      <point x="96.21" y="10"/>
      <point x="63" y="52.454"/>
      <point x="63" y="134" type="curve" smooth="yes"/>
      <point x="63" y="344" type="line" smooth="yes"/>
      <point x="63" y="425.546"/>
      <point x="96.21" y="468"/>
      <point x="160" y="468" type="curve" smooth="yes"/>
      <point x="223.79" y="468"/>
      <point x="257" y="425.546"/>
      <point x="257" y="344" type="curve" smooth="yes"/>
      <point x="257" y="134" type="line" smooth="yes"/>
      <point x="257" y="52.454"/>
      <point x="223.79" y="10"/>
    </contour>
  </outline>
</glyph>
<glyph name="p" format="2">
  <advance width="330"/>
  <unicode hex="0070"/>
  <anchor x="164" y="0" name="bottom"/>
  <anchor x="164" y="478" name="top"/>
  <outline>
    <contour>
      <point x="184" y="-6" type="curve" smooth="yes"/>
      <point x="246" y="-6"/>
      <point x="281" y="39"/>
      <point x="281" y="133" type="curve" smooth="yes"/>
      <point x="281" y="363" type="line" smooth="yes"/>
      <point x="281" y="449"/>
      <point x="256" y="484"/>
      <point x="205" y="484" type="curve" smooth="yes"/>
      <point x="149" y="484"/>
      <point x="108" y="442"/>
      <point x="67" y="390" type="curve"/>
      <point x="67" y="369" type="line"/>
      <point x="107" y="420"/>
      <point x="150" y="468"/>
      <point x="202" y="468" type="curve" smooth="yes"/>
      <point x="246" y="468"/>
      <point x="265" y="435"/>
      <point x="265" y="360" type="curve" smooth="yes"/>
      <point x="265" y="132" type="line" smooth="yes"/>
      <point x="265" y="53"/>
      <point x="237" y="10"/>
      <point x="185" y="10" type="curve" smooth="yes"/>
      <point x="147" y="10"/>
      <point x="107" y="29"/>
      <point x="70" y="50" type="curve"/>
      <point x="70" y="32" type="line"/>
      <point x="107" y="11"/>
      <point x="145" y="-6"/>
    </contour>
    <contour>
      <point x="63" y="-185" type="curve" smooth="yes"/>
      <point x="73" y="-185" type="line" smooth="yes"/>
      <point x="75" y="-185"/>
      <point x="76" y="-184"/>
      <point x="76" y="-182" type="curve" smooth="yes"/>
      <point x="76" y="390" type="line"/>
      <point x="76" y="394" type="line"/>
      <point x="76" y="409"/>
      <point x="74" y="443"/>
      <point x="72" y="475" type="curve" smooth="yes"/>
      <point x="72" y="477"/>
      <point x="71" y="478"/>
      <point x="69" y="478" type="curve" smooth="yes"/>
      <point x="60" y="478" type="line" smooth="yes"/>
      <point x="58" y="478"/>
      <point x="57" y="477"/>
      <point x="57" y="475" type="curve" smooth="yes"/>
      <point x="59" y="441"/>
      <point x="60" y="403"/>
      <point x="60" y="368" type="curve" smooth="yes"/>
      <point x="60" y="-182" type="line" smooth="yes"/>
      <point x="60" y="-184"/>
      <point x="61" y="-185"/>
    </contour>
  </outline>
</glyph>
<glyph name="q" format="2">
  <advance width="332"/>
  <unicode hex="0071"/>
  <anchor x="158" y="0" name="bottom"/>
  <anchor x="158" y="478" name="top"/>
  <outline>
    <contour>
      <point x="258" y="-185" type="curve" smooth="yes"/>
      <point x="270" y="-185" type="line" smooth="yes"/>
      <point x="271" y="-185"/>
      <point x="272" y="-184"/>
      <point x="272" y="-182" type="curve" smooth="yes"/>
      <point x="272" y="462" type="line"/>
      <point x="232" y="471"/>
      <point x="195" y="484"/>
      <point x="157" y="484" type="curve" smooth="yes"/>
      <point x="92" y="484"/>
      <point x="49" y="447"/>
      <point x="49" y="344" type="curve" smooth="yes"/>
      <point x="49" y="118" type="line" smooth="yes"/>
      <point x="49" y="31"/>
      <point x="78" y="-6"/>
      <point x="128" y="-6" type="curve" smooth="yes"/>
      <point x="177" y="-6"/>
      <point x="219" y="32"/>
      <point x="260" y="81" type="curve"/>
      <point x="260" y="102" type="line"/>
      <point x="220" y="53"/>
      <point x="177" y="10"/>
      <point x="129" y="10" type="curve" smooth="yes"/>
      <point x="86" y="10"/>
      <point x="65" y="46"/>
      <point x="65" y="121" type="curve" smooth="yes"/>
      <point x="65" y="345" type="line" smooth="yes"/>
      <point x="65" y="434"/>
      <point x="101" y="468"/>
      <point x="157" y="468" type="curve" smooth="yes"/>
      <point x="186" y="468"/>
      <point x="222" y="459"/>
      <point x="256" y="450" type="curve"/>
      <point x="256" y="-182" type="line" smooth="yes"/>
      <point x="256" y="-184"/>
      <point x="257" y="-185"/>
    </contour>
  </outline>
</glyph>
<glyph name="r" format="2">
  <advance width="222"/>
  <unicode hex="0072"/>
  <anchor x="68" y="0" name="bottom"/>
  <anchor x="130" y="478" name="top"/>
  <outline>
    <contour>
      <point x="63" y="0" type="curve" smooth="yes"/>
      <point x="73" y="0" type="line" smooth="yes"/>
      <point x="75" y="0"/>
      <point x="76" y="1"/>
      <point x="76" y="3" type="curve" smooth="yes"/>
      <point x="76" y="383" type="line"/>
      <point x="76" y="387" type="line"/>
      <point x="76" y="405"/>
      <point x="74" y="443"/>
      <point x="72" y="475" type="curve" smooth="yes"/>
      <point x="72" y="477"/>
      <point x="71" y="478"/>
      <point x="69" y="478" type="curve" smooth="yes"/>
      <point x="60" y="478" type="line" smooth="yes"/>
      <point x="58" y="478"/>
      <point x="57" y="478"/>
      <point x="57" y="474" type="curve" smooth="yes"/>
      <point x="59" y="441"/>
      <point x="60" y="403"/>
      <point x="60" y="368" type="curve" smooth="yes"/>
      <point x="60" y="3" type="line" smooth="yes"/>
      <point x="60" y="1"/>
      <point x="61" y="0"/>
    </contour>
    <contour>
      <point x="70" y="371" type="line"/>
      <point x="101" y="419"/>
      <point x="138" y="467"/>
      <point x="179" y="467" type="curve" smooth="yes"/>
      <point x="187" y="467"/>
      <point x="193" y="466"/>
      <point x="197" y="465" type="curve" smooth="yes"/>
      <point x="201" y="464"/>
      <point x="202" y="465"/>
      <point x="202" y="468" type="curve" smooth="yes"/>
      <point x="202" y="471"/>
      <point x="202" y="473"/>
      <point x="202" y="477" type="curve" smooth="yes"/>
      <point x="202" y="479"/>
      <point x="202" y="480"/>
      <point x="199" y="481" type="curve" smooth="yes"/>
      <point x="194" y="483"/>
      <point x="187" y="484"/>
      <point x="180" y="484" type="curve" smooth="yes"/>
      <point x="130" y="484"/>
      <point x="93" y="428"/>
      <point x="69" y="392" type="curve"/>
    </contour>
  </outline>
</glyph>
<glyph name="s" format="2">
  <advance width="273"/>
  <unicode hex="0073"/>
  <anchor x="138" y="0" name="bottom"/>
  <anchor x="139" y="478" name="top"/>
  <outline>
    <contour>
      <point x="138" y="-6" type="curve" smooth="yes"/>
      <point x="205" y="-6"/>
      <point x="238" y="30"/>
      <point x="238" y="105" type="curve" smooth="yes"/>
      <point x="238" y="166"/>
      <point x="224" y="195"/>
      <point x="182" y="229" type="curve" smooth="yes"/>
      <point x="112" y="287" type="line" smooth="yes"/>
      <point x="74" y="319"/>
      <point x="61" y="340"/>
      <point x="61" y="387" type="curve" smooth="yes"/>
      <point x="61" y="440"/>
      <point x="87" y="468"/>
      <point x="137" y="468" type="curve" smooth="yes"/>
      <point x="192" y="468"/>
      <point x="215" y="437"/>
      <point x="213" y="369" type="curve" smooth="yes"/>
      <point x="213" y="367"/>
      <point x="214" y="366"/>
      <point x="216" y="366" type="curve" smooth="yes"/>
      <point x="227" y="366" type="line" smooth="yes"/>
      <point x="228" y="366"/>
      <point x="229" y="367"/>
      <point x="229" y="369" type="curve" smooth="yes"/>
      <point x="231" y="447"/>
      <point x="202" y="484"/>
      <point x="137" y="484" type="curve" smooth="yes"/>
      <point x="79" y="484"/>
      <point x="45" y="449"/>
      <point x="45" y="387" type="curve" smooth="yes"/>
      <point x="45" y="338"/>
      <point x="59" y="309"/>
      <point x="103" y="273" type="curve" smooth="yes"/>
      <point x="171" y="218" type="line" smooth="yes"/>
      <point x="208" y="188"/>
      <point x="222" y="157"/>
      <point x="222" y="105" type="curve" smooth="yes"/>
      <point x="222" y="40"/>
      <point x="196" y="10"/>
      <point x="138" y="10" type="curve" smooth="yes"/>
      <point x="80" y="10"/>
      <point x="54" y="48"/>
      <point x="58" y="129" type="curve" smooth="yes"/>
      <point x="58" y="131"/>
      <point x="58" y="132"/>
      <point x="56" y="132" type="curve" smooth="yes"/>
      <point x="44" y="132" type="line" smooth="yes"/>
      <point x="43" y="132"/>
      <point x="42" y="131"/>
      <point x="42" y="129" type="curve" smooth="yes"/>
      <point x="38" y="38"/>
      <point x="69" y="-6"/>
    </contour>
  </outline>
</glyph>
<glyph name="t" format="2">
  <advance width="240"/>
  <unicode hex="0074"/>
  <anchor x="150" y="0" name="bottom"/>
  <anchor x="123" y="239" name="center"/>
  <anchor x="123" y="478" name="top"/>
  <anchor x="227" y="478" name="topright"/>
  <outline>
    <contour>
      <point x="153" y="-6" type="curve" smooth="yes"/>
      <point x="172" y="-6"/>
      <point x="193" y="-1"/>
      <point x="208" y="5" type="curve" smooth="yes"/>
      <point x="210" y="6"/>
      <point x="210" y="7"/>
      <point x="210" y="9" type="curve" smooth="yes"/>
      <point x="210" y="19" type="line" smooth="yes"/>
      <point x="210" y="22"/>
      <point x="209" y="23"/>
      <point x="207" y="22" type="curve" smooth="yes"/>
      <point x="191" y="15"/>
      <point x="171" y="10"/>
      <point x="153" y="10" type="curve" smooth="yes"/>
      <point x="113" y="10"/>
      <point x="95" y="42"/>
      <point x="95" y="116" type="curve" smooth="yes"/>
      <point x="95" y="462" type="line"/>
      <point x="204" y="462" type="line" smooth="yes"/>
      <point x="206" y="462"/>
      <point x="207" y="463"/>
      <point x="207" y="465" type="curve" smooth="yes"/>
      <point x="207" y="475" type="line" smooth="yes"/>
      <point x="207" y="477"/>
      <point x="206" y="478"/>
      <point x="204" y="478" type="curve" smooth="yes"/>
      <point x="95" y="478" type="line"/>
      <point x="95" y="615" type="line" smooth="yes"/>
      <point x="95" y="617"/>
      <point x="94" y="618"/>
      <point x="92" y="618" type="curve" smooth="yes"/>
      <point x="84" y="618" type="line" smooth="yes"/>
      <point x="82" y="618"/>
      <point x="81" y="617"/>
      <point x="81" y="615" type="curve" smooth="yes"/>
      <point x="79" y="478" type="line"/>
      <point x="30" y="478" type="line" smooth="yes"/>
      <point x="28" y="478"/>
      <point x="27" y="477"/>
      <point x="27" y="475" type="curve" smooth="yes"/>
      <point x="27" y="465" type="line" smooth="yes"/>
      <point x="27" y="463"/>
      <point x="28" y="462"/>
      <point x="30" y="462" type="curve" smooth="yes"/>
      <point x="79" y="462" type="line"/>
      <point x="79" y="116" type="line" smooth="yes"/>
      <point x="79" y="30"/>
      <point x="101" y="-6"/>
    </contour>
  </outline>
</glyph>
<glyph name="u" format="2">
  <advance width="336"/>
  <unicode hex="0075"/>
  <anchor x="168" y="0" name="bottom"/>
  <anchor x="283" y="10" name="ogonek"/>
  <anchor x="168" y="478" name="top"/>
  <anchor x="318" y="478" name="topright"/>
  <outline>
    <contour>
      <point x="136" y="-6" type="curve" smooth="yes"/>
      <point x="184" y="-6"/>
      <point x="223" y="31"/>
      <point x="264" y="81" type="curve"/>
      <point x="264" y="103" type="line"/>
      <point x="224" y="52"/>
      <point x="183" y="10"/>
      <point x="138" y="10" type="curve" smooth="yes"/>
      <point x="97" y="10"/>
      <point x="76" y="33"/>
      <point x="76" y="113" type="curve" smooth="yes"/>
      <point x="76" y="475" type="line" smooth="yes"/>
      <point x="76" y="477"/>
      <point x="75" y="478"/>
      <point x="73" y="478" type="curve" smooth="yes"/>
      <point x="63" y="478" type="line" smooth="yes"/>
      <point x="61" y="478"/>
      <point x="60" y="477"/>
      <point x="60" y="475" type="curve" smooth="yes"/>
      <point x="60" y="110" type="line" smooth="yes"/>
      <point x="60" y="20"/>
      <point x="87" y="-6"/>
    </contour>
    <contour>
      <point x="267" y="0" type="curve" smooth="yes"/>
      <point x="276" y="0" type="line" smooth="yes"/>
      <point x="278" y="0"/>
      <point x="279" y="1"/>
      <point x="279" y="3" type="curve" smooth="yes"/>
      <point x="277" y="37"/>
      <point x="276" y="75"/>
      <point x="276" y="110" type="curve" smooth="yes"/>
      <point x="276" y="475" type="line" smooth="yes"/>
      <point x="276" y="477"/>
      <point x="275" y="478"/>
      <point x="273" y="478" type="curve" smooth="yes"/>
      <point x="263" y="478" type="line" smooth="yes"/>
      <point x="261" y="478"/>
      <point x="260" y="477"/>
      <point x="260" y="475" type="curve" smooth="yes"/>
      <point x="260" y="95" type="line"/>
      <point x="260" y="92" type="line" smooth="yes"/>
      <point x="260" y="72"/>
      <point x="262" y="35"/>
      <point x="264" y="3" type="curve" smooth="yes"/>
      <point x="264" y="1"/>
      <point x="265" y="0"/>
    </contour>
  </outline>
</glyph>
<glyph name="v" format="2">
  <advance width="294"/>
  <unicode hex="0076"/>
  <anchor x="147" y="0" name="bottom"/>
  <anchor x="147" y="478" name="top"/>
  <outline>
    <contour>
      <point x="140" y="0" type="curve" smooth="yes"/>
      <point x="155" y="0" type="line" smooth="yes"/>
      <point x="157" y="0"/>
      <point x="158" y="1"/>
      <point x="159" y="5" type="curve" smooth="yes"/>
      <point x="270" y="472" type="line" smooth="yes"/>
      <point x="271" y="477"/>
      <point x="269" y="478"/>
      <point x="267" y="478" type="curve" smooth="yes"/>
      <point x="257" y="478" type="line" smooth="yes"/>
      <point x="255" y="478"/>
      <point x="254" y="477"/>
      <point x="253" y="472" type="curve" smooth="yes"/>
      <point x="174" y="135" type="line" smooth="yes"/>
      <point x="165" y="96"/>
      <point x="157" y="58"/>
      <point x="148" y="19" type="curve"/>
      <point x="147" y="19" type="line"/>
      <point x="138" y="57"/>
      <point x="130" y="95"/>
      <point x="121" y="133" type="curve" smooth="yes"/>
      <point x="42" y="473" type="line" smooth="yes"/>
      <point x="41" y="477"/>
      <point x="40" y="478"/>
      <point x="38" y="478" type="curve" smooth="yes"/>
      <point x="28" y="478" type="line" smooth="yes"/>
      <point x="25" y="478"/>
      <point x="24" y="477"/>
      <point x="25" y="472" type="curve" smooth="yes"/>
      <point x="136" y="5" type="line" smooth="yes"/>
      <point x="137" y="1"/>
      <point x="138" y="0"/>
    </contour>
  </outline>
</glyph>
<glyph name="w" format="2">
  <advance width="426"/>
  <unicode hex="0077"/>
  <anchor x="213" y="0" name="bottom"/>
  <anchor x="213" y="478" name="top"/>
  <outline>
    <contour>
      <point x="128" y="0" type="curve" smooth="yes"/>
      <point x="143" y="0" type="line" smooth="yes"/>
      <point x="146" y="0"/>
      <point x="147" y="0"/>
      <point x="148" y="4" type="curve" smooth="yes"/>
      <point x="179" y="168" type="line" smooth="yes"/>
      <point x="190" y="227"/>
      <point x="201" y="287"/>
      <point x="212" y="349" type="curve"/>
      <point x="213" y="349" type="line"/>
      <point x="224" y="287"/>
      <point x="235" y="227"/>
      <point x="246" y="168" type="curve" smooth="yes"/>
      <point x="277" y="3" type="line" smooth="yes"/>
      <point x="278" y="0"/>
      <point x="279" y="0"/>
      <point x="282" y="0" type="curve" smooth="yes"/>
      <point x="298" y="0" type="line" smooth="yes"/>
      <point x="300" y="0"/>
      <point x="301" y="0"/>
      <point x="302" y="3" type="curve" smooth="yes"/>
      <point x="400" y="471" type="line" smooth="yes"/>
      <point x="401" y="477"/>
      <point x="400" y="478"/>
      <point x="397" y="478" type="curve" smooth="yes"/>
      <point x="389" y="478" type="line" smooth="yes"/>
      <point x="386" y="478"/>
      <point x="385" y="476"/>
      <point x="384" y="472" type="curve" smooth="yes"/>
      <point x="321" y="169" type="line" smooth="yes"/>
      <point x="311" y="119"/>
      <point x="300" y="69"/>
      <point x="290" y="19" type="curve"/>
      <point x="289" y="19" type="line"/>
      <point x="279" y="69"/>
      <point x="271" y="119"/>
      <point x="261" y="169" type="curve" smooth="yes"/>
      <point x="203" y="470" type="line" smooth="yes"/>
      <point x="202" y="474"/>
      <point x="201" y="474"/>
      <point x="199" y="474" type="curve" smooth="yes"/>
      <point x="190" y="474" type="line" smooth="yes"/>
      <point x="188" y="474"/>
      <point x="187" y="473"/>
      <point x="188" y="469" type="curve" smooth="yes"/>
      <point x="204" y="381" type="line"/>
      <point x="164" y="168" type="line" smooth="yes"/>
      <point x="155" y="118"/>
      <point x="146" y="69"/>
      <point x="137" y="19" type="curve"/>
      <point x="136" y="19" type="line"/>
      <point x="126" y="69"/>
      <point x="115" y="118"/>
      <point x="105" y="168" type="curve" smooth="yes"/>
      <point x="41" y="474" type="line" smooth="yes"/>
      <point x="40" y="478"/>
      <point x="39" y="478"/>
      <point x="37" y="478" type="curve" smooth="yes"/>
      <point x="27" y="478" type="line" smooth="yes"/>
      <point x="25" y="478"/>
      <point x="24" y="477"/>
      <point x="25" y="474" type="curve" smooth="yes"/>
      <point x="123" y="6" type="line" smooth="yes"/>
      <point x="124" y="1"/>
      <point x="125" y="0"/>
    </contour>
  </outline>
</glyph>
<glyph name="x" format="2">
  <advance width="283"/>
  <unicode hex="0078"/>
  <anchor x="142" y="0" name="bottom"/>
  <anchor x="142" y="478" name="top"/>
  <outline>
    <contour>
      <point x="19" y="0" type="curve" smooth="yes"/>
      <point x="31" y="0" type="line" smooth="yes"/>
      <point x="32" y="0"/>
      <point x="33" y="0"/>
      <point x="34" y="2" type="curve" smooth="yes"/>
      <point x="104" y="154" type="line" smooth="yes"/>
      <point x="116" y="181"/>
      <point x="129" y="209"/>
      <point x="141" y="236" type="curve"/>
      <point x="142" y="236" type="line"/>
      <point x="154" y="209"/>
      <point x="167" y="181"/>
      <point x="179" y="154" type="curve" smooth="yes"/>
      <point x="249" y="2" type="line" smooth="yes"/>
      <point x="250" y="0"/>
      <point x="250" y="0"/>
      <point x="252" y="0" type="curve" smooth="yes"/>
      <point x="265" y="0" type="line" smooth="yes"/>
      <point x="266" y="0"/>
      <point x="267" y="2"/>
      <point x="266" y="4" type="curve" smooth="yes"/>
      <point x="151" y="252" type="line"/>
      <point x="255" y="474" type="line" smooth="yes"/>
      <point x="256" y="476"/>
      <point x="255" y="478"/>
      <point x="253" y="478" type="curve" smooth="yes"/>
      <point x="241" y="478" type="line" smooth="yes"/>
      <point x="239" y="478"/>
      <point x="238" y="478"/>
      <point x="237" y="476" type="curve" smooth="yes"/>
      <point x="180" y="350" type="line" smooth="yes"/>
      <point x="168" y="323"/>
      <point x="155" y="295"/>
      <point x="143" y="268" type="curve"/>
      <point x="142" y="268" type="line"/>
      <point x="129" y="295"/>
      <point x="117" y="323"/>
      <point x="104" y="350" type="curve" smooth="yes"/>
      <point x="45" y="476" type="line" smooth="yes"/>
      <point x="44" y="478"/>
      <point x="43" y="478"/>
      <point x="41" y="478" type="curve" smooth="yes"/>
      <point x="30" y="478" type="line" smooth="yes"/>
      <point x="28" y="478"/>
      <point x="27" y="476"/>
      <point x="28" y="474" type="curve" smooth="yes"/>
      <point x="132" y="252" type="line"/>
      <point x="17" y="4" type="line" smooth="yes"/>
      <point x="16" y="2"/>
      <point x="17" y="0"/>
    </contour>
  </outline>
</glyph>
<glyph name="y" format="2">
  <advance width="293"/>
  <unicode hex="0079"/>
  <anchor x="144" y="0" name="bottom"/>
  <anchor x="147" y="478" name="top"/>
  <outline>
    <contour>
      <point x="95" y="-185" type="curve" smooth="yes"/>
      <point x="104" y="-185" type="line" smooth="yes"/>
      <point x="107" y="-185"/>
      <point x="108" y="-184"/>
      <point x="109" y="-181" type="curve" smooth="yes"/>
      <point x="270" y="471" type="line" smooth="yes"/>
      <point x="272" y="478"/>
      <point x="270" y="478"/>
      <point x="267" y="478" type="curve" smooth="yes"/>
      <point x="257" y="478" type="line" smooth="yes"/>
      <point x="255" y="478"/>
      <point x="254" y="477"/>
      <point x="253" y="473" type="curve" smooth="yes"/>
      <point x="179" y="170" type="line" smooth="yes"/>
      <point x="168" y="125"/>
      <point x="156" y="79"/>
      <point x="146" y="34" type="curve"/>
      <point x="145" y="34" type="line"/>
      <point x="134" y="79"/>
      <point x="123" y="126"/>
      <point x="112" y="171" type="curve" smooth="yes"/>
      <point x="40" y="472" type="line" smooth="yes"/>
      <point x="39" y="477"/>
      <point x="38" y="478"/>
      <point x="36" y="478" type="curve" smooth="yes"/>
      <point x="24" y="478" type="line" smooth="yes"/>
      <point x="22" y="478"/>
      <point x="21" y="477"/>
      <point x="22" y="474" type="curve" smooth="yes"/>
      <point x="137" y="2" type="line"/>
      <point x="93" y="-180" type="line" smooth="yes"/>
      <point x="92" y="-183"/>
      <point x="93" y="-185"/>
    </contour>
  </outline>
</glyph>
<glyph name="z" format="2">
  <advance width="279"/>
  <unicode hex="007A"/>
  <anchor x="139" y="0" name="bottom"/>
  <anchor x="141" y="478" name="top"/>
  <outline>
    <contour>
      <point x="28" y="0" type="curve" smooth="yes"/>
      <point x="244" y="0" type="line" smooth="yes"/>
      <point x="246" y="0"/>
      <point x="247" y="1"/>
      <point x="247" y="3" type="curve" smooth="yes"/>
      <point x="247" y="13" type="line" smooth="yes"/>
      <point x="247" y="15"/>
      <point x="246" y="16"/>
      <point x="244" y="16" type="curve" smooth="yes"/>
      <point x="95" y="16" type="line" smooth="yes"/>
      <point x="79" y="16"/>
      <point x="61" y="16"/>
      <point x="45" y="16" type="curve"/>
      <point x="45" y="17" type="line"/>
      <point x="58" y="45"/>
      <point x="69" y="70"/>
      <point x="82" y="97" type="curve" smooth="yes"/>
      <point x="253" y="464" type="line" smooth="yes"/>
      <point x="254" y="467"/>
      <point x="254" y="469"/>
      <point x="254" y="471" type="curve" smooth="yes"/>
      <point x="254" y="474" type="line" smooth="yes"/>
      <point x="254" y="477"/>
      <point x="253" y="478"/>
      <point x="251" y="478" type="curve" smooth="yes"/>
      <point x="41" y="478" type="line" smooth="yes"/>
      <point x="39" y="478"/>
      <point x="38" y="477"/>
      <point x="38" y="475" type="curve" smooth="yes"/>
      <point x="38" y="465" type="line" smooth="yes"/>
      <point x="38" y="463"/>
      <point x="39" y="462"/>
      <point x="41" y="462" type="curve" smooth="yes"/>
      <point x="175" y="462" type="line" smooth="yes"/>
      <point x="193" y="462"/>
      <point x="214" y="462"/>
      <point x="233" y="462" type="curve"/>
      <point x="233" y="461" type="line"/>
      <point x="221" y="434"/>
      <point x="209" y="409"/>
      <point x="197" y="382" type="curve" smooth="yes"/>
      <point x="26" y="15" type="line" smooth="yes"/>
      <point x="25" y="13"/>
      <point x="24" y="10"/>
      <point x="24" y="7" type="curve" smooth="yes"/>
      <point x="24" y="4" type="line" smooth="yes"/>
      <point x="24" y="2"/>
      <point x="25" y="0"/>
    </contour>
  </outline>
</glyph>
<glyph name="braceleft" format="2">
  <advance width="154"/>
  <unicode hex="007B"/>
  <outline>
    <contour>
      <point x="151" y="-142" type="curve" smooth="yes"/>
      <point x="153" y="-142"/>
      <point x="154" y="-141"/>
      <point x="154" y="-139" type="curve" smooth="yes"/>
      <point x="154" y="-129" type="line" smooth="yes"/>
      <point x="154" y="-127"/>
      <point x="153" y="-126"/>
      <point x="151" y="-126" type="curve" smooth="yes"/>
      <point x="96" y="-126"/>
      <point x="83" y="-109"/>
      <point x="83" y="1" type="curve" smooth="yes"/>
      <point x="83" y="191" type="line" smooth="yes"/>
      <point x="83" y="242"/>
      <point x="73" y="268"/>
      <point x="52" y="278" type="curve"/>
      <point x="73" y="288"/>
      <point x="83" y="314"/>
      <point x="83" y="365" type="curve" smooth="yes"/>
      <point x="83" y="554" type="line" smooth="yes"/>
      <point x="83" y="664"/>
      <point x="95" y="681"/>
      <point x="151" y="681" type="curve" smooth="yes"/>
      <point x="153" y="681"/>
      <point x="154" y="682"/>
      <point x="154" y="684" type="curve" smooth="yes"/>
      <point x="154" y="694" type="line" smooth="yes"/>
      <point x="154" y="696"/>
      <point x="153" y="697"/>
      <point x="151" y="697" type="curve" smooth="yes"/>
      <point x="86" y="697"/>
      <point x="68" y="675"/>
      <point x="68" y="553" type="curve" smooth="yes"/>
      <point x="68" y="365" type="line" smooth="yes"/>
      <point x="68" y="315"/>
      <point x="59" y="286"/>
      <point x="30" y="286" type="curve" smooth="yes"/>
      <point x="17" y="286" type="line" smooth="yes"/>
      <point x="15" y="286"/>
      <point x="14" y="285"/>
      <point x="14" y="283" type="curve" smooth="yes"/>
      <point x="14" y="273" type="line" smooth="yes"/>
      <point x="14" y="271"/>
      <point x="15" y="270"/>
      <point x="17" y="270" type="curve" smooth="yes"/>
      <point x="30" y="270" type="line" smooth="yes"/>
      <point x="59" y="270"/>
      <point x="68" y="241"/>
      <point x="68" y="191" type="curve" smooth="yes"/>
      <point x="68" y="2" type="line" smooth="yes"/>
      <point x="68" y="-120"/>
      <point x="87" y="-142"/>
    </contour>
  </outline>
</glyph>
<glyph name="bar" format="2">
  <advance width="148"/>
  <unicode hex="007C"/>
  <outline>
    <contour>
      <point x="69" y="-185" type="curve" smooth="yes"/>
      <point x="79" y="-185" type="line" smooth="yes"/>
      <point x="81" y="-185"/>
      <point x="82" y="-184"/>
      <point x="82" y="-182" type="curve" smooth="yes"/>
      <point x="82" y="827" type="line" smooth="yes"/>
      <point x="82" y="829"/>
      <point x="81" y="830"/>
      <point x="79" y="830" type="curve" smooth="yes"/>
      <point x="69" y="830" type="line" smooth="yes"/>
      <point x="67" y="830"/>
      <point x="66" y="829"/>
      <point x="66" y="827" type="curve" smooth="yes"/>
      <point x="66" y="-182" type="line" smooth="yes"/>
      <point x="66" y="-184"/>
      <point x="67" y="-185"/>
    </contour>
  </outline>
</glyph>
<glyph name="braceright" format="2">
  <advance width="154"/>
  <unicode hex="007D"/>
  <outline>
    <contour>
      <point x="4" y="-142" type="curve" smooth="yes"/>
      <point x="68" y="-142"/>
      <point x="87" y="-120"/>
      <point x="87" y="2" type="curve" smooth="yes"/>
      <point x="87" y="191" type="line" smooth="yes"/>
      <point x="87" y="241"/>
      <point x="96" y="270"/>
      <point x="125" y="270" type="curve" smooth="yes"/>
      <point x="138" y="270" type="line" smooth="yes"/>
      <point x="140" y="270"/>
      <point x="141" y="271"/>
      <point x="141" y="273" type="curve" smooth="yes"/>
      <point x="141" y="283" type="line" smooth="yes"/>
      <point x="141" y="285"/>
      <point x="140" y="286"/>
      <point x="138" y="286" type="curve" smooth="yes"/>
      <point x="125" y="286" type="line" smooth="yes"/>
      <point x="96" y="286"/>
      <point x="87" y="315"/>
      <point x="87" y="365" type="curve" smooth="yes"/>
      <point x="87" y="553" type="line" smooth="yes"/>
      <point x="87" y="675"/>
      <point x="69" y="697"/>
      <point x="4" y="697" type="curve" smooth="yes"/>
      <point x="2" y="697"/>
      <point x="1" y="696"/>
      <point x="1" y="694" type="curve" smooth="yes"/>
      <point x="1" y="684" type="line" smooth="yes"/>
      <point x="1" y="682"/>
      <point x="2" y="681"/>
      <point x="4" y="681" type="curve" smooth="yes"/>
      <point x="60" y="681"/>
      <point x="72" y="664"/>
      <point x="72" y="554" type="curve" smooth="yes"/>
      <point x="72" y="365" type="line" smooth="yes"/>
      <point x="72" y="314"/>
      <point x="82" y="288"/>
      <point x="103" y="278" type="curve"/>
      <point x="82" y="268"/>
      <point x="72" y="242"/>
      <point x="72" y="191" type="curve" smooth="yes"/>
      <point x="72" y="1" type="line" smooth="yes"/>
      <point x="72" y="-109"/>
      <point x="59" y="-126"/>
      <point x="4" y="-126" type="curve" smooth="yes"/>
      <point x="2" y="-126"/>
      <point x="1" y="-127"/>
      <point x="1" y="-129" type="curve" smooth="yes"/>
      <point x="1" y="-139" type="line" smooth="yes"/>
      <point x="1" y="-141"/>
      <point x="2" y="-142"/>
    </contour>
  </outline>
</glyph>
<glyph name="asciitilde" format="2">
  <advance width="420"/>
  <unicode hex="007E"/>
  <outline>
    <contour>
      <point x="262" y="276" type="curve" smooth="yes"/>
      <point x="281" y="276"/>
      <point x="304" y="281"/>
      <point x="322" y="299" type="curve" smooth="yes"/>
      <point x="324" y="301"/>
      <point x="324" y="302"/>
      <point x="324" y="304" type="curve" smooth="yes"/>
      <point x="324" y="316" type="line" smooth="yes"/>
      <point x="324" y="318"/>
      <point x="322" y="318"/>
      <point x="321" y="317" type="curve" smooth="yes"/>
      <point x="308" y="304"/>
      <point x="288" y="292"/>
      <point x="263" y="292" type="curve" smooth="yes"/>
      <point x="226" y="292"/>
      <point x="200" y="328"/>
      <point x="158" y="328" type="curve" smooth="yes"/>
      <point x="139" y="328"/>
      <point x="116" y="323"/>
      <point x="98" y="305" type="curve" smooth="yes"/>
      <point x="96" y="303"/>
      <point x="96" y="302"/>
      <point x="96" y="300" type="curve" smooth="yes"/>
      <point x="96" y="288" type="line" smooth="yes"/>
      <point x="96" y="286"/>
      <point x="98" y="286"/>
      <point x="99" y="287" type="curve" smooth="yes"/>
      <point x="112" y="300"/>
      <point x="132" y="312"/>
      <point x="157" y="312" type="curve" smooth="yes"/>
      <point x="194" y="312"/>
      <point x="223" y="276"/>
    </contour>
  </outline>
</glyph>
<glyph name="exclamdown" format="2">
  <advance width="134"/>
  <unicode hex="00A1"/>
  <outline>
    <contour>
      <point x="62" y="318" type="line" smooth="yes"/>
      <point x="60" y="318"/>
      <point x="59" y="317"/>
      <point x="59" y="315" type="curve" smooth="yes"/>
      <point x="58" y="-174" type="line" smooth="yes"/>
      <point x="58" y="-176"/>
      <point x="59" y="-177"/>
      <point x="61" y="-177" type="curve" smooth="yes"/>
      <point x="72" y="-177" type="line" smooth="yes"/>
      <point x="74" y="-177"/>
      <point x="75" y="-176"/>
      <point x="75" y="-174" type="curve" smooth="yes"/>
      <point x="74" y="315" type="line" smooth="yes"/>
      <point x="74" y="317"/>
      <point x="73" y="318"/>
      <point x="71" y="318" type="curve" smooth="yes"/>
    </contour>
    <contour>
      <point x="67" y="485" type="curve" smooth="yes"/>
      <point x="56" y="485"/>
      <point x="49" y="478"/>
      <point x="49" y="467" type="curve" smooth="yes"/>
      <point x="49" y="460" type="line" smooth="yes"/>
      <point x="49" y="450"/>
      <point x="56" y="444"/>
      <point x="67" y="444" type="curve" smooth="yes"/>
      <point x="78" y="444"/>
      <point x="85" y="450"/>
      <point x="85" y="460" type="curve" smooth="yes"/>
      <point x="85" y="467" type="line" smooth="yes"/>
      <point x="85" y="478"/>
      <point x="78" y="485"/>
    </contour>
  </outline>
</glyph>
<glyph name="cent" format="2">
  <advance width="420"/>
  <unicode hex="00A2"/>
  <outline>
    <contour>
      <point x="205" y="528" type="line"/>
      <point x="221" y="528" type="line"/>
      <point x="221" y="615" type="line" smooth="yes"/>
      <point x="221" y="617"/>
      <point x="220" y="618"/>
      <point x="218" y="618" type="curve" smooth="yes"/>
      <point x="208" y="618" type="line" smooth="yes"/>
      <point x="206" y="618"/>
      <point x="205" y="617"/>
      <point x="205" y="615" type="curve" smooth="yes"/>
    </contour>
    <contour>
      <point x="208" y="-37" type="curve" smooth="yes"/>
      <point x="218" y="-37" type="line" smooth="yes"/>
      <point x="220" y="-37"/>
      <point x="221" y="-36"/>
      <point x="221" y="-34" type="curve" smooth="yes"/>
      <point x="221" y="48" type="line"/>
      <point x="205" y="48" type="line"/>
      <point x="205" y="-34" type="line" smooth="yes"/>
      <point x="205" y="-36"/>
      <point x="206" y="-37"/>
    </contour>
    <component base="c" xOffset="56" yOffset="50"/>
  </outline>
</glyph>
<glyph name="sterling" format="2">
  <advance width="420"/>
  <unicode hex="00A3"/>
  <outline>
    <contour>
      <point x="113" y="0" type="curve" smooth="yes"/>
      <point x="333" y="0" type="line" smooth="yes"/>
      <point x="335" y="0"/>
      <point x="336" y="1"/>
      <point x="336" y="3" type="curve" smooth="yes"/>
      <point x="336" y="13" type="line" smooth="yes"/>
      <point x="336" y="15"/>
      <point x="335" y="16"/>
      <point x="333" y="16" type="curve" smooth="yes"/>
      <point x="129" y="16" type="line"/>
      <point x="143" y="45"/>
      <point x="153" y="83"/>
      <point x="153" y="150" type="curve" smooth="yes"/>
      <point x="153" y="513" type="line" smooth="yes"/>
      <point x="153" y="611"/>
      <point x="180" y="645"/>
      <point x="231" y="645" type="curve" smooth="yes"/>
      <point x="295" y="645"/>
      <point x="305" y="585"/>
      <point x="305" y="499" type="curve" smooth="yes"/>
      <point x="305" y="497"/>
      <point x="306" y="496"/>
      <point x="308" y="496" type="curve" smooth="yes"/>
      <point x="318" y="496" type="line" smooth="yes"/>
      <point x="320" y="496"/>
      <point x="321" y="497"/>
      <point x="321" y="499" type="curve" smooth="yes"/>
      <point x="321" y="594"/>
      <point x="304" y="661"/>
      <point x="231" y="661" type="curve" smooth="yes"/>
      <point x="171" y="661"/>
      <point x="137" y="623"/>
      <point x="137" y="512" type="curve" smooth="yes"/>
      <point x="137" y="146" type="line" smooth="yes"/>
      <point x="137" y="92"/>
      <point x="129" y="49"/>
      <point x="111" y="14" type="curve" smooth="yes"/>
      <point x="110" y="12"/>
      <point x="110" y="11"/>
      <point x="110" y="9" type="curve" smooth="yes"/>
      <point x="110" y="3" type="line" smooth="yes"/>
      <point x="110" y="1"/>
      <point x="111" y="0"/>
    </contour>
    <contour>
      <point x="87" y="341" type="curve" smooth="yes"/>
      <point x="264" y="341" type="line" smooth="yes"/>
      <point x="266" y="341"/>
      <point x="267" y="342"/>
      <point x="267" y="344" type="curve" smooth="yes"/>
      <point x="267" y="354" type="line" smooth="yes"/>
      <point x="267" y="356"/>
      <point x="266" y="357"/>
      <point x="264" y="357" type="curve" smooth="yes"/>
      <point x="87" y="357" type="line" smooth="yes"/>
      <point x="85" y="357"/>
      <point x="84" y="356"/>
      <point x="84" y="354" type="curve" smooth="yes"/>
      <point x="84" y="344" type="line" smooth="yes"/>
      <point x="84" y="342"/>
      <point x="85" y="341"/>
    </contour>
  </outline>
</glyph>
<glyph name="currency" format="2">
  <advance width="420"/>
  <unicode hex="00A4"/>
  <outline>
    <contour>
      <point x="93" y="129" type="curve"/>
      <point x="129" y="180" type="line"/>
      <point x="147" y="147"/>
      <point x="174" y="130"/>
      <point x="210" y="130" type="curve" smooth="yes"/>
      <point x="246" y="130"/>
      <point x="273" y="147"/>
      <point x="291" y="180" type="curve"/>
      <point x="327" y="129" type="line" smooth="yes"/>
      <point x="329" y="126"/>
      <point x="331" y="126"/>
      <point x="333" y="128" type="curve" smooth="yes"/>
      <point x="339" y="134" type="line" smooth="yes"/>
      <point x="341" y="136"/>
      <point x="341" y="138"/>
      <point x="339" y="140" type="curve"/>
      <point x="298" y="197" type="line"/>
      <point x="310" y="226"/>
      <point x="316" y="265"/>
      <point x="316" y="314" type="curve" smooth="yes"/>
      <point x="316" y="363"/>
      <point x="310" y="402"/>
      <point x="299" y="431" type="curve"/>
      <point x="339" y="488" type="line" smooth="yes"/>
      <point x="341" y="491"/>
      <point x="341" y="492"/>
      <point x="339" y="494" type="curve" smooth="yes"/>
      <point x="333" y="500" type="line" smooth="yes"/>
      <point x="331" y="502"/>
      <point x="329" y="502"/>
      <point x="328" y="500" type="curve"/>
      <point x="291" y="448" type="line"/>
      <point x="273" y="481"/>
      <point x="246" y="498"/>
      <point x="210" y="498" type="curve" smooth="yes"/>
      <point x="174" y="498"/>
      <point x="147" y="481"/>
      <point x="129" y="448" type="curve"/>
      <point x="93" y="499" type="line"/>
      <point x="92" y="501"/>
      <point x="89" y="502"/>
      <point x="87" y="500" type="curve" smooth="yes"/>
      <point x="81" y="494" type="line" smooth="yes"/>
      <point x="79" y="492"/>
      <point x="79" y="490"/>
      <point x="81" y="488" type="curve"/>
      <point x="121" y="431" type="line"/>
      <point x="110" y="402"/>
      <point x="104" y="363"/>
      <point x="104" y="314" type="curve" smooth="yes"/>
      <point x="104" y="265"/>
      <point x="110" y="226"/>
      <point x="122" y="197" type="curve"/>
      <point x="81" y="140" type="line"/>
      <point x="79" y="138"/>
      <point x="79" y="136"/>
      <point x="81" y="134" type="curve" smooth="yes"/>
      <point x="87" y="128" type="line" smooth="yes"/>
      <point x="89" y="126"/>
      <point x="92" y="127"/>
    </contour>
    <contour>
      <point x="210" y="146" type="curve" smooth="yes"/>
      <point x="154" y="146"/>
      <point x="120" y="199"/>
      <point x="120" y="314" type="curve" smooth="yes"/>
      <point x="120" y="430"/>
      <point x="154" y="482"/>
      <point x="210" y="482" type="curve" smooth="yes"/>
      <point x="266" y="482"/>
      <point x="300" y="430"/>
      <point x="300" y="314" type="curve" smooth="yes"/>
      <point x="300" y="199"/>
      <point x="266" y="146"/>
    </contour>
  </outline>
</glyph>
<glyph name="yen" format="2">
  <advance width="420"/>
  <unicode hex="00A5"/>
  <outline>
    <contour>
      <point x="205" y="0" type="curve" smooth="yes"/>
      <point x="215" y="0" type="line" smooth="yes"/>
      <point x="217" y="0"/>
      <point x="218" y="1"/>
      <point x="218" y="3" type="curve" smooth="yes"/>
      <point x="218" y="225" type="line"/>
      <point x="347" y="651" type="line" smooth="yes"/>
      <point x="348" y="654"/>
      <point x="347" y="655"/>
      <point x="345" y="655" type="curve" smooth="yes"/>
      <point x="335" y="655" type="line" smooth="yes"/>
      <point x="333" y="655"/>
      <point x="332" y="655"/>
      <point x="331" y="652" type="curve" smooth="yes"/>
      <point x="245" y="365" type="line" smooth="yes"/>
      <point x="233" y="326"/>
      <point x="222" y="286"/>
      <point x="211" y="247" type="curve"/>
      <point x="210" y="247" type="line"/>
      <point x="199" y="286"/>
      <point x="189" y="325"/>
      <point x="177" y="364" type="curve" smooth="yes"/>
      <point x="91" y="652" type="line" smooth="yes"/>
      <point x="90" y="655"/>
      <point x="89" y="655"/>
      <point x="87" y="655" type="curve" smooth="yes"/>
      <point x="76" y="655" type="line" smooth="yes"/>
      <point x="74" y="655"/>
      <point x="73" y="654"/>
      <point x="74" y="651" type="curve" smooth="yes"/>
      <point x="202" y="225" type="line"/>
      <point x="202" y="3" type="line" smooth="yes"/>
      <point x="202" y="1"/>
      <point x="203" y="0"/>
    </contour>
    <contour>
      <point x="126" y="124" type="curve" smooth="yes"/>
      <point x="294" y="124" type="line" smooth="yes"/>
      <point x="296" y="124"/>
      <point x="297" y="125"/>
      <point x="297" y="127" type="curve" smooth="yes"/>
      <point x="297" y="137" type="line" smooth="yes"/>
      <point x="297" y="139"/>
      <point x="296" y="140"/>
      <point x="294" y="140" type="curve" smooth="yes"/>
      <point x="126" y="140" type="line" smooth="yes"/>
      <point x="124" y="140"/>
      <point x="123" y="139"/>
      <point x="123" y="137" type="curve" smooth="yes"/>
      <point x="123" y="127" type="line" smooth="yes"/>
      <point x="123" y="125"/>
      <point x="124" y="124"/>
    </contour>
    <contour>
      <point x="126" y="225" type="curve" smooth="yes"/>
      <point x="294" y="225" type="line" smooth="yes"/>
      <point x="296" y="225"/>
      <point x="297" y="226"/>
      <point x="297" y="228" type="curve" smooth="yes"/>
      <point x="297" y="238" type="line" smooth="yes"/>
      <point x="297" y="240"/>
      <point x="296" y="241"/>
      <point x="294" y="241" type="curve" smooth="yes"/>
      <point x="126" y="241" type="line" smooth="yes"/>
      <point x="124" y="241"/>
      <point x="123" y="240"/>
      <point x="123" y="238" type="curve" smooth="yes"/>
      <point x="123" y="228" type="line" smooth="yes"/>
      <point x="123" y="226"/>
      <point x="124" y="225"/>
    </contour>
  </outline>
</glyph>
<glyph name="section" format="2">
  <advance width="266"/>
  <unicode hex="00A7"/>
  <outline>
    <contour>
      <point x="156" y="115" type="line"/>
      <point x="208.885" y="126.538"/>
      <point x="241" y="171.5"/>
      <point x="241" y="234" type="curve" smooth="yes"/>
      <point x="241" y="285.479"/>
      <point x="227.677" y="319.341"/>
      <point x="193" y="356" type="curve" smooth="yes"/>
      <point x="98" y="456" type="line" smooth="yes"/>
      <point x="69.665" y="487.034"/>
      <point x="58" y="516.487"/>
      <point x="58" y="557" type="curve" smooth="yes"/>
      <point x="58" y="614.714"/>
      <point x="84.5" y="645"/>
      <point x="135" y="645" type="curve" smooth="yes"/>
      <point x="190.5" y="645"/>
      <point x="216" y="613.833"/>
      <point x="216" y="546" type="curve" smooth="yes"/>
      <point x="216" y="544"/>
      <point x="217" y="543"/>
      <point x="219" y="543" type="curve" smooth="yes"/>
      <point x="230" y="543" type="line" smooth="yes"/>
      <point x="232" y="543"/>
      <point x="232" y="544"/>
      <point x="232" y="546" type="curve" smooth="yes"/>
      <point x="232" y="622.531"/>
      <point x="199.552" y="661"/>
      <point x="135" y="661" type="curve" smooth="yes"/>
      <point x="75.938" y="661"/>
      <point x="42" y="623.048"/>
      <point x="42" y="557" type="curve" smooth="yes"/>
      <point x="42" y="510.894"/>
      <point x="54.649" y="480.214"/>
      <point x="89" y="443" type="curve" smooth="yes"/>
      <point x="184" y="342" type="line" smooth="yes"/>
      <point x="212.253" y="312.773"/>
      <point x="225" y="279.195"/>
      <point x="225" y="234" type="curve" smooth="yes"/>
      <point x="225" y="178.584"/>
      <point x="195.911" y="138.54"/>
      <point x="148" y="128" type="curve"/>
    </contour>
    <contour>
      <point x="130" y="-117" type="curve" smooth="yes"/>
      <point x="189" y="-117"/>
      <point x="223" y="-79"/>
      <point x="223" y="-13" type="curve" smooth="yes"/>
      <point x="223" y="33"/>
      <point x="210" y="64"/>
      <point x="176" y="101" type="curve" smooth="yes"/>
      <point x="81" y="202" type="line" smooth="yes"/>
      <point x="53" y="231"/>
      <point x="40" y="265"/>
      <point x="40" y="310" type="curve" smooth="yes"/>
      <point x="40" y="365"/>
      <point x="69" y="405"/>
      <point x="117" y="416" type="curve"/>
      <point x="109" y="429" type="line"/>
      <point x="56" y="417"/>
      <point x="24" y="373"/>
      <point x="24" y="310" type="curve" smooth="yes"/>
      <point x="24" y="259"/>
      <point x="37" y="225"/>
      <point x="72" y="188" type="curve" smooth="yes"/>
      <point x="167" y="88" type="line" smooth="yes"/>
      <point x="196" y="58"/>
      <point x="207" y="28"/>
      <point x="207" y="-13" type="curve" smooth="yes"/>
      <point x="207" y="-71"/>
      <point x="181" y="-101"/>
      <point x="130" y="-101" type="curve" smooth="yes"/>
      <point x="75" y="-101"/>
      <point x="49" y="-70"/>
      <point x="49" y="-2" type="curve" smooth="yes"/>
      <point x="49" y="0"/>
      <point x="48" y="1"/>
      <point x="46" y="1" type="curve" smooth="yes"/>
      <point x="35" y="1" type="line" smooth="yes"/>
      <point x="33" y="1"/>
      <point x="33" y="0"/>
      <point x="33" y="-2" type="curve" smooth="yes"/>
      <point x="33" y="-79"/>
      <point x="65" y="-117"/>
    </contour>
  </outline>
</glyph>
<glyph name="copyright" format="2">
  <advance width="418"/>
  <unicode hex="00A9"/>
  <outline>
    <contour>
      <point x="209" y="-6" type="curve" smooth="yes"/>
      <point x="310" y="-6"/>
      <point x="367" y="54"/>
      <point x="367" y="177" type="curve" smooth="yes"/>
      <point x="367" y="427" type="line" smooth="yes"/>
      <point x="367" y="550"/>
      <point x="310" y="610"/>
      <point x="209" y="610" type="curve" smooth="yes"/>
      <point x="108" y="610"/>
      <point x="51" y="550"/>
      <point x="51" y="427" type="curve" smooth="yes"/>
      <point x="51" y="177" type="line" smooth="yes"/>
      <point x="51" y="54"/>
      <point x="108" y="-6"/>
    </contour>
    <contour>
      <point x="209" y="10" type="curve" smooth="yes"/>
      <point x="116" y="10"/>
      <point x="67" y="64"/>
      <point x="67" y="176" type="curve" smooth="yes"/>
      <point x="67" y="428" type="line" smooth="yes"/>
      <point x="67" y="540"/>
      <point x="116" y="594"/>
      <point x="209" y="594" type="curve" smooth="yes"/>
      <point x="302" y="594"/>
      <point x="351" y="540"/>
      <point x="351" y="428" type="curve" smooth="yes"/>
      <point x="351" y="176" type="line" smooth="yes"/>
      <point x="351" y="64"/>
      <point x="302" y="10"/>
    </contour>
    <contour>
      <point x="213" y="124" type="curve" smooth="yes"/>
      <point x="262" y="124"/>
      <point x="286" y="159"/>
      <point x="286" y="222" type="curve" smooth="yes"/>
      <point x="286" y="224"/>
      <point x="286" y="226"/>
      <point x="284" y="226" type="curve" smooth="yes"/>
      <point x="272" y="226" type="line" smooth="yes"/>
      <point x="271" y="226"/>
      <point x="270" y="225"/>
      <point x="270" y="223" type="curve" smooth="yes"/>
      <point x="270" y="168"/>
      <point x="253" y="140"/>
      <point x="213" y="140" type="curve" smooth="yes"/>
      <point x="172" y="140"/>
      <point x="153" y="169"/>
      <point x="153" y="233" type="curve" smooth="yes"/>
      <point x="153" y="365" type="line" smooth="yes"/>
      <point x="153" y="429"/>
      <point x="172" y="458"/>
      <point x="213" y="458" type="curve" smooth="yes"/>
      <point x="253" y="458"/>
      <point x="270" y="430"/>
      <point x="270" y="375" type="curve" smooth="yes"/>
      <point x="270" y="373"/>
      <point x="271" y="372"/>
      <point x="272" y="372" type="curve" smooth="yes"/>
      <point x="284" y="372" type="line" smooth="yes"/>
      <point x="286" y="372"/>
      <point x="286" y="374"/>
      <point x="286" y="376" type="curve" smooth="yes"/>
      <point x="286" y="439"/>
      <point x="262" y="474"/>
      <point x="213" y="474" type="curve" smooth="yes"/>
      <point x="164" y="474"/>
      <point x="137" y="439"/>
      <point x="137" y="366" type="curve" smooth="yes"/>
      <point x="137" y="232" type="line" smooth="yes"/>
      <point x="137" y="159"/>
      <point x="164" y="124"/>
    </contour>
  </outline>
</glyph>
<glyph name="ordfeminine" format="2">
  <advance width="221"/>
  <unicode hex="00AA"/>
  <outline>
    <contour>
      <point x="96" y="334" type="curve" smooth="yes"/>
      <point x="122" y="334"/>
      <point x="144" y="354"/>
      <point x="164" y="381" type="curve"/>
      <point x="164" y="373"/>
      <point x="165" y="363"/>
      <point x="166" y="345" type="curve"/>
      <point x="166" y="343"/>
      <point x="167" y="342"/>
      <point x="169" y="342" type="curve" smooth="yes"/>
      <point x="179" y="342" type="line" smooth="yes"/>
      <point x="181" y="342"/>
      <point x="182" y="343"/>
      <point x="182" y="346" type="curve"/>
      <point x="180" y="366"/>
      <point x="179" y="391"/>
      <point x="179" y="415" type="curve" smooth="yes"/>
      <point x="179" y="587" type="line" smooth="yes"/>
      <point x="179" y="637"/>
      <point x="159" y="662"/>
      <point x="119" y="661" type="curve" smooth="yes"/>
      <point x="76" y="660"/>
      <point x="54" y="633"/>
      <point x="56" y="586" type="curve"/>
      <point x="56" y="583"/>
      <point x="57" y="582"/>
      <point x="59" y="582" type="curve" smooth="yes"/>
      <point x="70" y="582" type="line" smooth="yes"/>
      <point x="71" y="582"/>
      <point x="72" y="583"/>
      <point x="72" y="585" type="curve"/>
      <point x="70" y="624"/>
      <point x="87" y="645"/>
      <point x="119" y="645" type="curve" smooth="yes"/>
      <point x="150" y="645"/>
      <point x="163" y="627"/>
      <point x="163" y="586" type="curve" smooth="yes"/>
      <point x="163" y="526" type="line"/>
      <point x="119" y="518" type="line" smooth="yes"/>
      <point x="67" y="508"/>
      <point x="44" y="475"/>
      <point x="44" y="419" type="curve" smooth="yes"/>
      <point x="44" y="366"/>
      <point x="63" y="334"/>
    </contour>
    <contour>
      <point x="45" y="238" type="curve" smooth="yes"/>
      <point x="175" y="238" type="line" smooth="yes"/>
      <point x="177" y="238"/>
      <point x="178" y="239"/>
      <point x="178" y="241" type="curve" smooth="yes"/>
      <point x="178" y="251" type="line" smooth="yes"/>
      <point x="178" y="253"/>
      <point x="177" y="254"/>
      <point x="175" y="254" type="curve" smooth="yes"/>
      <point x="45" y="254" type="line" smooth="yes"/>
      <point x="43" y="254"/>
      <point x="42" y="253"/>
      <point x="42" y="251" type="curve" smooth="yes"/>
      <point x="42" y="241" type="line" smooth="yes"/>
      <point x="42" y="239"/>
      <point x="43" y="238"/>
    </contour>
    <contour>
      <point x="97" y="350" type="curve" smooth="yes"/>
      <point x="71" y="350"/>
      <point x="60" y="373"/>
      <point x="60" y="419" type="curve" smooth="yes"/>
      <point x="60" y="467"/>
      <point x="79" y="494"/>
      <point x="120" y="502" type="curve" smooth="yes"/>
      <point x="163" y="510" type="line"/>
      <point x="163" y="401" type="line"/>
      <point x="140" y="371"/>
      <point x="119" y="350"/>
    </contour>
  </outline>
</glyph>
<glyph name="guillemetleft" format="2">
  <advance width="300"/>
  <unicode hex="00AB"/>
  <outline>
    <contour>
      <point x="235" y="93" type="curve" smooth="yes"/>
      <point x="246" y="93" type="line" smooth="yes"/>
      <point x="248" y="93"/>
      <point x="249" y="95"/>
      <point x="248" y="97" type="curve" smooth="yes"/>
      <point x="169" y="263" type="line"/>
      <point x="249" y="429" type="line" smooth="yes"/>
      <point x="250" y="431"/>
      <point x="249" y="433"/>
      <point x="247" y="433" type="curve" smooth="yes"/>
      <point x="237" y="433" type="line" smooth="yes"/>
      <point x="236" y="433"/>
      <point x="235" y="433"/>
      <point x="234" y="431" type="curve" smooth="yes"/>
      <point x="153" y="265" type="line" smooth="yes"/>
      <point x="152" y="263"/>
      <point x="152" y="263"/>
      <point x="153" y="261" type="curve" smooth="yes"/>
      <point x="232" y="95" type="line" smooth="yes"/>
      <point x="233" y="93"/>
      <point x="234" y="93"/>
    </contour>
    <contour>
      <point x="135" y="93" type="curve" smooth="yes"/>
      <point x="146" y="93" type="line" smooth="yes"/>
      <point x="148" y="93"/>
      <point x="149" y="95"/>
      <point x="148" y="97" type="curve" smooth="yes"/>
      <point x="69" y="263" type="line"/>
      <point x="149" y="429" type="line" smooth="yes"/>
      <point x="150" y="431"/>
      <point x="149" y="433"/>
      <point x="147" y="433" type="curve" smooth="yes"/>
      <point x="137" y="433" type="line" smooth="yes"/>
      <point x="136" y="433"/>
      <point x="135" y="433"/>
      <point x="134" y="431" type="curve" smooth="yes"/>
      <point x="53" y="265" type="line" smooth="yes"/>
      <point x="52" y="263"/>
      <point x="52" y="263"/>
      <point x="53" y="261" type="curve" smooth="yes"/>
      <point x="132" y="95" type="line" smooth="yes"/>
      <point x="133" y="93"/>
      <point x="134" y="93"/>
    </contour>
  </outline>
</glyph>
<glyph name="logicalnot" format="2">
  <advance width="420"/>
  <unicode hex="00AC"/>
  <outline>
    <contour>
      <point x="312" y="163" type="curve" smooth="yes"/>
      <point x="322" y="163" type="line" smooth="yes"/>
      <point x="324" y="163"/>
      <point x="325" y="164"/>
      <point x="325" y="166" type="curve" smooth="yes"/>
      <point x="325" y="306" type="line" smooth="yes"/>
      <point x="325" y="308"/>
      <point x="324" y="309"/>
      <point x="322" y="309" type="curve" smooth="yes"/>
      <point x="99" y="309" type="line" smooth="yes"/>
      <point x="97" y="309"/>
      <point x="96" y="308"/>
      <point x="96" y="306" type="curve" smooth="yes"/>
      <point x="96" y="296" type="line" smooth="yes"/>
      <point x="96" y="294"/>
      <point x="97" y="293"/>
      <point x="99" y="293" type="curve" smooth="yes"/>
      <point x="309" y="293" type="line"/>
      <point x="309" y="166" type="line" smooth="yes"/>
      <point x="309" y="164"/>
      <point x="310" y="163"/>
    </contour>
  </outline>
</glyph>
<glyph name="registered" format="2">
  <advance width="343"/>
  <unicode hex="00AE"/>
  <outline>
    <contour>
      <point x="171" y="305" type="curve" smooth="yes"/>
      <point x="253" y="305"/>
      <point x="291" y="357"/>
      <point x="291" y="476" type="curve" smooth="yes"/>
      <point x="291" y="526" type="line"/>
      <point x="291" y="645"/>
      <point x="253" y="697"/>
      <point x="171" y="697" type="curve" smooth="yes"/>
      <point x="89" y="697"/>
      <point x="51" y="645"/>
      <point x="51" y="526" type="curve"/>
      <point x="51" y="476" type="line" smooth="yes"/>
      <point x="51" y="357"/>
      <point x="89" y="305"/>
    </contour>
    <contour>
      <point x="171" y="321" type="curve" smooth="yes"/>
      <point x="96" y="321"/>
      <point x="67" y="368"/>
      <point x="67" y="477" type="curve" smooth="yes"/>
      <point x="67" y="525" type="line"/>
      <point x="67" y="634"/>
      <point x="96" y="681"/>
      <point x="171" y="681" type="curve" smooth="yes"/>
      <point x="246" y="681"/>
      <point x="275" y="634"/>
      <point x="275" y="525" type="curve"/>
      <point x="275" y="477" type="line" smooth="yes"/>
      <point x="275" y="368"/>
      <point x="246" y="321"/>
    </contour>
    <contour>
      <point x="130" y="392" type="curve" smooth="yes"/>
      <point x="142" y="392" type="line" smooth="yes"/>
      <point x="143" y="392"/>
      <point x="144" y="393"/>
      <point x="144" y="395" type="curve" smooth="yes"/>
      <point x="144" y="491" type="line"/>
      <point x="173" y="491" type="line"/>
      <point x="208" y="394" type="line" smooth="yes"/>
      <point x="208" y="393"/>
      <point x="209" y="392"/>
      <point x="211" y="392" type="curve" smooth="yes"/>
      <point x="224" y="392" type="line" smooth="yes"/>
      <point x="225" y="392"/>
      <point x="226" y="393"/>
      <point x="225" y="395" type="curve" smooth="yes"/>
      <point x="189" y="494" type="line"/>
      <point x="208" y="500"/>
      <point x="223" y="515"/>
      <point x="223" y="554" type="curve" smooth="yes"/>
      <point x="223" y="598"/>
      <point x="205" y="615"/>
      <point x="169" y="615" type="curve" smooth="yes"/>
      <point x="130" y="615" type="line" smooth="yes"/>
      <point x="129" y="615"/>
      <point x="128" y="614"/>
      <point x="128" y="613" type="curve" smooth="yes"/>
      <point x="128" y="395" type="line" smooth="yes"/>
      <point x="128" y="393"/>
      <point x="129" y="392"/>
    </contour>
    <contour>
      <point x="144" y="507" type="line"/>
      <point x="144" y="599" type="line"/>
      <point x="169" y="599" type="line" smooth="yes"/>
      <point x="194" y="599"/>
      <point x="207" y="588"/>
      <point x="207" y="558" type="curve" smooth="yes"/>
      <point x="207" y="548" type="line" smooth="yes"/>
      <point x="207" y="520"/>
      <point x="194" y="507"/>
      <point x="169" y="507" type="curve" smooth="yes"/>
    </contour>
  </outline>
</glyph>
<glyph name="degree" format="2">
  <advance width="232"/>
  <unicode hex="00B0"/>
  <outline>
    <contour>
      <point x="116" y="430" type="curve" smooth="yes"/>
      <point x="166" y="430"/>
      <point x="193" y="463"/>
      <point x="193" y="530" type="curve" smooth="yes"/>
      <point x="193" y="589" type="line" smooth="yes"/>
      <point x="193" y="656"/>
      <point x="166" y="689"/>
      <point x="116" y="689" type="curve" smooth="yes"/>
      <point x="66" y="689"/>
      <point x="39" y="656"/>
      <point x="39" y="589" type="curve" smooth="yes"/>
      <point x="39" y="530" type="line" smooth="yes"/>
      <point x="39" y="463"/>
      <point x="66" y="430"/>
    </contour>
    <contour>
      <point x="116" y="446" type="curve" smooth="yes"/>
      <point x="74" y="446"/>
      <point x="55" y="472"/>
      <point x="55" y="530" type="curve" smooth="yes"/>
      <point x="55" y="589" type="line" smooth="yes"/>
      <point x="55" y="647"/>
      <point x="74" y="673"/>
      <point x="116" y="673" type="curve" smooth="yes"/>
      <point x="158" y="673"/>
      <point x="177" y="647"/>
      <point x="177" y="589" type="curve" smooth="yes"/>
      <point x="177" y="530" type="line" smooth="yes"/>
      <point x="177" y="472"/>
      <point x="158" y="446"/>
    </contour>
  </outline>
</glyph>
<glyph name="plusminus" format="2">
  <advance width="420"/>
  <unicode hex="00B1"/>
  <outline>
    <contour>
      <point x="205" y="186" type="curve" smooth="yes"/>
      <point x="215" y="186" type="line" smooth="yes"/>
      <point x="217" y="186"/>
      <point x="218" y="187"/>
      <point x="218" y="189" type="curve" smooth="yes"/>
      <point x="218" y="293" type="line"/>
      <point x="323" y="293" type="line" smooth="yes"/>
      <point x="325" y="293"/>
      <point x="326" y="294"/>
      <point x="326" y="296" type="curve" smooth="yes"/>
      <point x="326" y="306" type="line" smooth="yes"/>
      <point x="326" y="308"/>
      <point x="325" y="309"/>
      <point x="323" y="309" type="curve" smooth="yes"/>
      <point x="218" y="309" type="line"/>
      <point x="218" y="414" type="line" smooth="yes"/>
      <point x="218" y="416"/>
      <point x="217" y="417"/>
      <point x="215" y="417" type="curve" smooth="yes"/>
      <point x="205" y="417" type="line" smooth="yes"/>
      <point x="203" y="417"/>
      <point x="202" y="416"/>
      <point x="202" y="414" type="curve" smooth="yes"/>
      <point x="202" y="309" type="line"/>
      <point x="98" y="309" type="line" smooth="yes"/>
      <point x="96" y="309"/>
      <point x="95" y="308"/>
      <point x="95" y="306" type="curve" smooth="yes"/>
      <point x="95" y="296" type="line" smooth="yes"/>
      <point x="95" y="294"/>
      <point x="96" y="293"/>
      <point x="98" y="293" type="curve" smooth="yes"/>
      <point x="202" y="293" type="line"/>
      <point x="202" y="189" type="line" smooth="yes"/>
      <point x="202" y="187"/>
      <point x="203" y="186"/>
    </contour>
    <contour>
      <point x="99" y="92" type="curve" smooth="yes"/>
      <point x="322" y="92" type="line" smooth="yes"/>
      <point x="324" y="92"/>
      <point x="325" y="93"/>
      <point x="325" y="95" type="curve" smooth="yes"/>
      <point x="325" y="105" type="line" smooth="yes"/>
      <point x="325" y="107"/>
      <point x="324" y="108"/>
      <point x="322" y="108" type="curve" smooth="yes"/>
      <point x="99" y="108" type="line" smooth="yes"/>
      <point x="97" y="108"/>
      <point x="96" y="107"/>
      <point x="96" y="105" type="curve" smooth="yes"/>
      <point x="96" y="95" type="line" smooth="yes"/>
      <point x="96" y="93"/>
      <point x="97" y="92"/>
    </contour>
  </outline>
</glyph>
<glyph name="paragraph" format="2">
  <advance width="357"/>
  <unicode hex="00B6"/>
  <outline>
    <contour>
      <point x="136" y="-185" type="curve" smooth="yes"/>
      <point x="146" y="-185" type="line" smooth="yes"/>
      <point x="148" y="-185"/>
      <point x="149" y="-184"/>
      <point x="149" y="-182" type="curve" smooth="yes"/>
      <point x="149" y="667" type="line"/>
      <point x="283" y="667" type="line"/>
      <point x="283" y="-182" type="line" smooth="yes"/>
      <point x="283" y="-184"/>
      <point x="284" y="-185"/>
      <point x="286" y="-185" type="curve" smooth="yes"/>
      <point x="296" y="-185" type="line" smooth="yes"/>
      <point x="298" y="-185"/>
      <point x="299" y="-184"/>
      <point x="299" y="-182" type="curve" smooth="yes"/>
      <point x="299" y="680" type="line" smooth="yes"/>
      <point x="299" y="682"/>
      <point x="298" y="683"/>
      <point x="296" y="683" type="curve" smooth="yes"/>
      <point x="115" y="683" type="line" smooth="yes"/>
      <point x="55" y="683"/>
      <point x="22" y="646"/>
      <point x="22" y="558" type="curve" smooth="yes"/>
      <point x="22" y="438" type="line" smooth="yes"/>
      <point x="22" y="350"/>
      <point x="55" y="313"/>
      <point x="115" y="313" type="curve" smooth="yes"/>
      <point x="133" y="313" type="line"/>
      <point x="133" y="-182" type="line" smooth="yes"/>
      <point x="133" y="-184"/>
      <point x="134" y="-185"/>
    </contour>
  </outline>
</glyph>
<glyph name="ordmasculine" format="2">
  <advance width="230"/>
  <unicode hex="00BA"/>
  <outline>
    <contour>
      <point x="115" y="334" type="curve" smooth="yes"/>
      <point x="159.527" y="334"/>
      <point x="188" y="362"/>
      <point x="188" y="421" type="curve" smooth="yes"/>
      <point x="188" y="574" type="line" smooth="yes"/>
      <point x="188" y="633"/>
      <point x="159.527" y="661"/>
      <point x="115" y="661" type="curve" smooth="yes"/>
      <point x="70.473" y="661"/>
      <point x="42" y="633"/>
      <point x="42" y="574" type="curve" smooth="yes"/>
      <point x="42" y="421" type="line" smooth="yes"/>
      <point x="42" y="362"/>
      <point x="70.473" y="334"/>
    </contour>
    <contour>
      <point x="50" y="238" type="curve" smooth="yes"/>
      <point x="180" y="238" type="line" smooth="yes"/>
      <point x="182" y="238"/>
      <point x="183" y="239"/>
      <point x="183" y="241" type="curve" smooth="yes"/>
      <point x="183" y="251" type="line" smooth="yes"/>
      <point x="183" y="253"/>
      <point x="182" y="254"/>
      <point x="180" y="254" type="curve" smooth="yes"/>
      <point x="50" y="254" type="line" smooth="yes"/>
      <point x="48" y="254"/>
      <point x="47" y="253"/>
      <point x="47" y="251" type="curve" smooth="yes"/>
      <point x="47" y="241" type="line" smooth="yes"/>
      <point x="47" y="239"/>
      <point x="48" y="238"/>
    </contour>
    <contour>
      <point x="115" y="350" type="curve" smooth="yes"/>
      <point x="78.104" y="350"/>
      <point x="58" y="369"/>
      <point x="58" y="422" type="curve" smooth="yes"/>
      <point x="58" y="573" type="line" smooth="yes"/>
      <point x="58" y="626"/>
      <point x="78.104" y="645"/>
      <point x="115" y="645" type="curve" smooth="yes"/>
      <point x="151.896" y="645"/>
      <point x="172" y="626"/>
      <point x="172" y="573" type="curve" smooth="yes"/>
      <point x="172" y="422" type="line" smooth="yes"/>
      <point x="172" y="369"/>
      <point x="151.896" y="350"/>
    </contour>
  </outline>
</glyph>
<glyph name="guillemetright" format="2">
  <advance width="300"/>
  <unicode hex="00BB"/>
  <outline>
    <contour>
      <point x="154" y="93" type="curve" smooth="yes"/>
      <point x="165" y="93" type="line" smooth="yes"/>
      <point x="166" y="93"/>
      <point x="167" y="93"/>
      <point x="168" y="95" type="curve" smooth="yes"/>
      <point x="247" y="261" type="line" smooth="yes"/>
      <point x="248" y="263"/>
      <point x="248" y="263"/>
      <point x="247" y="265" type="curve" smooth="yes"/>
      <point x="166" y="431" type="line" smooth="yes"/>
      <point x="165" y="433"/>
      <point x="164" y="433"/>
      <point x="163" y="433" type="curve" smooth="yes"/>
      <point x="153" y="433" type="line" smooth="yes"/>
      <point x="151" y="433"/>
      <point x="150" y="431"/>
      <point x="151" y="429" type="curve" smooth="yes"/>
      <point x="231" y="263" type="line"/>
      <point x="152" y="97" type="line" smooth="yes"/>
      <point x="151" y="95"/>
      <point x="152" y="93"/>
    </contour>
    <contour>
      <point x="54" y="93" type="curve" smooth="yes"/>
      <point x="65" y="93" type="line" smooth="yes"/>
      <point x="66" y="93"/>
      <point x="67" y="93"/>
      <point x="68" y="95" type="curve" smooth="yes"/>
      <point x="147" y="261" type="line" smooth="yes"/>
      <point x="148" y="263"/>
      <point x="148" y="263"/>
      <point x="147" y="265" type="curve" smooth="yes"/>
      <point x="66" y="431" type="line" smooth="yes"/>
      <point x="65" y="433"/>
      <point x="64" y="433"/>
      <point x="63" y="433" type="curve" smooth="yes"/>
      <point x="53" y="433" type="line" smooth="yes"/>
      <point x="51" y="433"/>
      <point x="50" y="431"/>
      <point x="51" y="429" type="curve" smooth="yes"/>
      <point x="131" y="263" type="line"/>
      <point x="52" y="97" type="line" smooth="yes"/>
      <point x="51" y="95"/>
      <point x="52" y="93"/>
    </contour>
  </outline>
</glyph>
